<svg width="133" height="65" viewBox="0 0 133 65" fill="none" xmlns="http://www.w3.org/2000/svg">
<mask id="mask0_212_68" style="mask-type:luminance" maskUnits="userSpaceOnUse" x="0" y="0" width="133" height="65">
<path d="M0.219727 64.8853H132.615V0.21875H0.219727V64.8853Z" fill="white"/>
</mask>
<g mask="url(#mask0_212_68)">
<path d="M113.815 38.2997H119.427C120.792 38.2997 121.868 38.6438 122.649 39.3238C123.438 40.0038 123.832 40.9706 123.832 42.2077C123.832 43.4612 123.404 44.4772 122.55 45.2309C121.728 45.9518 120.669 46.3041 119.362 46.3041H113.815V38.2997ZM113.815 60.4615V50.8348H119.945C122.87 50.8348 125.22 50.0811 126.987 48.5736C128.836 46.9923 129.756 44.8786 129.756 42.2241C129.756 39.6106 128.959 37.546 127.348 36.022C125.747 34.5228 123.511 33.7772 120.66 33.7772H108.089V60.4615H113.815ZM82.6824 50.0565C82.6824 53.4238 83.57 56.0619 85.3528 57.9872C87.2674 60.06 90.1265 61.1005 93.931 61.1005C97.6284 61.1005 100.423 60.142 102.32 58.233C104.26 56.2831 105.229 53.5631 105.229 50.0565V33.7772H99.4443V50.4416C99.4443 54.3578 97.6206 56.3159 93.9803 56.3159C90.3075 56.3159 88.4669 54.3578 88.4669 50.4416V33.7772H82.6824V50.0565ZM72.7898 40.4462C74.0387 42.0848 74.6628 44.3132 74.6628 47.1398C74.6628 50.2204 73.907 52.5881 72.4031 54.2431C71.1627 55.6195 69.5193 56.3159 67.4984 56.3159C65.2387 56.3159 63.4718 55.472 62.1983 53.7925C60.974 52.1621 60.3578 49.95 60.3578 47.1398C60.3578 44.3132 60.974 42.0848 62.1983 40.4462C63.4801 38.7503 65.2218 37.9065 67.4322 37.9065C69.7081 37.9065 71.4994 38.7503 72.7898 40.4462ZM57.901 36.8741C55.6085 39.332 54.4664 42.7648 54.4664 47.148C54.4664 51.9491 55.8385 55.5703 58.5747 58.0282C60.8508 60.0764 63.8252 61.1005 67.4984 61.1005C71.5902 61.1005 74.7946 59.8552 77.1036 57.3646C79.4041 54.8985 80.5544 51.4985 80.5544 47.148C80.5544 42.7894 79.4041 39.3565 77.1036 36.8741C74.803 34.3753 71.6395 33.1382 67.6048 33.1382C63.4472 33.1382 60.2098 34.3835 57.901 36.8741ZM36.9895 38.2997H42.5686C44.1051 38.2997 45.2472 38.57 46.0032 39.119C46.7673 39.6679 47.1453 40.5773 47.1453 41.8472C47.1453 44.3215 45.617 45.5586 42.5686 45.5586H36.9895V38.2997ZM36.9895 60.4615V50.0565H42.7412L47.6136 60.4615H54.0966L48.3614 49.1061C51.5002 47.656 53.0696 45.2719 53.0696 41.9537C53.0696 39.6188 52.4697 37.7835 51.2701 36.4235C49.7335 34.6539 47.326 33.7772 44.0558 33.7772H31.2214V60.4615H36.9895ZM25.7818 36.4563C23.8674 34.2442 20.9094 33.1382 16.9078 33.1382C12.8159 33.1382 9.61962 34.4163 7.3025 36.9724C5.02648 39.4876 3.89258 42.9532 3.89258 47.3774C3.89258 52.285 5.25655 55.9472 8.00092 58.3559C10.0716 60.1829 12.7419 61.1005 16.0287 61.1005C19.5947 61.1005 22.2815 59.9863 24.081 57.766L24.689 60.4615H28.3866V46.3451H18.4526V50.5235H22.7499V51.7524C22.7499 53.1206 22.1665 54.2431 20.9998 55.1033C19.8905 55.9144 18.4772 56.3159 16.7681 56.3159C14.5414 56.3159 12.8241 55.554 11.6245 54.03C10.4002 52.498 9.78396 50.2859 9.78396 47.3938C9.78396 44.4198 10.3673 42.1094 11.5341 40.4626C12.7502 38.7585 14.4674 37.9065 16.7024 37.9065C19.8083 37.9065 21.8707 39.5205 22.8896 42.7648L28.3126 41.4458C27.7375 39.3894 26.8911 37.718 25.7818 36.4563Z" fill="white"/>
<path d="M73.9316 27.9928L78.911 9.14911L83.6276 27.9928H89.8968L96.3963 1.30029H90.5047L86.4621 20.5536L81.8934 1.30029H76.1666L71.4422 20.5536L67.5061 1.30029H61.467L67.6047 27.9928H73.9316ZM35.7734 28.0096V8.99382L42.1166 28.0096H46.8495L53.1599 8.99382V28.0096H58.6404V1.32525H51.0647L44.6146 21.1439L38.0823 1.32525H30.3339V28.0096H35.7734ZM10.5317 5.84774H16.6284C17.8199 5.84774 18.7237 5.987 19.3564 6.26558C20.3835 6.71616 20.8929 7.56824 20.8929 8.82177C20.8929 9.86222 20.556 10.6242 19.8905 11.1076C19.2413 11.591 18.1568 11.8285 16.6284 11.8285H10.5317V5.84774ZM10.5317 16.3265H16.5627C18.1568 16.3265 19.3482 16.5314 20.137 16.9327C21.1641 17.4571 21.6735 18.4484 21.6735 19.8822C21.6735 21.0866 21.3531 21.955 20.7039 22.4957C19.9152 23.1511 18.5348 23.4789 16.5627 23.4789H10.5317V16.3265ZM16.4559 28.0096C23.8181 28.0096 27.4991 25.3305 27.4991 19.9887C27.4991 17.0147 26.0694 14.9582 23.2018 13.8194C25.5025 12.7134 26.6528 10.8045 26.6528 8.10079C26.6528 5.72485 25.7079 3.947 23.8263 2.75902C22.3226 1.80045 20.2849 1.32525 17.7048 1.32525H4.8457V28.0096H16.4559Z" fill="white"/>
</g>
</svg>
