<svg width="250" height="250" viewBox="0 0 250 250" fill="none" xmlns="http://www.w3.org/2000/svg">
<mask id="mask0_212_77" style="mask-type:luminance" maskUnits="userSpaceOnUse" x="12" y="69" width="227" height="111">
<path d="M12.375 179.804H238.343V69.373H12.375V179.804Z" fill="white"/>
</mask>
<g mask="url(#mask0_212_77)">
<path d="M206.256 134.403H215.835C218.163 134.403 220 134.991 221.332 136.152C222.679 137.313 223.352 138.964 223.352 141.077C223.352 143.217 222.622 144.952 221.164 146.24C219.761 147.471 217.953 148.072 215.723 148.072H206.256V134.403ZM206.256 172.249V155.809H216.718C221.711 155.809 225.722 154.522 228.737 151.948C231.893 149.248 233.463 145.638 233.463 141.105C233.463 136.642 232.103 133.116 229.354 130.514C226.62 127.953 222.805 126.68 217.938 126.68H196.482V172.249H206.256ZM153.119 154.48C153.119 160.23 154.634 164.736 157.677 168.023C160.945 171.563 165.825 173.34 172.318 173.34C178.629 173.34 183.398 171.703 186.637 168.443C189.947 165.113 191.601 160.468 191.601 154.48V126.68H181.728V155.138C181.728 161.825 178.615 165.169 172.402 165.169C166.134 165.169 162.992 161.825 162.992 155.138V126.68H153.119V154.48ZM136.235 138.069C138.367 140.867 139.432 144.672 139.432 149.499C139.432 154.76 138.142 158.803 135.575 161.63C133.458 163.98 130.653 165.169 127.204 165.169C123.347 165.169 120.331 163.728 118.158 160.86C116.068 158.076 115.016 154.298 115.016 149.499C115.016 144.672 116.068 140.867 118.158 138.069C120.346 135.173 123.318 133.732 127.091 133.732C130.975 133.732 134.033 135.173 136.235 138.069ZM110.823 131.969C106.911 136.166 104.961 142.028 104.961 149.513C104.961 157.712 107.303 163.896 111.973 168.093C115.858 171.591 120.935 173.34 127.204 173.34C134.188 173.34 139.657 171.213 143.598 166.96C147.524 162.749 149.487 156.943 149.487 149.513C149.487 142.07 147.524 136.208 143.598 131.969C139.671 127.701 134.272 125.589 127.385 125.589C120.289 125.589 114.764 127.715 110.823 131.969ZM75.1322 134.403H84.6545C87.277 134.403 89.2263 134.865 90.5165 135.802C91.8207 136.74 92.4658 138.293 92.4658 140.461C92.4658 144.687 89.8574 146.799 84.6545 146.799H75.1322V134.403ZM75.1322 172.249V154.48H84.949L93.2652 172.249H104.33L94.5414 152.857C99.8986 150.381 102.577 146.309 102.577 140.643C102.577 136.656 101.553 133.522 99.5059 131.199C96.8834 128.177 92.7743 126.68 87.1928 126.68H65.2874V172.249H75.1322ZM56.0034 131.255C52.7359 127.478 47.6873 125.589 40.8576 125.589C33.8736 125.589 28.4183 127.771 24.4635 132.137C20.5789 136.432 18.6436 142.35 18.6436 149.905C18.6436 158.286 20.9715 164.54 25.6555 168.653C29.1896 171.773 33.7474 173.34 39.357 173.34C45.4434 173.34 50.0292 171.437 53.1005 167.646L54.1383 172.249H60.4491V148.142H43.4941V155.278H50.8286V157.376C50.8286 159.713 49.8329 161.63 47.8415 163.099C45.9482 164.484 43.5362 165.169 40.6191 165.169C36.8186 165.169 33.8877 163.868 31.8401 161.266C29.7505 158.649 28.6988 154.872 28.6988 149.933C28.6988 144.854 29.6945 140.909 31.6859 138.097C33.7614 135.187 36.6924 133.732 40.507 133.732C45.808 133.732 49.3281 136.488 51.067 142.028L60.3229 139.776C59.3412 136.264 57.8967 133.41 56.0034 131.255Z" fill="black"/>
<path d="M138.184 116.802L146.683 84.6231L154.733 116.802H165.433L176.526 71.2197H166.47L159.571 104.098L151.773 71.2197H141.999L133.935 104.098L127.217 71.2197H116.91L127.385 116.802H138.184ZM73.0568 116.831V84.3579L83.8833 116.831H91.9612L102.732 84.3579V116.831H112.086V71.2624H99.1555L88.1467 105.106L76.9975 71.2624H63.773V116.831H73.0568ZM29.9751 78.9854H40.3809C42.4144 78.9854 43.9571 79.2232 45.0368 79.6989C46.7898 80.4684 47.6594 81.9235 47.6594 84.0641C47.6594 85.8409 47.0844 87.1421 45.9485 87.9675C44.8405 88.793 42.9894 89.1987 40.3809 89.1987H29.9751V78.9854ZM29.9751 96.8798H40.2687C42.9894 96.8798 45.0229 97.2297 46.3692 97.9151C48.1221 98.8106 48.9916 100.503 48.9916 102.952C48.9916 105.009 48.4447 106.492 47.3368 107.415C45.9906 108.534 43.6345 109.094 40.2687 109.094H29.9751V96.8798ZM40.0865 116.831C52.652 116.831 58.9347 112.256 58.9347 103.134C58.9347 98.0551 56.4945 94.5433 51.6001 92.5985C55.5268 90.7098 57.4902 87.4499 57.4902 82.8329C57.4902 78.7755 55.8775 75.7395 52.6659 73.7108C50.0995 72.0738 46.6216 71.2624 42.218 71.2624H20.2705V116.831H40.0865Z" fill="black"/>
</g>
</svg>
