<svg width="250" height="250" viewBox="0 0 250 250" fill="none" xmlns="http://www.w3.org/2000/svg">
<mask id="mask0_212_77" style="mask-type:luminance" maskUnits="userSpaceOnUse" x="59" y="92" width="133" height="65">
<path d="M59.2197 156.885H191.615V92.2188H59.2197V156.885Z" fill="white"/>
</mask>
<g mask="url(#mask0_212_77)">
<path d="M172.815 130.3H178.427C179.792 130.3 180.868 130.644 181.649 131.324C182.438 132.004 182.832 132.971 182.832 134.208C182.832 135.461 182.404 136.477 181.55 137.231C180.728 137.952 179.669 138.304 178.362 138.304H172.815V130.3ZM172.815 152.462V142.835H178.945C181.87 142.835 184.22 142.081 185.987 140.574C187.836 138.992 188.756 136.879 188.756 134.224C188.756 131.611 187.959 129.546 186.348 128.022C184.747 126.523 182.511 125.777 179.66 125.777H167.089V152.462H172.815ZM141.682 142.057C141.682 145.424 142.57 148.062 144.353 149.987C146.267 152.06 149.127 153.101 152.931 153.101C156.628 153.101 159.423 152.142 161.32 150.233C163.26 148.283 164.229 145.563 164.229 142.057V125.777H158.444V142.442C158.444 146.358 156.621 148.316 152.98 148.316C149.308 148.316 147.467 146.358 147.467 142.442V125.777H141.682V142.057ZM131.79 132.446C133.039 134.085 133.663 136.313 133.663 139.14C133.663 142.22 132.907 144.588 131.403 146.243C130.163 147.619 128.519 148.316 126.498 148.316C124.239 148.316 122.472 147.472 121.198 145.792C119.974 144.162 119.358 141.95 119.358 139.14C119.358 136.313 119.974 134.085 121.198 132.446C122.48 130.75 124.222 129.906 126.432 129.906C128.708 129.906 130.499 130.75 131.79 132.446ZM116.901 128.874C114.608 131.332 113.466 134.765 113.466 139.148C113.466 143.949 114.839 147.57 117.575 150.028C119.851 152.076 122.825 153.101 126.498 153.101C130.59 153.101 133.795 151.855 136.104 149.365C138.404 146.898 139.554 143.498 139.554 139.148C139.554 134.789 138.404 131.357 136.104 128.874C133.803 126.375 130.64 125.138 126.605 125.138C122.447 125.138 119.21 126.383 116.901 128.874ZM95.9895 130.3H101.569C103.105 130.3 104.247 130.57 105.003 131.119C105.767 131.668 106.145 132.577 106.145 133.847C106.145 136.321 104.617 137.559 101.569 137.559H95.9895V130.3ZM95.9895 152.462V142.057H101.741L106.614 152.462H113.097L107.361 141.106C110.5 139.656 112.07 137.272 112.07 133.954C112.07 131.619 111.47 129.784 110.27 128.423C108.734 126.654 106.326 125.777 103.056 125.777H90.2214V152.462H95.9895ZM84.7818 128.456C82.8674 126.244 79.9094 125.138 75.9078 125.138C71.8159 125.138 68.6196 126.416 66.3025 128.972C64.0265 131.488 62.8926 134.953 62.8926 139.377C62.8926 144.285 64.2565 147.947 67.0009 150.356C69.0716 152.183 71.7419 153.101 75.0287 153.101C78.5947 153.101 81.2815 151.986 83.081 149.766L83.689 152.462H87.3866V138.345H77.4526V142.523H81.7499V143.752C81.7499 145.121 81.1665 146.243 79.9998 147.103C78.8905 147.914 77.4772 148.316 75.7681 148.316C73.5414 148.316 71.8241 147.554 70.6245 146.03C69.4002 144.498 68.784 142.286 68.784 139.394C68.784 136.42 69.3673 134.109 70.5341 132.463C71.7502 130.758 73.4674 129.906 75.7024 129.906C78.8083 129.906 80.8707 131.52 81.8896 134.765L87.3126 133.446C86.7375 131.389 85.8911 129.718 84.7818 128.456Z" fill="black"/>
<path d="M132.932 119.993L137.911 101.149L142.628 119.993H148.897L155.396 93.3003H149.505L145.462 112.554L140.893 93.3003H135.167L130.442 112.554L126.506 93.3003H120.467L126.605 119.993H132.932ZM94.7734 120.01V100.994L101.117 120.01H105.849L112.16 100.994V120.01H117.64V93.3253H110.065L103.615 113.144L97.0823 93.3253H89.3339V120.01H94.7734ZM69.5317 97.8477H75.6284C76.8199 97.8477 77.7237 97.987 78.3564 98.2656C79.3835 98.7162 79.8929 99.5682 79.8929 100.822C79.8929 101.862 79.556 102.624 78.8905 103.108C78.2413 103.591 77.1568 103.829 75.6284 103.829H69.5317V97.8477ZM69.5317 108.326H75.5627C77.1568 108.326 78.3482 108.531 79.137 108.933C80.1641 109.457 80.6735 110.448 80.6735 111.882C80.6735 113.087 80.3531 113.955 79.7039 114.496C78.9152 115.151 77.5348 115.479 75.5627 115.479H69.5317V108.326ZM75.4559 120.01C82.8181 120.01 86.4991 117.33 86.4991 111.989C86.4991 109.015 85.0694 106.958 82.2018 105.819C84.5025 104.713 85.6528 102.804 85.6528 100.101C85.6528 97.7248 84.7079 95.947 82.8263 94.759C81.3226 93.8004 79.2849 93.3253 76.7048 93.3253H63.8457V120.01H75.4559Z" fill="black"/>
</g>
</svg>
