<svg width="250" height="250" viewBox="0 0 250 250" fill="none" xmlns="http://www.w3.org/2000/svg">
<path d="M104.33 144.874C106.266 144.887 108.182 144.46 109.947 143.623C111.653 142.817 113.188 141.66 114.461 140.22C115.754 138.757 116.766 137.047 117.445 135.183C118.873 131.211 118.873 126.828 117.445 122.856C116.767 120.99 115.754 119.279 114.461 117.815C113.184 116.384 111.65 115.235 109.947 114.433C108.182 113.595 106.266 113.169 104.33 113.182C100.817 113.182 97.9611 114.276 95.7607 116.464V99.8379H87.771V144.165H94.6023L95.7607 141.55C96.8037 142.625 98.0593 143.445 99.4381 143.952C101.001 144.573 102.659 144.886 104.33 144.874ZM103.243 137.422C102.247 137.429 101.258 137.256 100.319 136.909C99.434 136.58 98.6236 136.061 97.9386 135.387C97.2353 134.673 96.6931 133.802 96.3518 132.839C95.9423 131.663 95.7458 130.417 95.7726 129.165C95.7381 127.814 95.9342 126.466 96.3518 125.187C96.6826 124.2 97.2257 123.307 97.9386 122.577C98.6167 121.908 99.4307 121.41 100.319 121.121C101.265 120.809 102.251 120.654 103.243 120.663C104.253 120.654 105.252 120.884 106.166 121.334C107.065 121.77 107.88 122.377 108.57 123.123C109.277 123.89 109.827 124.799 110.189 125.796C110.963 127.895 110.963 130.223 110.189 132.322C109.821 133.307 109.271 134.206 108.57 134.966C107.879 135.711 107.065 136.317 106.166 136.755C105.251 137.201 104.252 137.429 103.243 137.422ZM128.981 144.165V128.194C128.973 127.167 129.212 126.154 129.675 125.25C130.132 124.344 130.763 123.547 131.528 122.91C132.35 122.235 133.281 121.721 134.277 121.392C135.39 121.022 136.552 120.838 137.72 120.846C138.108 120.85 138.495 120.88 138.879 120.938C139.303 121 139.692 121.071 140.037 121.151C140.462 121.272 140.886 121.372 141.311 121.455L142.064 113.987C140.576 113.538 139.038 113.293 137.49 113.257C136.473 113.241 135.458 113.381 134.479 113.674C133.641 113.934 132.841 114.311 132.099 114.796C131.435 115.235 130.83 115.766 130.302 116.376C129.81 116.953 129.365 117.572 128.973 118.227L128.219 114.057H120.975V144.165H128.981ZM148.511 109.917C149.661 109.928 150.77 109.461 151.594 108.618C152.419 107.774 152.893 106.622 152.914 105.413V105.301C152.923 104.688 152.815 104.08 152.596 103.512C152.377 102.944 152.052 102.428 151.641 101.994C150.813 101.125 149.691 100.637 148.521 100.637C147.351 100.637 146.228 101.125 145.401 101.994C144.983 102.424 144.653 102.939 144.43 103.508C144.207 104.076 144.096 104.686 144.103 105.301C144.096 106.51 144.543 107.674 145.348 108.538C146.152 109.403 147.249 109.898 148.4 109.917H148.511ZM152.506 144.165V114.045H144.5V144.165H152.506ZM168.89 156.549C171.133 156.559 173.367 156.232 175.523 155.578C177.676 154.899 179.635 153.668 181.223 151.996C182.111 151.079 182.846 150.012 183.397 148.839C183.944 147.616 184.323 146.317 184.524 144.982C184.772 143.375 184.918 141.752 184.96 140.124C185.016 138.323 185.044 136.268 185.044 133.961V114.045H178.22L177.03 116.355C175.975 115.253 174.686 114.43 173.269 113.953C171.681 113.424 170.024 113.164 168.358 113.182C166.512 113.165 164.685 113.569 163.002 114.366C161.395 115.133 159.948 116.227 158.746 117.585C157.532 118.975 156.579 120.594 155.937 122.356C155.256 124.218 154.913 126.198 154.926 128.194C154.917 130.189 155.26 132.168 155.937 134.032C156.575 135.803 157.528 137.431 158.746 138.827C159.946 140.189 161.393 141.283 163.002 142.046C164.685 142.843 166.512 143.247 168.358 143.231C170.003 143.251 171.635 142.931 173.162 142.288C174.583 141.696 175.896 140.849 177.042 139.786V140.395C177.082 141.839 176.836 143.276 176.32 144.615C175.867 145.716 175.19 146.7 174.336 147.496C173.491 148.273 172.493 148.842 171.413 149.164C170.252 149.513 169.05 149.687 167.842 149.682C165.956 149.677 164.084 149.327 162.312 148.647C161.539 148.351 160.8 147.964 160.11 147.492C159.524 147.099 159.021 146.582 158.635 145.974V153.81C160.105 154.695 161.682 155.368 163.324 155.811C165.137 156.311 167.004 156.559 168.878 156.549H168.89ZM169.992 135.783C169.039 135.791 168.094 135.596 167.216 135.208C166.374 134.839 165.611 134.297 164.97 133.615C164.33 132.922 163.82 132.108 163.467 131.217C162.733 129.329 162.733 127.213 163.467 125.325C164.176 123.528 165.511 122.084 167.2 121.288C168.073 120.879 169.02 120.671 169.977 120.679C171.053 120.654 172.122 120.884 173.103 121.351C173.944 121.756 174.693 122.346 175.3 123.081C175.883 123.792 176.327 124.617 176.606 125.508C177.168 127.244 177.178 129.125 176.633 130.867C176.359 131.782 175.909 132.629 175.311 133.355C174.714 134.08 173.981 134.67 173.158 135.087C172.166 135.574 171.079 135.812 169.985 135.783H169.992ZM196.572 144.165V128.803C196.548 127.583 196.735 126.37 197.123 125.22C197.445 124.282 197.948 123.423 198.599 122.698C199.204 122.04 199.934 121.523 200.741 121.18C201.551 120.838 202.415 120.662 203.288 120.663C204.215 120.662 205.125 120.924 205.922 121.422C206.762 121.938 207.501 122.618 208.096 123.427C208.736 124.295 209.231 125.271 209.56 126.313C209.903 127.388 210.078 128.515 210.08 129.649V129.924C210.08 131.042 210.08 132.359 210.052 133.869C210.033 135.512 210.023 137.101 210.02 138.635V144.165H217.839V129.028C217.85 126.926 217.507 124.839 216.824 122.864C216.189 121.017 215.237 119.308 214.015 117.823C212.818 116.396 211.356 115.242 209.719 114.433C208.06 113.596 206.242 113.168 204.403 113.182C202.89 113.157 201.386 113.44 199.976 114.016C198.694 114.555 197.523 115.349 196.528 116.355V99.8379H188.495V144.165H196.572ZM232.632 145.316C233.721 145.315 234.806 145.203 235.874 144.982C236.911 144.765 237.936 144.486 238.944 144.148V137.117C237.913 137.552 236.814 137.779 235.703 137.785C234.513 137.844 233.345 137.431 232.43 136.63C231.601 135.862 231.184 134.766 231.184 133.352V121.522H238.916V114.045H231.157V107.306H223.167V114.045L219.057 115.867V121.522H223.167V135.116C223.124 136.784 223.393 138.445 223.96 140.003C224.413 141.219 225.138 142.302 226.075 143.16C226.951 143.94 227.978 144.509 229.086 144.828C230.233 145.154 231.416 145.319 232.605 145.316H232.632Z" fill="black"/>
<path d="M40.1662 153.214C55.7219 153.214 68.3324 139.958 68.3324 123.607C68.3324 107.255 55.7219 94 40.1662 94C24.6104 94 12 107.255 12 123.607C12 139.958 24.6104 153.214 40.1662 153.214Z" fill="black"/>
<path d="M42.4274 139.036C43.8501 139.047 45.2585 138.737 46.5572 138.126C47.8109 137.53 48.9406 136.68 49.8816 135.624C50.8258 134.556 51.5676 133.307 52.0674 131.947C53.1188 129.044 53.1188 125.837 52.0674 122.935C51.5678 121.571 50.8245 120.32 49.8776 119.249C48.9388 118.191 47.8086 117.34 46.5532 116.747C45.255 116.142 43.8475 115.839 42.4274 115.859C39.8462 115.859 37.745 116.658 36.1238 118.257V106.093H30.2485V138.502H35.2748L36.1238 136.592C36.891 137.38 37.8151 137.98 38.8293 138.347C39.9785 138.806 41.1981 139.039 42.4274 139.036ZM41.634 133.573C40.9021 133.578 40.1748 133.451 39.4839 133.198C38.8355 132.958 38.2413 132.581 37.7384 132.088C37.2116 131.571 36.8045 130.933 36.5482 130.224C36.2459 129.364 36.1006 128.452 36.1198 127.535C36.0929 126.542 36.2381 125.553 36.5482 124.616C36.7982 123.891 37.2057 123.237 37.7384 122.706C38.2365 122.218 38.8332 121.854 39.4839 121.643C40.1803 121.417 40.9054 121.305 41.634 121.309C42.376 121.305 43.1099 121.471 43.7842 121.797C44.4439 122.118 45.0433 122.562 45.5535 123.106C46.0722 123.667 46.4771 124.332 46.7436 125.062C47.3148 126.595 47.3148 128.299 46.7436 129.832C46.4737 130.553 46.069 131.21 45.5535 131.763C45.0448 132.31 44.4451 132.753 43.7842 133.072C43.1064 133.406 42.3665 133.577 41.6182 133.573H41.634Z" fill="white"/>
</svg>
