<svg width="227" height="63" viewBox="0 0 227 63" fill="none" xmlns="http://www.w3.org/2000/svg">
<path d="M92.3295 50.8736C94.2659 50.8866 96.182 50.4599 97.9469 49.6226C99.6528 48.8166 101.188 47.6596 102.461 46.2199C103.754 44.7572 104.766 43.0471 105.445 41.1826C106.873 37.2109 106.873 32.8278 105.445 28.8561C104.767 26.9903 103.754 25.2788 102.461 23.8146C101.184 22.3842 99.6499 21.2347 97.9469 20.4328C96.182 19.5954 94.2659 19.1687 92.3295 19.1818C88.8174 19.1818 85.9611 20.2757 83.7607 22.4636V5.83789H75.771V50.1647H82.6023L83.7607 47.5501C84.8037 48.625 86.0593 49.4451 87.4381 49.952C89.0007 50.5734 90.659 50.8858 92.3295 50.8736ZM91.2426 43.4218C90.2471 43.4293 89.258 43.2558 88.3188 42.9089C87.434 42.5796 86.6236 42.0614 85.9386 41.3869C85.2353 40.6728 84.6931 39.8022 84.3518 38.839C83.9423 37.6632 83.7458 36.4171 83.7726 35.1653C83.7381 33.8135 83.9342 32.4662 84.3518 31.1871C84.6826 30.2003 85.2257 29.307 85.9386 28.5767C86.6167 27.9081 87.4307 27.4105 88.3188 27.1214C89.2646 26.8088 90.2512 26.654 91.2426 26.6627C92.2526 26.6544 93.2516 26.8838 94.1663 27.3341C95.0652 27.7705 95.8801 28.3768 96.5703 29.123C97.2765 29.8896 97.8272 30.7989 98.1889 31.796C98.9627 33.8953 98.9627 36.2226 98.1889 38.322C97.8213 39.3072 97.2711 40.2058 96.5703 40.9657C95.8793 41.7109 95.0646 42.3172 94.1663 42.7546C93.2505 43.2013 92.2521 43.4291 91.2426 43.4218ZM116.981 50.1647V34.1937C116.973 33.1666 117.212 32.1539 117.675 31.2497C118.132 30.3437 118.763 29.5471 119.528 28.9103C120.35 28.2351 121.281 27.7209 122.277 27.3925C123.39 27.022 124.552 26.8377 125.72 26.8462C126.108 26.8497 126.495 26.8803 126.879 26.9379C127.303 27.0005 127.692 27.0714 128.037 27.1506C128.462 27.2715 128.886 27.3716 129.311 27.455L130.064 19.9866C128.576 19.5379 127.038 19.2927 125.49 19.2569C124.473 19.2407 123.458 19.3812 122.479 19.6739C121.641 19.9336 120.841 20.3109 120.099 20.7956C119.435 21.2348 118.83 21.7664 118.302 22.376C117.81 22.9526 117.365 23.572 116.973 24.2275L116.219 20.0575H108.975V50.1647H116.981ZM136.511 15.9167C137.661 15.9279 138.77 15.461 139.594 14.6175C140.419 13.7741 140.893 12.6224 140.914 11.4131V11.3006C140.923 10.6879 140.815 10.0796 140.596 9.5117C140.377 8.94375 140.052 8.42761 139.641 7.99377C138.813 7.12468 137.691 6.63652 136.521 6.63652C135.351 6.63652 134.228 7.12468 133.401 7.99377C132.983 8.42437 132.653 8.93935 132.43 9.50767C132.207 10.076 132.096 10.6859 132.103 11.3006C132.096 12.51 132.543 13.6735 133.348 14.538C134.152 15.4025 135.249 15.898 136.4 15.9167H136.511ZM140.506 50.1647V20.045H132.5V50.1647H140.506ZM156.89 62.5495C159.133 62.559 161.367 62.2319 163.523 61.5779C165.676 60.8992 167.635 59.6683 169.223 57.9959C170.111 57.0791 170.846 56.012 171.397 54.8392C171.944 53.6156 172.323 52.3171 172.524 50.982C172.772 49.3747 172.918 47.7517 172.96 46.124C173.016 44.3225 173.044 42.2681 173.044 39.9608V20.045H166.22L165.03 22.3551C163.975 21.2532 162.686 20.43 161.269 19.9532C159.681 19.4244 158.024 19.164 156.358 19.1818C154.512 19.1654 152.685 19.5694 151.002 20.3661C149.395 21.1327 147.948 22.2269 146.746 23.5853C145.532 24.9749 144.579 26.5935 143.937 28.3557C143.256 30.2181 142.913 32.1983 142.926 34.1937C142.917 36.1886 143.26 38.168 143.937 40.0316C144.575 41.8031 145.528 43.4306 146.746 44.8271C147.946 46.1887 149.393 47.2833 151.002 48.0463C152.685 48.843 154.512 49.247 156.358 49.2306C158.003 49.2511 159.635 48.9309 161.162 48.2882C162.583 47.6958 163.896 46.8493 165.042 45.7862V46.395C165.082 47.8391 164.836 49.2761 164.32 50.615C163.867 51.7163 163.19 52.6999 162.336 53.4965C161.491 54.2728 160.493 54.8425 159.413 55.1645C158.252 55.5134 157.05 55.6875 155.842 55.6815C153.956 55.6773 152.084 55.3273 150.312 54.6474C149.539 54.3512 148.8 53.9637 148.11 53.4923C147.524 53.0993 147.021 52.5824 146.635 51.9744V59.8098C148.105 60.695 149.682 61.3682 151.324 61.8114C153.137 62.3109 155.004 62.559 156.878 62.5495H156.89ZM157.992 41.783C157.039 41.7913 156.094 41.5955 155.216 41.2076C154.374 40.8386 153.611 40.2971 152.97 39.6146C152.33 38.9218 151.82 38.1084 151.467 37.2169C150.733 35.3286 150.733 33.213 151.467 31.3247C152.176 29.5283 153.511 28.0845 155.2 27.2882C156.073 26.879 157.02 26.6714 157.977 26.6794C159.053 26.6544 160.122 26.8838 161.103 27.3508C161.944 27.7565 162.693 28.3465 163.3 29.0813C163.883 29.7919 164.327 30.6167 164.606 31.5082C165.168 33.2438 165.178 35.1247 164.633 36.8666C164.359 37.7822 163.909 38.6289 163.311 39.3547C162.714 40.0804 161.981 40.6699 161.158 41.0866C160.166 41.5736 159.079 41.812 157.985 41.783H157.992ZM184.572 50.1647V34.8025C184.548 33.5833 184.735 32.3696 185.123 31.2205C185.445 30.2821 185.948 29.4233 186.599 28.6977C187.204 28.04 187.934 27.5229 188.741 27.1798C189.551 26.8379 190.415 26.6624 191.288 26.6627C192.215 26.6623 193.125 26.9244 193.922 27.4217C194.762 27.9375 195.501 28.6185 196.096 29.4274C196.736 30.295 197.231 31.2708 197.56 32.313C197.903 33.3884 198.078 34.5149 198.08 35.649V35.9242C198.08 37.0418 198.08 38.3595 198.052 39.869C198.033 41.512 198.023 43.1007 198.02 44.6353V50.1647H205.839V35.0277C205.85 32.9263 205.507 30.8395 204.824 28.8645C204.189 27.0173 203.237 25.3084 202.015 23.823C200.818 22.3961 199.356 21.2423 197.719 20.4328C196.06 19.5958 194.242 19.1679 192.403 19.1818C190.89 19.1572 189.386 19.4404 187.976 20.0158C186.694 20.5548 185.523 21.3491 184.528 22.3551V5.83789H176.495V50.1647H184.572ZM220.632 51.3156C221.721 51.3151 222.806 51.2034 223.874 50.982C224.911 50.7649 225.936 50.4865 226.944 50.148V43.1174C225.913 43.5524 224.814 43.7787 223.703 43.7846C222.513 43.8436 221.345 43.4315 220.43 42.6295C219.601 41.8623 219.184 40.7656 219.184 39.3519V27.5217H226.916V20.045H219.157V13.3063H211.167V20.045L207.057 21.8673V27.5217H211.167V41.1158C211.124 42.7839 211.393 44.4446 211.96 46.003C212.413 47.2191 213.138 48.3021 214.075 49.1597C214.951 49.94 215.978 50.5093 217.086 50.8277C218.233 51.1545 219.416 51.3186 220.605 51.3156H220.632Z" fill="white"/>
<path d="M28.1662 59.2136C43.7219 59.2136 56.3324 45.9582 56.3324 29.6068C56.3324 13.2554 43.7219 0 28.1662 0C12.6104 0 0 13.2554 0 29.6068C0 45.9582 12.6104 59.2136 28.1662 59.2136Z" fill="white"/>
<path d="M30.4274 45.0355C31.8501 45.0474 33.2585 44.7374 34.5572 44.1265C35.8109 43.5302 36.9406 42.68 37.8816 41.6245C38.8258 40.5556 39.5676 39.3074 40.0674 37.9466C41.1188 35.0445 41.1188 31.8374 40.0674 28.9353C39.5678 27.571 38.8245 26.3198 37.8776 25.249C36.9388 24.191 35.8086 23.3404 34.5532 22.747C33.255 22.1415 31.8475 21.8385 30.4274 21.8588C27.8462 21.8588 25.745 22.6581 24.1238 24.2566V12.0928H18.2485V44.5018H23.2748L24.1238 42.5919C24.891 43.3802 25.8151 43.9798 26.8293 44.3475C27.9785 44.8063 29.1981 45.0395 30.4274 45.0355ZM29.634 39.5729C28.9021 39.5782 28.1748 39.4512 27.4839 39.1976C26.8355 38.9582 26.2413 38.5806 25.7384 38.0884C25.2116 37.5706 24.8045 36.933 24.5482 36.2244C24.2459 35.3641 24.1006 34.4516 24.1198 33.5348C24.0929 32.5425 24.2381 31.5534 24.5482 30.6158C24.7982 29.8905 25.2057 29.2366 25.7384 28.7059C26.2365 28.2177 26.8332 27.8542 27.4839 27.6426C28.1803 27.4174 28.9054 27.3049 29.634 27.309C30.376 27.3049 31.1099 27.4715 31.7842 27.7969C32.4439 28.1182 33.0433 28.5617 33.5535 29.1063C34.0722 29.6666 34.4771 30.332 34.7436 31.062C35.3148 32.5954 35.3148 34.2989 34.7436 35.8324C34.4737 36.5531 34.069 37.2097 33.5535 37.7631C33.0448 38.3096 32.4451 38.7533 31.7842 39.0725C31.1064 39.4062 30.3665 39.5771 29.6182 39.5729H29.634Z" fill="black"/>
</svg>
