<svg width="213" height="70" viewBox="0 0 213 70" fill="none" xmlns="http://www.w3.org/2000/svg">
<path fill-rule="evenodd" clip-rule="evenodd" d="M123.759 26.8891C125.319 26.8891 126.495 25.6968 126.495 24.1159C126.495 22.5132 125.319 21.3047 123.759 21.3047C122.198 21.3047 121.022 22.5132 121.022 24.1159C121.022 25.6968 122.198 26.8891 123.759 26.8891Z" fill="white"/>
<path fill-rule="evenodd" clip-rule="evenodd" d="M144.537 29.5483C141.517 29.5483 139.18 30.8007 137.734 33.18V29.7003H132.982V50.2901H137.734L137.733 39.5583C138.08 36.0357 140.744 33.8886 144.527 34.1075L144.727 34.1186V29.5483H144.537Z" fill="white"/>
<path fill-rule="evenodd" clip-rule="evenodd" d="M160.433 37.7383L168.124 29.7003H162.583L153.921 38.469V21.7231H149.169V50.2902H153.921V44.5157L157.122 41.1385L162.92 50.2026L162.977 50.2902H168.6L160.433 37.7383Z" fill="white"/>
<path fill-rule="evenodd" clip-rule="evenodd" d="M205.734 37.7808C203.644 37.1562 201.839 36.6161 201.839 35.2094C201.839 33.7017 203.348 33.3857 204.613 33.3857C206.38 33.3857 208.571 34.0586 210.329 35.1424L210.507 35.2516L212.267 31.6903L212.135 31.597C210.317 30.3103 207.566 29.5107 204.956 29.5107C199.323 29.5107 197.316 32.6303 197.316 35.5498C197.293 39.8529 200.932 40.9414 203.855 41.8154C206.036 42.4674 207.92 43.0314 207.92 44.6681C207.92 46.4517 205.74 46.6438 204.804 46.6438C202.519 46.6438 199.789 45.6324 198.164 44.1843L197.979 44.0189L196.245 47.4851L196.351 47.5822C198.301 49.3466 201.467 50.4423 204.613 50.4423C208.277 50.4423 212.557 48.8206 212.557 44.251C212.58 39.827 208.784 38.6919 205.734 37.7808Z" fill="white"/>
<path fill-rule="evenodd" clip-rule="evenodd" d="M105.742 46.1444C105.121 46.2811 104.48 46.3652 103.821 46.3819C103.162 46.3983 102.517 46.3464 101.89 46.241C100.529 46.0123 99.2553 45.5144 98.1328 44.7954C97.0423 44.0973 96.0932 43.1951 95.3407 42.1416C94.5662 41.0572 94.0045 39.8109 93.7078 38.4638C93.571 37.8431 93.4866 37.2022 93.4701 36.5437C93.4535 35.8852 93.5056 35.2408 93.6109 34.6141C93.8397 33.2538 94.3381 31.981 95.0572 30.8589C95.7559 29.7692 96.6587 28.8204 97.7125 28.0683C98.7977 27.2942 100.044 26.7328 101.392 26.4362C102.014 26.2995 102.655 26.2152 103.314 26.1987C103.972 26.182 104.617 26.2342 105.244 26.3394C106.605 26.5681 107.879 27.0662 109.001 27.7849C110.092 28.4833 111.041 29.3855 111.793 30.4388L115.445 27.8412C114.36 26.3192 112.989 25.0166 111.414 24.0092C109.794 22.973 107.954 22.2557 105.988 21.9269C105.083 21.7753 104.153 21.7007 103.201 21.7246C102.25 21.7485 101.324 21.8696 100.428 22.0664C98.4803 22.4936 96.6798 23.302 95.1136 24.4183C93.5907 25.5034 92.2874 26.8732 91.2794 28.4478C90.2427 30.0672 89.5252 31.905 89.196 33.8708C89.0444 34.7753 88.9698 35.7052 88.9936 36.6561C89.0175 37.6069 89.1388 38.5319 89.3356 39.4276C89.7631 41.3742 90.5719 43.174 91.6886 44.7394C92.7744 46.2614 94.145 47.5638 95.7205 48.5715C97.3407 49.6076 99.1797 50.3247 101.146 50.6538C102.051 50.8051 102.982 50.8799 103.933 50.856C104.884 50.8322 105.81 50.7108 106.706 50.5143C108.654 50.087 110.454 49.2786 112.021 48.1623C113.543 47.0772 114.847 45.7074 115.855 44.1328L112.077 41.7215C111.378 42.8114 110.476 43.7602 109.421 44.5123C108.337 45.2864 107.09 45.8476 105.742 46.1444Z" fill="white"/>
<path fill-rule="evenodd" clip-rule="evenodd" d="M187.682 29.7012V41.0913C187.682 44.5286 185.676 46.5808 182.314 46.5808C178.895 46.5808 176.854 44.5286 176.854 41.0913V29.7012H172.427V41.0913C172.427 46.9763 176.204 50.6323 182.283 50.6323C188.344 50.6323 192.109 46.9763 192.109 41.0913V29.7012H187.682Z" fill="white"/>
<path fill-rule="evenodd" clip-rule="evenodd" d="M34.5834 2.39893C16.554 2.39893 1.93823 17.0069 1.93823 35.0267C1.93823 53.0465 16.554 67.6545 34.5834 67.6545C52.6128 67.6545 67.2286 53.0465 67.2286 35.0267C67.2286 17.0069 52.6128 2.39893 34.5834 2.39893Z" fill="#FEFEFE"/>
<path fill-rule="evenodd" clip-rule="evenodd" d="M34.5834 35.0268L6.65747 16.2005C9.2583 12.3468 11.8914 9.71517 15.747 7.11572L34.5834 35.0268Z" fill="#E5E5E4"/>
<path fill-rule="evenodd" clip-rule="evenodd" d="M34.5835 35.0269L1.51762 41.4508C0.630196 36.8879 0.630196 33.1659 1.51762 28.603L34.5835 35.0269Z" fill="#E5E5E4"/>
<path fill-rule="evenodd" clip-rule="evenodd" d="M34.5834 35.0269L15.747 62.9379C11.8914 60.3385 9.2583 57.7068 6.65747 53.8532L34.5834 35.0269Z" fill="#E5E5E4"/>
<path fill-rule="evenodd" clip-rule="evenodd" d="M34.5836 35.0269L41.0109 68.0752C36.4456 68.9621 32.7216 68.9621 28.1562 68.0752L34.5836 35.0269Z" fill="#E5E5E4"/>
<path fill-rule="evenodd" clip-rule="evenodd" d="M34.5835 35.0269L62.5094 53.8532C59.9086 57.7068 57.2755 60.3385 53.4199 62.9379L34.5835 35.0269Z" fill="#E5E5E4"/>
<path fill-rule="evenodd" clip-rule="evenodd" d="M34.5835 35.0269L67.6494 28.603C68.5368 33.1659 68.5368 36.8879 67.6494 41.4508L34.5835 35.0269Z" fill="#E5E5E4"/>
<path fill-rule="evenodd" clip-rule="evenodd" d="M34.5835 35.0268L53.4199 7.11572C57.2755 9.71517 59.9086 12.3468 62.5094 16.2005L34.5835 35.0268Z" fill="#E5E5E4"/>
<path fill-rule="evenodd" clip-rule="evenodd" d="M34.5836 35.027L28.1562 1.97869C32.7216 1.09174 36.4456 1.09174 41.0109 1.97869L34.5836 35.027Z" fill="#E5E5E4"/>
<path fill-rule="evenodd" clip-rule="evenodd" d="M34.5835 0.54541C15.5299 0.54541 0.0837402 15.9834 0.0837402 35.0268C0.0837402 54.0702 15.5299 69.5082 34.5835 69.5082C53.6371 69.5082 69.0832 54.0702 69.0832 35.0268C69.0832 15.9834 53.6371 0.54541 34.5835 0.54541ZM34.5835 7.11712C49.981 7.11712 62.5078 19.6375 62.5078 35.0268C62.5078 50.4161 49.981 62.9365 34.5835 62.9365C19.186 62.9365 6.65918 50.4161 6.65918 35.0268C6.65918 19.6375 19.186 7.11712 34.5835 7.11712Z" fill="black"/>
<path fill-rule="evenodd" clip-rule="evenodd" d="M37.4123 49.572C36.4957 49.7497 35.5515 49.8498 34.5836 49.8498C33.6157 49.8498 32.6713 49.7497 31.7547 49.572C29.7652 49.1862 27.914 48.4082 26.2929 47.3115C24.7179 46.2464 23.3578 44.887 22.2921 43.3129C21.1949 41.6926 20.4166 39.8425 20.0306 37.854C19.8526 36.9379 19.7525 35.9941 19.7525 35.0268C19.7525 34.0592 19.8526 33.1155 20.0304 32.1994C20.4164 30.2109 21.1949 28.361 22.2921 26.7405C23.3578 25.1663 24.7179 23.8069 26.2929 22.7418C27.914 21.6454 29.7652 20.8674 31.7547 20.4814C32.6713 20.3036 33.6157 20.2036 34.5836 20.2036C35.5515 20.2036 36.4957 20.3036 37.4123 20.4814C39.4018 20.8674 41.2527 21.6452 42.8741 22.7418C44.4491 23.8069 45.8092 25.1663 46.8749 26.7405L52.3318 23.0618C50.7941 20.7877 48.8301 18.8249 46.5547 17.2878C44.2145 15.7072 41.5416 14.5867 38.6667 14.0313C37.3439 13.7757 35.981 13.6318 34.5836 13.6318C33.1859 13.6318 31.823 13.7757 30.5003 14.0313C27.6254 14.5867 24.9525 15.7072 22.6122 17.2881C20.3367 18.8249 18.3729 20.7877 16.8352 23.0618C15.2537 25.4008 14.1326 28.0723 13.5769 30.9456C13.3212 32.2677 13.1772 33.6299 13.1772 35.0268C13.1772 36.4235 13.3212 37.7857 13.5769 39.1077C14.1326 41.9811 15.2537 44.6528 16.8352 46.9916C18.3729 49.2659 20.3367 51.2284 22.6122 52.7655C24.9525 54.3462 27.6254 55.4667 30.5003 56.0221C31.8233 56.2776 33.1862 56.4215 34.5836 56.4215C35.981 56.4215 37.3439 56.2776 38.6667 56.0221C41.5416 55.4667 44.2145 54.3464 46.5547 52.7655C48.8301 51.2287 50.7941 49.2659 52.3318 46.9918L46.8749 43.3129C45.8092 44.887 44.4491 46.2464 42.8741 47.3115C41.2527 48.4082 39.4018 49.1862 37.4123 49.572Z" fill="black"/>
<path fill-rule="evenodd" clip-rule="evenodd" d="M42.9397 35.0269C42.9397 39.6394 39.1985 43.3786 34.5836 43.3786C29.9687 43.3786 26.2275 39.6394 26.2275 35.0269C26.2275 30.4145 29.9687 26.6753 34.5836 26.6753C39.1985 26.6753 42.9397 30.4145 42.9397 35.0269Z" fill="black"/>
<path fill-rule="evenodd" clip-rule="evenodd" d="M39.1678 32.7359C39.1678 34.0012 38.1415 35.0269 36.8755 35.0269C35.6098 35.0269 34.5835 34.0012 34.5835 32.7359C34.5835 31.4706 35.6098 30.4448 36.8755 30.4448C38.1415 30.4448 39.1678 31.4706 39.1678 32.7359Z" fill="#FEFEFE"/>
<path fill-rule="evenodd" clip-rule="evenodd" d="M121.402 50.29H126.115V29.7002H121.402V50.29Z" fill="white"/>
</svg>
