<svg width="250" height="250" viewBox="0 0 250 250" fill="none" xmlns="http://www.w3.org/2000/svg">
<g clip-path="url(#clip0_212_86)">
<path fill-rule="evenodd" clip-rule="evenodd" d="M142.759 116.889C144.319 116.889 145.495 115.697 145.495 114.116C145.495 112.513 144.319 111.305 142.759 111.305C141.198 111.305 140.022 112.513 140.022 114.116C140.022 115.697 141.198 116.889 142.759 116.889Z" fill="#010201"/>
<path fill-rule="evenodd" clip-rule="evenodd" d="M163.537 119.548C160.517 119.548 158.18 120.801 156.734 123.18V119.7H151.982V140.29H156.734L156.733 129.558C157.08 126.036 159.744 123.889 163.527 124.108L163.727 124.119V119.548H163.537Z" fill="#010201"/>
<path fill-rule="evenodd" clip-rule="evenodd" d="M179.433 127.738L187.124 119.7H181.583L172.921 128.469V111.723H168.169V140.29H172.921V134.516L176.122 131.138L181.92 140.203L181.977 140.29H187.6L179.433 127.738Z" fill="#010201"/>
<path fill-rule="evenodd" clip-rule="evenodd" d="M224.734 127.781C222.644 127.156 220.839 126.616 220.839 125.209C220.839 123.702 222.348 123.386 223.613 123.386C225.38 123.386 227.571 124.059 229.329 125.142L229.507 125.252L231.267 121.69L231.135 121.597C229.317 120.31 226.566 119.511 223.956 119.511C218.323 119.511 216.316 122.63 216.316 125.55C216.293 129.853 219.932 130.941 222.855 131.815C225.036 132.467 226.92 133.031 226.92 134.668C226.92 136.452 224.74 136.644 223.804 136.644C221.519 136.644 218.789 135.632 217.164 134.184L216.979 134.019L215.245 137.485L215.351 137.582C217.301 139.347 220.467 140.442 223.613 140.442C227.277 140.442 231.557 138.821 231.557 134.251C231.58 129.827 227.784 128.692 224.734 127.781Z" fill="#010201"/>
<path fill-rule="evenodd" clip-rule="evenodd" d="M124.742 136.144C124.121 136.281 123.48 136.365 122.821 136.382C122.162 136.398 121.517 136.346 120.89 136.241C119.529 136.012 118.255 135.514 117.133 134.795C116.042 134.097 115.093 133.195 114.341 132.142C113.566 131.057 113.005 129.811 112.708 128.464C112.571 127.843 112.487 127.202 112.47 126.544C112.453 125.885 112.506 125.241 112.611 124.614C112.84 123.254 113.338 121.981 114.057 120.859C114.756 119.769 115.659 118.82 116.713 118.068C117.798 117.294 119.044 116.733 120.392 116.436C121.014 116.3 121.655 116.215 122.314 116.199C122.972 116.182 123.617 116.234 124.244 116.339C125.605 116.568 126.879 117.066 128.001 117.785C129.092 118.483 130.041 119.386 130.793 120.439L134.445 117.841C133.36 116.319 131.989 115.017 130.414 114.009C128.794 112.973 126.954 112.256 124.988 111.927C124.083 111.775 123.153 111.701 122.201 111.725C121.25 111.748 120.324 111.87 119.428 112.066C117.48 112.494 115.68 113.302 114.114 114.418C112.591 115.503 111.287 116.873 110.279 118.448C109.243 120.067 108.525 121.905 108.196 123.871C108.044 124.775 107.97 125.705 107.994 126.656C108.018 127.607 108.139 128.532 108.336 129.428C108.763 131.374 109.572 133.174 110.689 134.739C111.774 136.261 113.145 137.564 114.72 138.571C116.341 139.608 118.18 140.325 120.146 140.654C121.051 140.805 121.982 140.88 122.933 140.856C123.884 140.832 124.81 140.711 125.706 140.514C127.654 140.087 129.454 139.279 131.021 138.162C132.543 137.077 133.847 135.707 134.855 134.133L131.077 131.721C130.378 132.811 129.476 133.76 128.421 134.512C127.337 135.286 126.09 135.848 124.742 136.144Z" fill="#010201"/>
<path fill-rule="evenodd" clip-rule="evenodd" d="M206.682 119.701V131.091C206.682 134.529 204.676 136.581 201.314 136.581C197.895 136.581 195.854 134.529 195.854 131.091V119.701H191.427V131.091C191.427 136.976 195.204 140.632 201.283 140.632C207.344 140.632 211.109 136.976 211.109 131.091V119.701H206.682Z" fill="#010201"/>
<path fill-rule="evenodd" clip-rule="evenodd" d="M53.5834 92.3989C35.554 92.3989 20.9382 107.007 20.9382 125.027C20.9382 143.046 35.554 157.655 53.5834 157.655C71.6128 157.655 86.2286 143.046 86.2286 125.027C86.2286 107.007 71.6128 92.3989 53.5834 92.3989Z" fill="#FEFEFE"/>
<path fill-rule="evenodd" clip-rule="evenodd" d="M53.5834 125.027L25.6575 106.2C28.2583 102.347 30.8914 99.7152 34.747 97.1157L53.5834 125.027Z" fill="#E5E5E4"/>
<path fill-rule="evenodd" clip-rule="evenodd" d="M53.5835 125.027L20.5176 131.451C19.6302 126.888 19.6302 123.166 20.5176 118.603L53.5835 125.027Z" fill="#E5E5E4"/>
<path fill-rule="evenodd" clip-rule="evenodd" d="M53.5834 125.027L34.747 152.938C30.8914 150.338 28.2583 147.707 25.6575 143.853L53.5834 125.027Z" fill="#E5E5E4"/>
<path fill-rule="evenodd" clip-rule="evenodd" d="M53.5836 125.027L60.0109 158.075C55.4456 158.962 51.7216 158.962 47.1562 158.075L53.5836 125.027Z" fill="#E5E5E4"/>
<path fill-rule="evenodd" clip-rule="evenodd" d="M53.5835 125.027L81.5094 143.853C78.9086 147.707 76.2755 150.338 72.4199 152.938L53.5835 125.027Z" fill="#E5E5E4"/>
<path fill-rule="evenodd" clip-rule="evenodd" d="M53.5835 125.027L86.6494 118.603C87.5368 123.166 87.5368 126.888 86.6494 131.451L53.5835 125.027Z" fill="#E5E5E4"/>
<path fill-rule="evenodd" clip-rule="evenodd" d="M53.5835 125.027L72.4199 97.1157C76.2755 99.7152 78.9086 102.347 81.5094 106.2L53.5835 125.027Z" fill="#E5E5E4"/>
<path fill-rule="evenodd" clip-rule="evenodd" d="M53.5836 125.027L47.1562 91.9787C51.7216 91.0917 55.4456 91.0917 60.0109 91.9787L53.5836 125.027Z" fill="#E5E5E4"/>
<path fill-rule="evenodd" clip-rule="evenodd" d="M53.5835 90.5454C34.5299 90.5454 19.0837 105.983 19.0837 125.027C19.0837 144.07 34.5299 159.508 53.5835 159.508C72.6371 159.508 88.0832 144.07 88.0832 125.027C88.0832 105.983 72.6371 90.5454 53.5835 90.5454ZM53.5835 97.1171C68.981 97.1171 81.5078 109.638 81.5078 125.027C81.5078 140.416 68.981 152.936 53.5835 152.936C38.186 152.936 25.6592 140.416 25.6592 125.027C25.6592 109.638 38.186 97.1171 53.5835 97.1171Z" fill="#098ACB"/>
<path fill-rule="evenodd" clip-rule="evenodd" d="M56.4123 139.572C55.4957 139.75 54.5515 139.85 53.5836 139.85C52.6157 139.85 51.6713 139.75 50.7547 139.572C48.7652 139.186 46.914 138.408 45.2929 137.312C43.7179 136.246 42.3578 134.887 41.2921 133.313C40.1949 131.693 39.4166 129.842 39.0306 127.854C38.8526 126.938 38.7525 125.994 38.7525 125.027C38.7525 124.059 38.8526 123.116 39.0304 122.199C39.4164 120.211 40.1949 118.361 41.2921 116.741C42.3578 115.166 43.7179 113.807 45.2929 112.742C46.914 111.645 48.7652 110.867 50.7547 110.481C51.6713 110.304 52.6157 110.204 53.5836 110.204C54.5515 110.204 55.4957 110.304 56.4123 110.481C58.4018 110.867 60.2527 111.645 61.8741 112.742C63.4491 113.807 64.8092 115.166 65.8749 116.741L71.3318 113.062C69.7941 110.788 67.8301 108.825 65.5547 107.288C63.2145 105.707 60.5416 104.587 57.6667 104.031C56.3439 103.776 54.981 103.632 53.5836 103.632C52.1859 103.632 50.823 103.776 49.5003 104.031C46.6254 104.587 43.9525 105.707 41.6122 107.288C39.3367 108.825 37.3729 110.788 35.8352 113.062C34.2537 115.401 33.1326 118.072 32.5769 120.946C32.3212 122.268 32.1772 123.63 32.1772 125.027C32.1772 126.423 32.3212 127.786 32.5769 129.108C33.1326 131.981 34.2537 134.653 35.8352 136.992C37.3729 139.266 39.3367 141.228 41.6122 142.766C43.9525 144.346 46.6254 145.467 49.5003 146.022C50.8233 146.278 52.1862 146.422 53.5836 146.422C54.981 146.422 56.3439 146.278 57.6667 146.022C60.5416 145.467 63.2145 144.346 65.5547 142.766C67.8301 141.229 69.7941 139.266 71.3318 136.992L65.8749 133.313C64.8092 134.887 63.4491 136.246 61.8741 137.312C60.2527 138.408 58.4018 139.186 56.4123 139.572Z" fill="#010201"/>
<path fill-rule="evenodd" clip-rule="evenodd" d="M61.9397 125.027C61.9397 129.639 58.1985 133.379 53.5836 133.379C48.9687 133.379 45.2275 129.639 45.2275 125.027C45.2275 120.414 48.9687 116.675 53.5836 116.675C58.1985 116.675 61.9397 120.414 61.9397 125.027Z" fill="#ED1C24"/>
<path fill-rule="evenodd" clip-rule="evenodd" d="M58.1678 122.736C58.1678 124.001 57.1415 125.027 55.8755 125.027C54.6098 125.027 53.5835 124.001 53.5835 122.736C53.5835 121.471 54.6098 120.445 55.8755 120.445C57.1415 120.445 58.1678 121.471 58.1678 122.736Z" fill="#FEFEFE"/>
<path fill-rule="evenodd" clip-rule="evenodd" d="M140.402 140.29H145.115V119.7H140.402V140.29Z" fill="#010201"/>
</g>
<defs>
<clipPath id="clip0_212_86">
<rect width="213" height="70" fill="white" transform="translate(19 90)"/>
</clipPath>
</defs>
</svg>
