<svg xmlns="http://www.w3.org/2000/svg" width="250" height="250" fill="none" viewBox="0 0 250 250"><g clip-path="url(#clip0_212_117)"><mask id="mask0_212_117" style="mask-type:luminance" width="120" height="120" x="65" y="65" maskUnits="userSpaceOnUse"><path fill="#fff" d="M185 65H65V185H185V65Z"/></mask><g mask="url(#mask0_212_117)"><path fill="#000" d="M152.263 136.49H185V129.395H172.685V102.448C172.685 97.9775 169.76 95 165.283 95V102.02H152.398V109.115H158.45C161.863 109.115 164.36 107.405 165.283 104.713V129.387H152.263V136.49ZM133.325 129.83H124.85C123.875 129.839 122.907 129.655 122.003 129.289C121.1 128.923 120.277 128.382 119.583 127.696C118.889 127.011 118.337 126.196 117.959 125.297C117.581 124.398 117.384 123.433 117.38 122.457V116.083C117.38 112.04 120.658 108.71 124.858 108.71H133.333C134.312 108.694 135.286 108.873 136.196 109.235C137.106 109.597 137.936 110.136 138.637 110.821C139.338 111.506 139.896 112.323 140.279 113.225C140.663 114.126 140.863 115.095 140.87 116.075V122.457C140.863 123.438 140.662 124.408 140.279 125.311C139.895 126.213 139.336 127.031 138.635 127.717C137.933 128.402 137.103 128.942 136.191 129.304C135.28 129.667 134.306 129.846 133.325 129.83ZM109.7 119.247C109.7 129.965 117.53 137.195 128.353 137.195H129.853C140.668 137.195 148.565 129.965 148.565 119.247C148.565 108.53 140.653 101.315 129.83 101.315H128.338C117.53 101.315 109.7 108.545 109.7 119.247ZM91.6176 157.198H78.5976C75.1027 157.198 72.6127 155.068 72.6127 152.15V151.58C72.6127 148.602 75.1027 146.405 78.5976 146.405H91.6251C95.1126 146.405 97.6701 148.602 97.6701 151.58V152.15C97.6701 155.068 95.1201 157.19 91.6251 157.19L91.6176 157.198ZM89.1951 127.273H80.8701C76.8202 127.273 73.5352 124.22 73.5352 120.252V115.85C73.539 114.896 73.7325 113.951 74.1045 113.072C74.4766 112.193 75.0197 111.397 75.7022 110.73C76.3847 110.063 77.1931 109.538 78.0804 109.186C78.9675 108.834 79.9159 108.662 80.8701 108.68H89.1951C93.2526 108.68 96.5301 111.8 96.5301 115.85V120.17C96.5301 124.22 93.2526 127.265 89.2026 127.265L89.1951 127.273ZM105.343 151.663C105.343 143.93 100.003 139.392 88.9101 139.392H74.9602C73.2427 139.392 72.1852 138.32 72.1852 136.978C72.1852 135.553 73.2577 134.503 74.9602 134.503H85.4976C96.3876 134.503 104.218 127.617 104.218 117.552V101.878C101.158 101.878 98.5176 103.79 97.3776 106.423C94.5351 103.22 90.1851 101.315 84.6426 101.315H83.4951C73.6777 101.315 65.8477 107.975 65.8477 117.838C65.8477 122.878 67.9177 126.695 71.3227 129.26C67.7002 130.31 65.1277 133.228 65.1277 136.985C65.1277 140.458 67.2652 143.225 70.4752 144.433C67.0627 146.338 64.9927 149.322 64.9927 153.372C64.9927 160.182 71.6827 164.57 84.7776 164.57H85.5651C98.6601 164.57 105.343 159.958 105.343 151.663Z"/></g></g><defs><clipPath id="clip0_212_117"><rect width="120" height="120" fill="#fff" transform="translate(65 65)"/></clipPath></defs></svg>