<svg width="250" height="250" viewBox="0 0 250 250" fill="none" xmlns="http://www.w3.org/2000/svg">
<g clip-path="url(#clip0_212_117)">
<mask id="mask0_212_117" style="mask-type:luminance" maskUnits="userSpaceOnUse" x="35" y="35" width="180" height="180">
<path d="M215 35H35V215H215V35Z" fill="white"/>
</mask>
<g mask="url(#mask0_212_117)">
<path d="M165.894 142.235H215V131.592H196.528V91.1713C196.528 84.4663 192.14 80 185.424 80V90.53H166.096V101.172H175.175C180.294 101.172 184.04 98.6075 185.424 94.5688V131.581H165.894V142.235ZM137.488 132.245H124.775C123.312 132.258 121.861 131.982 120.505 131.433C119.149 130.884 117.915 130.072 116.874 129.045C115.833 128.017 115.005 126.794 114.438 125.445C113.871 124.097 113.576 122.649 113.57 121.186V111.624C113.57 105.56 118.486 100.565 124.786 100.565H137.499C138.969 100.541 140.428 100.809 141.794 101.352C143.16 101.896 144.404 102.705 145.455 103.732C146.506 104.759 147.344 105.984 147.919 107.337C148.494 108.69 148.795 110.143 148.805 111.613V121.186C148.795 122.658 148.493 124.112 147.918 125.466C147.342 126.82 146.504 128.047 145.452 129.075C144.399 130.103 143.154 130.913 141.787 131.457C140.42 132.001 138.959 132.269 137.488 132.245ZM102.05 116.371C102.05 132.447 113.795 143.293 130.029 143.293H132.279C148.501 143.293 160.348 132.447 160.348 116.371C160.348 100.295 148.479 89.4725 132.245 89.4725H130.006C113.795 89.4725 102.05 100.317 102.05 116.371ZM74.9264 173.296H55.3964C50.154 173.296 46.419 170.101 46.419 165.725V164.87C46.419 160.404 50.154 157.108 55.3964 157.108H74.9377C80.1689 157.108 84.0052 160.404 84.0052 164.87V165.725C84.0052 170.101 80.1802 173.285 74.9377 173.285L74.9264 173.296ZM71.2927 128.409H58.8052C52.7303 128.409 47.8028 123.83 47.8028 117.879V111.275C47.8085 109.843 48.0988 108.427 48.6568 107.109C49.2149 105.79 50.0295 104.596 51.0533 103.595C52.0771 102.594 53.2897 101.807 54.6206 101.279C55.9513 100.751 57.3738 100.493 58.8052 100.52H71.2927C77.3789 100.52 82.2952 105.2 82.2952 111.275V117.755C82.2952 123.83 77.3789 128.398 71.3039 128.398L71.2927 128.409ZM95.5139 164.994C95.5139 153.395 87.5039 146.589 70.8652 146.589H49.9403C47.364 146.589 45.7778 144.98 45.7778 142.966C45.7778 140.829 47.3865 139.254 49.9403 139.254H65.7464C82.0814 139.254 93.8264 128.926 93.8264 113.829V90.3163C89.2364 90.3163 85.2764 93.185 83.5664 97.1338C79.3027 92.33 72.7777 89.4725 64.4639 89.4725H62.7427C48.0165 89.4725 36.2715 99.4625 36.2715 114.256C36.2715 121.816 39.3765 127.543 44.484 131.39C39.0503 132.965 35.1915 137.341 35.1915 142.978C35.1915 148.186 38.3978 152.338 43.2128 154.149C38.094 157.006 34.989 161.484 34.989 167.559C34.989 177.774 45.024 184.355 64.6664 184.355H65.8477C85.4902 184.355 95.5139 177.436 95.5139 164.994Z" fill="black"/>
</g>
</g>
<defs>
<clipPath id="clip0_212_117">
<rect width="180" height="180" fill="white" transform="translate(35 35)"/>
</clipPath>
</defs>
</svg>
