<svg width="87" height="66" viewBox="0 0 87 66" fill="none" xmlns="http://www.w3.org/2000/svg">
<path d="M21.2363 22.0111V0H14.1875V21.696C14.1875 22.2662 14.1576 22.8664 14.0977 23.4965C14.0678 24.0967 13.9331 24.6669 13.6936 25.207C13.4841 25.7172 13.1249 26.1373 12.6161 26.4674C12.1073 26.7974 11.3889 26.9625 10.461 26.9625C9.62295 26.9625 8.93453 26.8275 8.39576 26.5574C7.88693 26.2873 7.48285 25.9272 7.18354 25.4771C6.88422 24.9969 6.6747 24.4268 6.55498 23.7666C6.43525 23.1064 6.37539 22.3862 6.37539 21.606V20.1656H0V22.9564C0 24.7269 0.299316 26.2423 0.897944 27.5026C1.49657 28.733 2.28975 29.7533 3.27749 30.5635C4.26523 31.3437 5.38765 31.9139 6.64477 32.274C7.90189 32.6641 9.20391 32.8591 10.5508 32.8591C12.9453 32.8591 14.846 32.499 16.2528 31.7788C17.6595 31.0286 18.7371 30.1134 19.4853 29.0331C20.2336 27.9228 20.7125 26.7374 20.9221 25.4771C21.1316 24.2167 21.2363 23.0614 21.2363 22.0111ZM34.4659 13.0086V5.49153H41.0658C41.6943 5.49153 42.293 5.55154 42.8618 5.67158C43.4604 5.7616 43.9842 5.94165 44.4332 6.21173C44.8821 6.4818 45.2413 6.85691 45.5107 7.33704C45.7801 7.81717 45.9148 8.43234 45.9148 9.18255C45.9148 10.5329 45.5107 11.5082 44.7026 12.1084C43.8944 12.7085 42.8618 13.0086 41.6045 13.0086H34.4659ZM27.417 0V32.1389H42.9516C44.3883 32.1389 45.7801 31.9589 47.127 31.5988C48.5038 31.2387 49.7161 30.6835 50.7637 29.9333C51.8412 29.1831 52.6942 28.2228 53.3228 27.0525C53.9514 25.8522 54.2656 24.4418 54.2656 22.8213C54.2656 20.8108 53.7718 19.1003 52.784 17.6899C51.8262 16.2495 50.3596 15.2442 48.3841 14.6741C49.8208 13.9839 50.8984 13.0986 51.6167 12.0183C52.365 10.938 52.7391 9.58766 52.7391 7.96721C52.7391 6.4668 52.4847 5.20645 51.9759 4.18616C51.497 3.16588 50.8086 2.35565 49.9106 1.75549C49.0127 1.12531 47.9352 0.675185 46.678 0.40511C45.4209 0.135034 44.0291 0 42.5026 0H27.417ZM34.4659 26.6474V17.825H42.1433C43.6699 17.825 44.8971 18.1851 45.825 18.9053C46.7529 19.5954 47.2168 20.7658 47.2168 22.4162C47.2168 23.2565 47.0671 23.9467 46.7678 24.4868C46.4984 25.027 46.1243 25.4621 45.6454 25.7922C45.1665 26.0923 44.6128 26.3173 43.9842 26.4674C43.3556 26.5874 42.6972 26.6474 42.0086 26.6474H34.4659ZM67.1106 19.7155L71.286 7.9222H71.3758L75.4166 19.7155H67.1106ZM67.784 0L55.6618 32.1389H62.7556L65.2698 24.9819H77.2573L79.6818 32.1389H87L75.0125 0H67.784Z" fill="white"/>
<path d="M6.52196 58.2016C6.0281 58.2016 5.61654 58.0966 5.28729 57.8866C4.95805 57.6765 4.68867 57.4064 4.47915 57.0763C4.28459 56.7462 4.14242 56.3786 4.05262 55.9735C3.97779 55.5534 3.94038 55.1333 3.94038 54.7132C3.94038 54.278 3.98528 53.8654 4.07507 53.4753C4.17983 53.0702 4.33697 52.7176 4.54649 52.4175C4.77098 52.1024 5.04036 51.8549 5.35464 51.6748C5.68389 51.4948 6.07299 51.4047 6.52196 51.4047C7.04576 51.4047 7.47977 51.5023 7.82398 51.6973C8.16819 51.8924 8.44506 52.155 8.65458 52.4851C8.8641 52.8151 9.01375 53.1978 9.10355 53.6329C9.19334 54.053 9.23824 54.5031 9.23824 54.9832C9.23824 55.4034 9.17838 55.8085 9.05865 56.1986C8.95389 56.5737 8.78927 56.9113 8.56478 57.2114C8.3403 57.5114 8.05595 57.7515 7.71174 57.9316C7.36753 58.1116 6.97093 58.2016 6.52196 58.2016ZM12.2688 60.2047V49.3117H9.23824V50.8646H9.19334C8.80423 50.1894 8.31785 49.7093 7.73419 49.4242C7.16549 49.1391 6.49952 48.9966 5.73627 48.9966C4.92812 48.9966 4.20976 49.1541 3.5812 49.4692C2.96761 49.7843 2.45129 50.2119 2.03225 50.7521C1.61321 51.2772 1.29145 51.8924 1.06697 52.5976C0.857446 53.2878 0.752686 54.008 0.752686 54.7582C0.752686 55.5534 0.842479 56.3111 1.02207 57.0313C1.21662 57.7365 1.51594 58.3592 1.92001 58.8993C2.32409 59.4245 2.8404 59.8446 3.46896 60.1597C4.09752 60.4598 4.84581 60.6098 5.71382 60.6098C6.41721 60.6098 7.08318 60.4673 7.71174 60.1822C8.35526 59.8821 8.84913 59.4245 9.19334 58.8093H9.23824V60.3397C9.25321 61.165 9.05117 61.8477 8.63213 62.3878C8.22806 62.928 7.57705 63.198 6.67911 63.198C6.11041 63.198 5.60906 63.078 5.17505 62.8379C4.74104 62.6129 4.44921 62.2003 4.29956 61.6001H1.13431C1.17921 62.2603 1.3588 62.8229 1.67308 63.2881C2.00232 63.7682 2.40639 64.1583 2.8853 64.4584C3.37917 64.7585 3.91793 64.976 4.50159 65.1111C5.10022 65.2611 5.68388 65.3361 6.25258 65.3361C7.58453 65.3361 8.64709 65.1561 9.44028 64.796C10.2335 64.4359 10.8396 63.9932 11.2586 63.4681C11.6776 62.958 11.947 62.4028 12.0668 61.8026C12.2014 61.2025 12.2688 60.6698 12.2688 60.2047ZM14.8353 49.3117V60.9474H18.023V55.7034C18.023 55.1783 18.0754 54.6907 18.1801 54.2405C18.2849 53.7904 18.457 53.4003 18.6964 53.0702C18.9509 52.7251 19.2801 52.455 19.6842 52.26C20.0882 52.0649 20.5821 51.9674 21.1658 51.9674C21.3603 51.9674 21.5624 51.9824 21.7719 52.0124C21.9814 52.0274 22.161 52.0499 22.3107 52.0799V49.1091C22.0562 49.0341 21.8243 48.9966 21.6148 48.9966C21.2107 48.9966 20.8216 49.0566 20.4474 49.1766C20.0733 49.2967 19.7216 49.4692 19.3923 49.6943C19.0631 49.9043 18.7713 50.1669 18.5169 50.482C18.2624 50.7821 18.0604 51.1122 17.9107 51.4723H17.8658V49.3117H14.8353ZM25.9943 55.1408C25.9943 54.6757 26.0392 54.218 26.129 53.7679C26.2188 53.3178 26.3685 52.9202 26.578 52.5751C26.8025 52.23 27.0943 51.9524 27.4535 51.7423C27.8127 51.5173 28.2616 51.4047 28.8004 51.4047C29.3392 51.4047 29.7881 51.5173 30.1473 51.7423C30.5215 51.9524 30.8133 52.23 31.0228 52.5751C31.2473 52.9202 31.4044 53.3178 31.4942 53.7679C31.584 54.218 31.6289 54.6757 31.6289 55.1408C31.6289 55.6059 31.584 56.0635 31.4942 56.5137C31.4044 56.9488 31.2473 57.3464 31.0228 57.7065C30.8133 58.0516 30.5215 58.3292 30.1473 58.5392C29.7881 58.7493 29.3392 58.8543 28.8004 58.8543C28.2616 58.8543 27.8127 58.7493 27.4535 58.5392C27.0943 58.3292 26.8025 58.0516 26.578 57.7065C26.3685 57.3464 26.2188 56.9488 26.129 56.5137C26.0392 56.0635 25.9943 55.6059 25.9943 55.1408ZM22.8066 55.1408C22.8066 56.0711 22.9488 56.9113 23.2332 57.6615C23.5175 58.4117 23.9216 59.0569 24.4454 59.597C24.9692 60.1222 25.5977 60.5273 26.3311 60.8124C27.0644 61.0974 27.8875 61.24 28.8004 61.24C29.7133 61.24 30.5364 61.0974 31.2697 60.8124C32.018 60.5273 32.6541 60.1222 33.1779 59.597C33.7017 59.0569 34.1058 58.4117 34.3901 57.6615C34.6744 56.9113 34.8166 56.0711 34.8166 55.1408C34.8166 54.2105 34.6744 53.3703 34.3901 52.6201C34.1058 51.8549 33.7017 51.2097 33.1779 50.6845C32.6541 50.1444 32.018 49.7318 31.2697 49.4467C30.5364 49.1466 29.7133 48.9966 28.8004 48.9966C27.8875 48.9966 27.0644 49.1466 26.3311 49.4467C25.5977 49.7318 24.9692 50.1444 24.4454 50.6845C23.9216 51.2097 23.5175 51.8549 23.2332 52.6201C22.9488 53.3703 22.8066 54.2105 22.8066 55.1408ZM47.7768 60.9474V49.3117H44.5891V55.4109C44.5891 56.5962 44.3946 57.4514 44.0054 57.9766C43.6163 58.4867 42.9878 58.7418 42.1198 58.7418C41.3565 58.7418 40.8252 58.5092 40.5259 58.0441C40.2266 57.564 40.0769 56.8438 40.0769 55.8835V49.3117H36.8892V56.4687C36.8892 57.1889 36.9491 57.849 37.0688 58.4492C37.2035 59.0344 37.428 59.537 37.7423 59.9571C38.0566 60.3622 38.4831 60.6773 39.0219 60.9024C39.5756 61.1274 40.279 61.24 41.132 61.24C41.8055 61.24 42.464 61.0899 43.1075 60.7899C43.751 60.4898 44.2748 60.0021 44.6789 59.327H44.7462V60.9474H47.7768ZM56.0553 58.8543C55.5465 58.8543 55.1125 58.7493 54.7533 58.5392C54.3941 58.3292 54.1023 58.0591 53.8778 57.729C53.6683 57.3839 53.5112 56.9863 53.4064 56.5362C53.3166 56.0861 53.2717 55.6284 53.2717 55.1633C53.2717 54.6832 53.3166 54.218 53.4064 53.7679C53.4962 53.3178 53.6458 52.9202 53.8554 52.5751C54.0798 52.23 54.3642 51.9524 54.7084 51.7423C55.0676 51.5173 55.5091 51.4047 56.0329 51.4047C56.5417 51.4047 56.9682 51.5173 57.3124 51.7423C57.6716 51.9524 57.9634 52.2375 58.1879 52.5976C58.4124 52.9427 58.5696 53.3403 58.6594 53.7904C58.7641 54.2405 58.8165 54.6982 58.8165 55.1633C58.8165 55.6284 58.7716 56.0861 58.6818 56.5362C58.592 56.9863 58.4349 57.3839 58.2104 57.729C58.0009 58.0591 57.7165 58.3292 57.3573 58.5392C57.0131 58.7493 56.5791 58.8543 56.0553 58.8543ZM50.1963 49.3117V65.021H53.3839V59.507H53.4288C53.818 60.0772 54.3118 60.5123 54.9104 60.8124C55.524 61.0974 56.19 61.24 56.9084 61.24C57.7614 61.24 58.5022 61.0749 59.1308 60.7448C59.7743 60.4148 60.3056 59.9721 60.7246 59.417C61.1586 58.8618 61.4804 58.2241 61.6899 57.5039C61.8994 56.7837 62.0042 56.0335 62.0042 55.2533C62.0042 54.4281 61.8994 53.6404 61.6899 52.8902C61.4804 52.1249 61.1586 51.4573 60.7246 50.8871C60.2906 50.317 59.7444 49.8593 59.0859 49.5142C58.4274 49.1691 57.6417 48.9966 56.7288 48.9966C56.0104 48.9966 55.3519 49.1391 54.7533 49.4242C54.1547 49.7093 53.6608 50.1669 53.2717 50.7971H53.2268V49.3117H50.1963Z" fill="white"/>
</svg>
