<svg width="250" height="250" viewBox="0 0 250 250" fill="none" xmlns="http://www.w3.org/2000/svg">
<g clip-path="url(#clip0_212_147)">
<path d="M137.696 39H113.304C68.4012 39 32 75.2996 32 120.077V129.923C32 174.7 68.4012 211 113.304 211H137.696C182.599 211 219 174.7 219 129.923V120.077C219 75.2996 182.599 39 137.696 39Z" fill="#017FA2"/>
<path d="M219 39H131.888V117.761H219V39Z" fill="#017FA2"/>
<path d="M134.211 120.078H32V211H134.211V120.078Z" fill="#017FA2"/>
<path d="M70.3662 110.116V89.7266H63.8015V109.824C63.8015 110.353 63.7736 110.909 63.7179 111.492C63.69 112.048 63.5646 112.577 63.3415 113.077C63.1464 113.549 62.8119 113.939 62.338 114.244C61.8641 114.55 61.1951 114.703 60.331 114.703C59.5504 114.703 58.9093 114.578 58.4075 114.328C57.9336 114.078 57.5573 113.744 57.2786 113.327C56.9998 112.882 56.8047 112.354 56.6932 111.743C56.5817 111.131 56.5259 110.464 56.5259 109.741V108.407H50.5884V110.992C50.5884 112.632 50.8671 114.036 51.4247 115.203C51.9822 116.343 52.7209 117.288 53.6408 118.039C54.5607 118.762 55.606 119.29 56.7768 119.623C57.9476 119.985 59.1602 120.165 60.4146 120.165C62.6447 120.165 64.4148 119.832 65.7249 119.165C67.0351 118.47 68.0386 117.622 68.7355 116.621C69.4324 115.593 69.8784 114.495 70.0735 113.327C70.2687 112.16 70.3662 111.089 70.3662 110.116ZM82.6872 101.777V94.8136H88.8338C89.4192 94.8136 89.9767 94.8692 90.5065 94.9804C91.064 95.0638 91.5518 95.2306 91.97 95.4807C92.3881 95.7309 92.7226 96.0784 92.9735 96.5232C93.2244 96.9679 93.3498 97.5378 93.3498 98.2327C93.3498 99.4837 92.9735 100.387 92.2209 100.943C91.4682 101.499 90.5065 101.777 89.3356 101.777H82.6872ZM76.1225 89.7266V119.498H90.5901C91.9282 119.498 93.2244 119.331 94.4788 118.998C95.7611 118.664 96.89 118.15 97.8657 117.455C98.8692 116.76 99.6637 115.871 100.249 114.786C100.834 113.675 101.127 112.368 101.127 110.867C101.127 109.004 100.667 107.42 99.7473 106.113C98.8553 104.779 97.4894 103.848 95.6496 103.32C96.9876 102.68 97.9911 101.86 98.6602 100.86C99.3571 99.8589 99.7055 98.608 99.7055 97.1069C99.7055 95.717 99.4686 94.5495 98.9947 93.6044C98.5487 92.6592 97.9075 91.9087 97.0712 91.3527C96.235 90.769 95.2314 90.352 94.0607 90.1018C92.8899 89.8517 91.5936 89.7266 90.172 89.7266H76.1225ZM82.6872 114.411V106.239H89.8374C91.2591 106.239 92.402 106.572 93.2662 107.239C94.1303 107.879 94.5624 108.963 94.5624 110.492C94.5624 111.27 94.423 111.909 94.1443 112.41C93.8934 112.91 93.5449 113.313 93.0989 113.619C92.6529 113.897 92.1372 114.105 91.5518 114.244C90.9664 114.356 90.3532 114.411 89.7119 114.411H82.6872ZM113.09 107.99L116.979 97.0652H117.062L120.825 107.99H113.09ZM113.717 89.7266L102.427 119.498H109.034L111.376 112.868H122.54L124.798 119.498H131.613L120.449 89.7266H113.717Z" fill="white"/>
<path d="M56.1707 156.914C55.7107 156.914 55.3274 156.817 55.0208 156.622C54.7142 156.428 54.4633 156.178 54.2681 155.872C54.087 155.566 53.9545 155.226 53.8709 154.85C53.8012 154.461 53.7664 154.072 53.7664 153.683C53.7664 153.28 53.8082 152.897 53.8918 152.536C53.9894 152.161 54.1357 151.834 54.3309 151.556C54.5399 151.264 54.7908 151.035 55.0835 150.868C55.3901 150.701 55.7525 150.618 56.1707 150.618C56.6585 150.618 57.0627 150.708 57.3833 150.889C57.7038 151.07 57.9617 151.313 58.1568 151.619C58.3519 151.925 58.4913 152.279 58.5749 152.682C58.6586 153.071 58.7004 153.488 58.7004 153.933C58.7004 154.322 58.6446 154.697 58.5331 155.059C58.4356 155.406 58.2823 155.719 58.0732 155.997C57.8641 156.275 57.5993 156.497 57.2787 156.664C56.9582 156.831 56.5888 156.914 56.1707 156.914ZM61.5228 158.77V148.679H58.7004V150.118H58.6586C58.2962 149.492 57.8432 149.047 57.2996 148.783C56.77 148.519 56.1498 148.387 55.4389 148.387C54.6863 148.387 54.0173 148.533 53.4319 148.825C52.8604 149.117 52.3796 149.513 51.9893 150.013C51.599 150.5 51.2994 151.07 51.0903 151.723C50.8952 152.362 50.7976 153.029 50.7976 153.724C50.7976 154.461 50.8812 155.163 51.0485 155.83C51.2297 156.483 51.5084 157.06 51.8848 157.561C52.2611 158.047 52.7419 158.436 53.3273 158.728C53.9127 159.006 54.6096 159.145 55.418 159.145C56.0731 159.145 56.6933 159.013 57.2787 158.749C57.8781 158.471 58.338 158.047 58.6586 157.477H58.7004V158.895C58.7143 159.659 58.5262 160.292 58.1359 160.792C57.7596 161.292 57.1533 161.543 56.317 161.543C55.7874 161.543 55.3205 161.431 54.9163 161.209C54.5121 161.001 54.2403 160.618 54.1009 160.062H51.153C51.1948 160.674 51.3621 161.195 51.6548 161.626C51.9614 162.071 52.3377 162.432 52.7838 162.71C53.2437 162.988 53.7455 163.19 54.289 163.315C54.8466 163.454 55.3901 163.523 55.9198 163.523C57.1603 163.523 58.1498 163.356 58.8886 163.023C59.6273 162.689 60.1917 162.279 60.582 161.793C60.9723 161.32 61.2231 160.806 61.3347 160.25C61.4601 159.694 61.5228 159.201 61.5228 158.77ZM63.913 148.679V159.458H66.8818V154.6C66.8818 154.114 66.9306 153.662 67.0282 153.245C67.1257 152.828 67.286 152.467 67.509 152.161C67.746 151.841 68.0526 151.591 68.4289 151.41C68.8052 151.23 69.2652 151.139 69.8088 151.139C69.99 151.139 70.1781 151.153 70.3733 151.181C70.5684 151.195 70.7356 151.216 70.875 151.243V148.491C70.6381 148.422 70.422 148.387 70.2269 148.387C69.8506 148.387 69.4882 148.443 69.1398 148.554C68.7913 148.665 68.4638 148.825 68.1571 149.034C67.8505 149.228 67.5787 149.471 67.3418 149.763C67.1048 150.041 66.9167 150.347 66.7773 150.681H66.7355V148.679H63.913ZM74.3057 154.079C74.3057 153.648 74.3475 153.224 74.4312 152.807C74.5148 152.39 74.6542 152.022 74.8493 151.702C75.0584 151.382 75.3302 151.125 75.6647 150.931C75.9992 150.722 76.4173 150.618 76.9191 150.618C77.4208 150.618 77.839 150.722 78.1735 150.931C78.5219 151.125 78.7937 151.382 78.9888 151.702C79.1979 152.022 79.3443 152.39 79.4279 152.807C79.5115 153.224 79.5533 153.648 79.5533 154.079C79.5533 154.51 79.5115 154.934 79.4279 155.351C79.3443 155.754 79.1979 156.122 78.9888 156.456C78.7937 156.775 78.5219 157.032 78.1735 157.227C77.839 157.422 77.4208 157.519 76.9191 157.519C76.4173 157.519 75.9992 157.422 75.6647 157.227C75.3302 157.032 75.0584 156.775 74.8493 156.456C74.6542 156.122 74.5148 155.754 74.4312 155.351C74.3475 154.934 74.3057 154.51 74.3057 154.079ZM71.3369 154.079C71.3369 154.941 71.4694 155.719 71.7342 156.414C71.999 157.109 72.3753 157.706 72.8631 158.207C73.351 158.693 73.9364 159.069 74.6193 159.333C75.3023 159.597 76.0689 159.729 76.9191 159.729C77.7693 159.729 78.5359 159.597 79.2188 159.333C79.9157 159.069 80.5081 158.693 80.9959 158.207C81.4837 157.706 81.8601 157.109 82.1249 156.414C82.3897 155.719 82.5221 154.941 82.5221 154.079C82.5221 153.217 82.3897 152.439 82.1249 151.744C81.8601 151.035 81.4837 150.437 80.9959 149.951C80.5081 149.45 79.9157 149.068 79.2188 148.804C78.5359 148.526 77.7693 148.387 76.9191 148.387C76.0689 148.387 75.3023 148.526 74.6193 148.804C73.9364 149.068 73.351 149.45 72.8631 149.951C72.3753 150.437 71.999 151.035 71.7342 151.744C71.4694 152.439 71.3369 153.217 71.3369 154.079ZM94.5922 159.458V148.679H91.6234V154.329C91.6234 155.427 91.4422 156.219 91.0799 156.706C90.7175 157.178 90.1321 157.415 89.3237 157.415C88.6128 157.415 88.118 157.199 87.8393 156.768C87.5605 156.324 87.4212 155.656 87.4212 154.767V148.679H84.4524V155.309C84.4524 155.976 84.5081 156.588 84.6196 157.144C84.7451 157.686 84.9541 158.151 85.2468 158.54C85.5395 158.916 85.9368 159.208 86.4385 159.416C86.9542 159.625 87.6093 159.729 88.4038 159.729C89.031 159.729 89.6442 159.59 90.2436 159.312C90.8429 159.034 91.3307 158.582 91.707 157.957H91.7698V159.458H94.5922ZM102.302 157.519C101.828 157.519 101.424 157.422 101.09 157.227C100.755 157.032 100.483 156.782 100.274 156.476C100.079 156.157 99.9327 155.788 99.8352 155.371C99.7515 154.954 99.7097 154.531 99.7097 154.1C99.7097 153.655 99.7515 153.224 99.8352 152.807C99.9188 152.39 100.058 152.022 100.253 151.702C100.462 151.382 100.727 151.125 101.048 150.931C101.382 150.722 101.793 150.618 102.281 150.618C102.755 150.618 103.152 150.722 103.473 150.931C103.807 151.125 104.079 151.389 104.288 151.723C104.497 152.043 104.644 152.411 104.727 152.828C104.825 153.245 104.874 153.669 104.874 154.1C104.874 154.531 104.832 154.954 104.748 155.371C104.665 155.788 104.518 156.157 104.309 156.476C104.114 156.782 103.849 157.032 103.515 157.227C103.194 157.422 102.79 157.519 102.302 157.519ZM96.8455 148.679V163.231H99.8143V158.123H99.8561C100.218 158.652 100.678 159.055 101.236 159.333C101.807 159.597 102.428 159.729 103.097 159.729C103.891 159.729 104.581 159.576 105.166 159.27C105.766 158.964 106.261 158.554 106.651 158.04C107.055 157.526 107.355 156.935 107.55 156.268C107.745 155.601 107.842 154.906 107.842 154.183C107.842 153.419 107.745 152.689 107.55 151.994C107.355 151.285 107.055 150.667 106.651 150.138C106.247 149.61 105.738 149.186 105.125 148.867C104.511 148.547 103.78 148.387 102.929 148.387C102.26 148.387 101.647 148.519 101.09 148.783C100.532 149.047 100.072 149.471 99.7097 150.055H99.6679V148.679H96.8455Z" fill="white"/>
</g>
<defs>
<clipPath id="clip0_212_147">
<rect width="187" height="172" fill="white" transform="translate(32 39)"/>
</clipPath>
</defs>
</svg>
