<svg width="250" height="250" viewBox="0 0 250 250" fill="none" xmlns="http://www.w3.org/2000/svg">
<path d="M178.201 88.103H166.006V97.7931H179.541V88.103H178.773H178.201Z" fill="#16282D"/>
<path d="M79.9285 88.103H66.3936V146.66H79.9285V88.103Z" fill="#16282D"/>
<path d="M179.541 102.34H166.006V146.66H179.541V102.34Z" fill="#16282D"/>
<path d="M116.357 124.5C116.357 129.523 112.318 133.594 107.333 133.594C102.349 133.594 98.3106 129.523 98.3106 124.5L98.2902 102.34H84.7556L84.7753 124.5C84.7753 137.069 94.8821 147.255 107.353 147.255C119.824 147.255 129.931 137.069 129.931 124.5V102.34H116.396V124.5H116.357Z" fill="#16282D"/>
<path d="M39.5818 101.744C27.1107 101.744 17.0039 111.931 17.0039 124.5V160.897H30.5387V133.594L37.9268 147.176C38.4785 147.216 39.0104 147.235 39.562 147.235C52.033 147.235 62.1399 137.049 62.1399 124.48C62.1399 111.911 52.033 101.744 39.5818 101.744ZM39.5818 133.594C34.5973 133.594 30.5585 129.524 30.5585 124.5C30.5585 119.476 34.5973 115.405 39.5818 115.405C44.5662 115.405 48.605 119.476 48.605 124.5C48.605 129.524 44.5662 133.594 39.5818 133.594Z" fill="#16282D"/>
<path d="M229.207 124.5C229.207 111.931 219.1 101.744 206.629 101.744C194.158 101.744 184.071 111.931 184.071 124.5C184.071 137.069 194.178 147.255 206.649 147.255C207.201 147.255 207.752 147.235 208.284 147.196L215.672 133.614V146.68H229.207V124.5ZM206.629 133.594C201.645 133.594 197.606 129.524 197.606 124.5C197.606 119.476 201.645 115.405 206.629 115.405C211.613 115.405 215.652 119.476 215.652 124.5C215.652 129.524 211.613 133.594 206.629 133.594Z" fill="#16282D"/>
<path d="M156.983 102.34C144.512 102.34 134.405 112.526 134.405 125.096V146.679H147.939V125.076C147.939 120.052 151.979 115.942 156.963 115.942H161.474V102.34H156.983Z" fill="#16282D"/>
</svg>
