<svg width="272" height="96" viewBox="0 0 272 96" fill="none" xmlns="http://www.w3.org/2000/svg">
<g style="mix-blend-mode:plus-lighter">
<path d="M205.853 1.41187H190.28V13.8151H207.564V1.41187H206.583H205.853Z" fill="#16282D"/>
<path d="M80.3592 1.41187H63.0752V76.3647H80.3592V1.41187Z" fill="#16282D"/>
<path d="M207.564 19.635H190.28V76.3645H207.564V19.635Z" fill="#16282D"/>
<path d="M126.878 47.9996C126.878 54.4299 121.72 59.6405 115.355 59.6405C108.99 59.6405 103.833 54.4299 103.833 47.9996L103.807 19.635H86.5234L86.5486 47.9996C86.5486 64.0884 99.4549 77.1269 115.38 77.1269C131.306 77.1269 144.212 64.0884 144.212 47.9996V19.635H126.928V47.9996H126.878Z" fill="#16282D"/>
<path d="M28.8368 18.8728C12.9112 18.8728 0.00488281 31.9114 0.00488281 48.0001V94.5883H17.2888V59.6407L26.7233 77.0254C27.4278 77.0762 28.1071 77.1017 28.8114 77.1017C44.7369 77.1017 57.6433 64.0632 57.6433 47.9747C57.6433 31.8859 44.7369 18.8728 28.8368 18.8728ZM28.8368 59.6407C22.4715 59.6407 17.314 54.4304 17.314 48.0001C17.314 41.5695 22.4715 36.3593 28.8368 36.3593C35.2018 36.3593 40.3593 41.5695 40.3593 48.0001C40.3593 54.4304 35.2018 59.6407 28.8368 59.6407Z" fill="#16282D"/>
<path d="M270.987 48.0001C270.987 31.9114 258.081 18.8728 242.155 18.8728C226.23 18.8728 213.349 31.9114 213.349 48.0001C213.349 64.0886 226.255 77.1271 242.181 77.1271C242.885 77.1271 243.589 77.1017 244.269 77.0508L253.703 59.6661V76.3901H270.987V48.0001ZM242.155 59.6407C235.79 59.6407 230.633 54.4304 230.633 48.0001C230.633 41.5695 235.79 36.3593 242.155 36.3593C248.52 36.3593 253.678 41.5695 253.678 48.0001C253.678 54.4304 248.52 59.6407 242.155 59.6407Z" fill="#16282D"/>
<path d="M178.757 19.635C162.832 19.635 149.925 32.6735 149.925 48.7623V76.3896H167.209V48.7368C167.209 42.3065 172.367 37.0452 178.732 37.0452H184.493V19.635H178.757Z" fill="#16282D"/>
</g>
</svg>
