<svg width="189" height="66" viewBox="0 0 189 66" fill="none" xmlns="http://www.w3.org/2000/svg">
<path d="M143.034 0H132.213V8.65642H144.223V0H143.541H143.034Z" fill="white"/>
<path d="M55.8345 0H43.8247V52.3108H55.8345V0Z" fill="white"/>
<path d="M144.223 12.7183H132.213V52.3107H144.223V12.7183Z" fill="white"/>
<path d="M88.1582 32.5144C88.1582 37.0022 84.5741 40.6388 80.1514 40.6388C75.7287 40.6388 72.1453 37.0022 72.1453 32.5144L72.1272 12.7183H60.1177L60.1352 32.5144C60.1352 43.743 69.1032 52.8428 80.1688 52.8428C91.235 52.8428 100.203 43.743 100.203 32.5144V12.7183H88.1929V32.5144H88.1582Z" fill="white"/>
<path d="M20.0339 12.186C8.96799 12.186 0 21.2859 0 32.5145V65.0291H12.0098V40.6386L18.5654 52.7717C19.0549 52.8072 19.5269 52.825 20.0163 52.825C31.0822 52.825 40.0502 43.7252 40.0502 32.4967C40.0502 21.2681 31.0822 12.186 20.0339 12.186ZM20.0339 40.6386C15.611 40.6386 12.0273 37.0023 12.0273 32.5145C12.0273 28.0264 15.611 24.3902 20.0339 24.3902C24.4567 24.3902 28.0404 28.0264 28.0404 32.5145C28.0404 37.0023 24.4567 40.6386 20.0339 40.6386Z" fill="white"/>
<path d="M188.293 32.5145C188.293 21.2859 179.325 12.186 168.259 12.186C157.193 12.186 148.243 21.2859 148.243 32.5145C148.243 43.7429 157.21 52.8427 168.277 52.8427C168.766 52.8427 169.255 52.8249 169.728 52.7894L176.283 40.6564V52.3283H188.293V32.5145ZM168.259 40.6386C163.836 40.6386 160.253 37.0023 160.253 32.5145C160.253 28.0264 163.836 24.3902 168.259 24.3902C172.681 24.3902 176.265 28.0264 176.265 32.5145C176.265 37.0023 172.681 40.6386 168.259 40.6386Z" fill="white"/>
<path d="M124.206 12.7183C113.141 12.7183 104.172 21.818 104.172 33.0467V52.3282H116.182V33.0289C116.182 28.5411 119.766 24.8691 124.189 24.8691H128.192V12.7183H124.206Z" fill="white"/>
</svg>
