<svg xmlns="http://www.w3.org/2000/svg" xmlns:xlink="http://www.w3.org/1999/xlink" version="1.1"><metadata>Created by FontForge 20170812 at Mon Sep 5 11:57:39 2016 By www-data Copyright \(c\) 2016 by Chris Simpson.</metadata><defs><font id="Metropolis-SemiBold" horiz-adv-x="652"><font-face x-height="517" ascent="795" bbox="-202 -285 1162 974" cap-height="687" descent="-205" font-family="Metropolis Semi Bold" font-stretch="normal" font-weight="600" panose-1="0 0 7 0 0 0 0 0 0 0" stemh="101" stemv="119" underline-position="-133" underline-thickness="20" unicode-range="U+0020-2212" units-per-em="1000"/><glyph d="M410 795v-1000h-317v1000h317zM333 728h-165v-33h65v-37h-66v-33h166v33h-66v37h66v33zM267 599h-100v-104h166v34h-66v70zM233 565v-36h-33v36h33zM333 468h-166v-33h66v-37h-66v-33h100v70h66v33zM333 408h-33v-66h-133v-34h166v100zM333 286h-100v-56h34v23h33v-47 h-100v80h-33v-113h166v113zM333 113h-166v-113h166v113zM300 80v-47h-100v47h100zM333 -23h-166v-33h70l-70 -47v-33h166v33h-102l70 47h32v33z" glyph-name=".notdef" horiz-adv-x="500"/><glyph d="M594 0l-52 124h-332l-52 -124h-139l287 687h139l287 -687h-138zM255 232h242l-121 289z" glyph-name="A" horiz-adv-x="752" unicode="A"/><glyph d="M563 875l-146 -130h-85l117 152zM594 0l-52 124h-332l-52 -124h-139l287 687h139l287 -687h-138zM255 232h242l-121 289z" glyph-name="Aacute" horiz-adv-x="753" unicode="Á"/><glyph d="M532 818c-43 -43 -99 -65 -156 -65s-112 22 -156 65l58 58c27 -27 63 -43 98 -43s71 16 98 43zM594 0l-52 124h-332l-52 -124h-139l287 687h139l287 -687h-138zM255 232h242l-121 289z" glyph-name="Abreve" horiz-adv-x="752" unicode="Ă"/><glyph d="M376 824l-76 -79h-79l103 144h104l105 -144h-80zM594 0l-52 124h-332l-52 -124h-139l287 687h139l287 -687h-138zM255 232h242l-121 289z" glyph-name="Acircumflex" horiz-adv-x="752" unicode="Â"/><glyph d="M273 758c-35 0 -62 28 -62 63c0 32 27 62 62 62c34 0 62 -30 62 -62c0 -35 -28 -63 -62 -63zM479 758c-36 0 -63 28 -63 63c0 32 27 62 63 62c34 0 62 -30 62 -62c0 -35 -28 -63 -62 -63zM594 0l-52 124h-332l-52 -124h-139l287 687h139l287 -687h-138zM255 232h242 l-121 289z" glyph-name="Adieresis" horiz-adv-x="752" unicode="Ä"/><glyph d="M422 745h-85l-146 130l114 22zM594 0l-52 124h-332l-52 -124h-139l287 687h139l287 -687h-138zM255 232h242l-121 289z" glyph-name="Agrave" horiz-adv-x="753" unicode="À"/><glyph d="M543 831v-75h-334v75h334zM594 0l-52 124h-332l-52 -124h-139l287 687h139l287 -687h-138zM255 232h242l-121 289z" glyph-name="Amacron" horiz-adv-x="752" unicode="Ā"/><glyph d="M774 -79l28 -63c-23 -19 -53 -31 -88 -31c-65 0 -110 42 -110 110c0 24 8 46 21 63h-31l-52 124h-332l-52 -124h-139l287 687h139l287 -687h1c-29 0 -50 -20 -50 -49s19 -46 51 -46c17 0 31 7 40 16zM255 232h242l-121 289z" glyph-name="Aogonek" horiz-adv-x="752" unicode="Ą"/><glyph d="M376 753c-60 0 -110 50 -110 111s50 110 110 110c61 0 110 -49 110 -110s-49 -111 -110 -111zM376 919c-30 0 -55 -25 -55 -55s25 -55 55 -55s55 25 55 55s-25 55 -55 55zM594 0l-52 124h-332l-52 -124h-139l287 687h139l287 -687h-138zM255 232h242l-121 289z" glyph-name="Aring" horiz-adv-x="752" unicode="Å"/><glyph d="M311 799c-24 0 -38 -17 -45 -57l-63 9c10 84 43 128 106 128c57 0 95 -56 130 -56c24 0 38 18 45 58l64 -10c-10 -83 -44 -128 -106 -128c-58 0 -96 56 -131 56zM594 0l-52 124h-332l-52 -124h-139l287 687h139l287 -687h-138zM255 232h242l-121 289z" glyph-name="Atilde" horiz-adv-x="752" unicode="Ã"/><glyph d="M1011 573h-392v-166h355v-114h-355v-179h392v-114h-517v130h-256l-75 -130h-143l396 687h595v-114zM297 232h197v341z" glyph-name="AE" horiz-adv-x="1060" unicode="Æ"/><glyph d="M80 0v687h337c119 0 203 -72 203 -172c0 -70 -36 -119 -97 -152c79 -38 126 -101 126 -176c0 -110 -91 -187 -219 -187h-350zM204 406h183c61 0 105 36 105 86c0 51 -44 87 -105 87h-183v-173zM204 108h201c68 0 116 41 116 98s-48 98 -116 98h-201v-196z" glyph-name="B" horiz-adv-x="694" unicode="B"/><glyph d="M406 -12c-196 0 -361 163 -361 356s165 355 361 355c101 0 193 -43 259 -111l-89 -83c-42 49 -104 80 -170 80c-127 0 -234 -110 -234 -241c0 -132 107 -242 234 -242c67 0 128 31 171 80l88 -82c-66 -69 -158 -112 -259 -112z" glyph-name="C" horiz-adv-x="690" unicode="C"/><glyph d="M288 745l117 152l114 -22l-146 -130h-85zM406 -12c-196 0 -361 163 -361 356s165 355 361 355c101 0 193 -43 259 -111l-89 -83c-42 49 -104 80 -170 80c-127 0 -234 -110 -234 -241c0 -132 107 -242 234 -242c67 0 128 31 171 80l88 -82c-66 -69 -158 -112 -259 -112z" glyph-name="Cacute" horiz-adv-x="690" unicode="Ć"/><glyph d="M332 745l-103 144h79l76 -78l77 78h80l-105 -144h-104zM406 -12c-196 0 -361 163 -361 356s165 355 361 355c101 0 193 -43 259 -111l-89 -83c-42 49 -104 80 -170 80c-127 0 -234 -110 -234 -241c0 -132 107 -242 234 -242c67 0 128 31 171 80l88 -82 c-66 -69 -158 -112 -259 -112z" glyph-name="Ccaron" horiz-adv-x="690" unicode="Č"/><glyph d="M406 102c67 0 128 31 171 80l88 -82c-61 -64 -144 -105 -236 -111l-14 -33h5c42 0 72 -28 72 -67c0 -52 -45 -84 -105 -84c-36 0 -71 12 -92 29l24 52c19 -15 41 -23 62 -23c25 0 44 13 44 33c0 17 -11 29 -34 29c-11 0 -23 -4 -31 -10l-20 20l23 56 c-176 21 -318 174 -318 353c0 193 165 355 361 355c101 0 193 -43 259 -111l-89 -83c-42 49 -104 80 -170 80c-127 0 -234 -110 -234 -241c0 -132 107 -242 234 -242z" glyph-name="Ccedilla" horiz-adv-x="690" unicode="Ç"/><glyph d="M80 0v687h242c227 0 387 -142 387 -343s-160 -344 -387 -344h-242zM205 113h130c145 0 247 96 247 231s-102 230 -247 230h-130v-461z" glyph-name="D" horiz-adv-x="761" unicode="D"/><glyph d="M355 687c227 0 387 -142 387 -343s-160 -344 -387 -344h-242v291h-72v114h72v282h242zM368 113c145 0 247 96 247 231s-102 230 -247 230h-130v-169h172l-1 -114h-171v-178h130z" glyph-name="Eth" horiz-adv-x="795" unicode="Ð"/><glyph d="M270 745l-103 144h79l76 -78l77 78h80l-105 -144h-104zM80 0v687h242c227 0 387 -142 387 -343s-160 -344 -387 -344h-242zM205 113h130c145 0 247 96 247 231s-102 230 -247 230h-130v-461z" glyph-name="Dcaron" horiz-adv-x="761" unicode="Ď"/><glyph d="M355 687c227 0 387 -142 387 -343s-160 -344 -387 -344h-242v291h-72v114h72v282h242zM368 113c145 0 247 96 247 231s-102 230 -247 230h-130v-169h172l-1 -114h-171v-178h130z" glyph-name="Dcroat" horiz-adv-x="795" unicode="Đ"/><glyph d="M588 573h-392v-166h355v-114h-355v-179h392v-114h-517v687h517v-114z" glyph-name="E" horiz-adv-x="637" unicode="E"/><glyph d="M465 875l-146 -130h-85l117 152zM588 573h-392v-166h355v-114h-355v-179h392v-114h-517v687h517v-114z" glyph-name="Eacute" horiz-adv-x="637" unicode="É"/><glyph d="M382 745h-104l-103 144h79l76 -78l77 78h80zM588 573h-392v-166h355v-114h-355v-179h392v-114h-517v687h517v-114z" glyph-name="Ecaron" horiz-adv-x="637" unicode="Ě"/><glyph d="M330 824l-76 -79h-79l103 144h104l105 -144h-80zM588 573h-392v-166h355v-114h-355v-179h392v-114h-517v687h517v-114z" glyph-name="Ecircumflex" horiz-adv-x="637" unicode="Ê"/><glyph d="M227 758c-35 0 -62 28 -62 63c0 32 27 62 62 62c34 0 62 -30 62 -62c0 -35 -28 -63 -62 -63zM433 758c-36 0 -63 28 -63 63c0 32 27 62 63 62c34 0 62 -30 62 -62c0 -35 -28 -63 -62 -63zM588 573h-392v-166h355v-114h-355v-179h392v-114h-517v687h517v-114z" glyph-name="Edieresis" horiz-adv-x="637" unicode="Ë"/><glyph d="M330 758c-35 0 -62 28 -62 63c0 32 27 62 62 62c34 0 62 -30 62 -62c0 -35 -28 -63 -62 -63zM588 573h-392v-166h355v-114h-355v-179h392v-114h-517v687h517v-114z" glyph-name="Edotaccent" horiz-adv-x="637" unicode="Ė"/><glyph d="M588 573h-392v-166h355v-114h-355v-179h392v-114h-517v687h517v-114zM330 -73c34 0 62 -30 62 -62c0 -35 -28 -63 -62 -63c-35 0 -62 28 -62 63c0 32 27 62 62 62z" glyph-name="uni1EB8" horiz-adv-x="637" unicode="Ẹ"/><glyph d="M415 745h-85l-146 130l114 22zM588 573h-392v-166h355v-114h-355v-179h392v-114h-517v687h517v-114z" glyph-name="Egrave" horiz-adv-x="637" unicode="È"/><glyph d="M497 831v-75h-334v75h334zM588 573h-392v-166h355v-114h-355v-179h392v-114h-517v687h517v-114z" glyph-name="Emacron" horiz-adv-x="637" unicode="Ē"/><glyph d="M561 -79l28 -63c-23 -19 -53 -31 -88 -31c-65 0 -110 42 -110 110c0 24 8 46 21 63h-341v687h517v-114h-392v-166h355v-114h-355v-179h392v-114h-68c-29 0 -50 -20 -50 -49s19 -46 51 -46c17 0 31 7 40 16z" glyph-name="Eogonek" horiz-adv-x="637" unicode="Ę"/><glyph d="M265 799c-24 0 -38 -17 -45 -57l-63 9c10 84 43 128 106 128c57 0 95 -56 130 -56c24 0 38 18 45 58l64 -10c-10 -83 -44 -128 -106 -128c-58 0 -96 56 -131 56zM588 573h-392v-166h355v-114h-355v-179h392v-114h-517v687h517v-114z" glyph-name="uni1EBC" horiz-adv-x="637" unicode="Ẽ"/><glyph d="M588 573h-392v-174h355v-114h-355v-285h-125v687h517v-114z" glyph-name="F" horiz-adv-x="626" unicode="F"/><glyph d="M388 276v102h293v-278c-66 -69 -173 -112 -273 -112c-197 0 -363 163 -363 356s166 355 363 355c100 0 207 -42 273 -111l-89 -83c-43 50 -117 80 -184 80c-128 0 -236 -110 -236 -241c0 -132 108 -242 236 -242c52 0 108 18 151 49v125h-171z" glyph-name="G" horiz-adv-x="743" unicode="G"/><glyph d="M564 818c-43 -43 -99 -65 -156 -65s-112 22 -156 65l58 58c27 -27 63 -43 98 -43s71 16 98 43zM388 276v102h293v-278c-66 -69 -173 -112 -273 -112c-197 0 -363 163 -363 356s166 355 363 355c100 0 207 -42 273 -111l-89 -83c-43 50 -117 80 -184 80 c-128 0 -236 -110 -236 -241c0 -132 108 -242 236 -242c52 0 108 18 151 49v125h-171z" glyph-name="Gbreve" horiz-adv-x="743" unicode="Ğ"/><glyph d="M388 276v102h293v-278c-66 -69 -173 -112 -273 -112c-197 0 -363 163 -363 356s166 355 363 355c100 0 207 -42 273 -111l-89 -83c-43 50 -117 80 -184 80c-128 0 -236 -110 -236 -241c0 -132 108 -242 236 -242c52 0 108 18 151 49v125h-171zM405 -58 c39 0 66 -36 66 -87c0 -42 -23 -82 -77 -140l-37 28c24 23 40 49 46 75c-33 0 -60 28 -60 62c0 33 28 62 62 62z" glyph-name="Gcommaaccent" horiz-adv-x="743" unicode="Ģ"/><glyph d="M539 687h125v-687h-125v293h-343v-293h-125v687h125v-280h343v280z" glyph-name="H" horiz-adv-x="735" unicode="H"/><glyph d="M73 0v687h124v-687h-124z" glyph-name="I" horiz-adv-x="270" unicode="I"/><glyph d="M91 745l117 152l114 -22l-146 -130h-85zM73 0v687h124v-687h-124z" glyph-name="Iacute" horiz-adv-x="270" unicode="Í"/><glyph d="M-20 745l103 144h104l105 -144h-80l-77 79l-76 -79h-79zM73 0v687h124v-687h-124z" glyph-name="Icircumflex" horiz-adv-x="270" unicode="Î"/><glyph d="M32 758c-35 0 -62 28 -62 63c0 32 27 62 62 62c34 0 62 -30 62 -62c0 -35 -28 -63 -62 -63zM238 758c-36 0 -63 28 -63 63c0 32 27 62 63 62c34 0 62 -30 62 -62c0 -35 -28 -63 -62 -63zM73 0v687h124v-687h-124z" glyph-name="Idieresis" horiz-adv-x="270" unicode="Ï"/><glyph d="M135 758c-35 0 -62 28 -62 63c0 32 27 62 62 62c34 0 62 -30 62 -62c0 -35 -28 -63 -62 -63zM73 0v687h124v-687h-124z" glyph-name="Idotaccent" horiz-adv-x="270" unicode="İ"/><glyph d="M93 745l-146 130l114 22l117 -152h-85zM73 0v687h124v-687h-124z" glyph-name="Igrave" horiz-adv-x="270" unicode="Ì"/><glyph d="M-32 756v75h334v-75h-334zM73 0v687h124v-687h-124z" glyph-name="Imacron" horiz-adv-x="270" unicode="Ī"/><glyph d="M226 -79l28 -63c-23 -19 -53 -31 -88 -31c-65 0 -110 42 -110 110c0 24 8 46 21 63h-4v687h124v-687h-12c-29 0 -50 -20 -50 -49s19 -46 51 -46c17 0 31 7 40 16z" glyph-name="Iogonek" horiz-adv-x="270" unicode="Į"/><glyph d="M241 -12c-86 0 -179 47 -224 114l84 82c24 -48 77 -83 129 -83c68 0 116 54 116 131v455h124v-463c0 -138 -95 -236 -229 -236z" glyph-name="J" horiz-adv-x="543" unicode="J"/><glyph d="M79 0v687h125v-336l301 336h153l-275 -303l295 -384h-154l-227 296l-93 -100v-196h-125z" glyph-name="K" horiz-adv-x="686" unicode="K"/><glyph d="M79 0v687h125v-336l301 336h153l-275 -303l295 -384h-154l-227 296l-93 -100v-196h-125zM343 -285l-37 28c24 23 40 49 46 75c-33 0 -60 28 -60 62c0 33 28 62 62 62c39 0 66 -36 66 -87c0 -42 -23 -82 -77 -140z" glyph-name="Kcommaaccent" horiz-adv-x="686" unicode="Ķ"/><glyph d="M189 114h353v-114h-477v687h124v-573z" glyph-name="L" horiz-adv-x="572" unicode="L"/><glyph d="M313 875l-146 -130h-85l117 152zM189 114h353v-114h-477v687h124v-573z" glyph-name="Lacute" horiz-adv-x="572" unicode="Ĺ"/><glyph d="M318 575c-33 0 -60 28 -60 62c0 33 28 62 62 62c39 0 66 -36 66 -87c0 -42 -23 -82 -77 -140l-37 28c24 23 40 49 46 75zM189 114h353v-114h-477v687h124v-573z" glyph-name="Lcaron" horiz-adv-x="572" unicode="Ľ"/><glyph d="M231 114h353v-114h-477v251l-78 -39v111l78 39v325h124v-262l124 63v-112l-124 -62v-200z" glyph-name="Lslash" horiz-adv-x="613" unicode="Ł"/><glyph d="M80 0v687h125l226 -419l227 419h124v-687h-124v459l-227 -419l-226 419v-459h-125z" glyph-name="M" horiz-adv-x="863" unicode="M"/><glyph d="M80 0v687h125l363 -483v483h124v-687h-124l-363 483v-483h-125z" glyph-name="N" horiz-adv-x="772" unicode="N"/><glyph d="M290 745l117 152l114 -22l-146 -130h-85zM80 0v687h125l363 -483v483h124v-687h-124l-363 483v-483h-125z" glyph-name="Nacute" horiz-adv-x="772" unicode="Ń"/><glyph d="M334 745l-103 144h79l76 -78l77 78h80l-105 -144h-104zM80 0v687h125l363 -483v483h124v-687h-124l-363 483v-483h-125z" glyph-name="Ncaron" horiz-adv-x="772" unicode="Ň"/><glyph d="M80 0v687h125l363 -483v483h124v-687h-124l-363 483v-483h-125zM375 -285l-37 28c24 23 40 49 46 75c-33 0 -60 28 -60 62c0 33 28 62 62 62c39 0 66 -36 66 -87c0 -42 -23 -82 -77 -140z" glyph-name="Ncommaaccent" horiz-adv-x="772" unicode="Ņ"/><glyph d="M452 743c-58 0 -96 56 -131 56c-24 0 -38 -17 -45 -57l-63 9c10 84 43 128 106 128c57 0 95 -56 130 -56c24 0 38 18 45 58l64 -10c-10 -83 -44 -128 -106 -128zM80 0v687h125l363 -483v483h124v-687h-124l-363 483v-483h-125z" glyph-name="Ntilde" horiz-adv-x="772" unicode="Ñ"/><glyph d="M406 -12c-196 0 -361 163 -361 356s165 355 361 355c195 0 360 -162 360 -355s-165 -356 -360 -356zM406 102c126 0 232 110 232 242c0 131 -106 241 -232 241c-127 0 -234 -110 -234 -241c0 -132 107 -242 234 -242z" glyph-name="O" horiz-adv-x="810" unicode="O"/><glyph d="M360 745l117 152l114 -22l-146 -130h-85zM406 -12c-196 0 -361 163 -361 356s165 355 361 355c195 0 360 -162 360 -355s-165 -356 -360 -356zM406 102c126 0 232 110 232 242c0 131 -106 241 -232 241c-127 0 -234 -110 -234 -241c0 -132 107 -242 234 -242z" glyph-name="Oacute" horiz-adv-x="810" unicode="Ó"/><glyph d="M251 745l103 144h104l105 -144h-80l-77 79l-76 -79h-79zM406 -12c-196 0 -361 163 -361 356s165 355 361 355c195 0 360 -162 360 -355s-165 -356 -360 -356zM406 102c126 0 232 110 232 242c0 131 -106 241 -232 241c-127 0 -234 -110 -234 -241 c0 -132 107 -242 234 -242z" glyph-name="Ocircumflex" horiz-adv-x="810" unicode="Ô"/><glyph d="M303 758c-35 0 -62 28 -62 63c0 32 27 62 62 62c34 0 62 -30 62 -62c0 -35 -28 -63 -62 -63zM509 758c-36 0 -63 28 -63 63c0 32 27 62 63 62c34 0 62 -30 62 -62c0 -35 -28 -63 -62 -63zM406 -12c-196 0 -361 163 -361 356s165 355 361 355c195 0 360 -162 360 -355 s-165 -356 -360 -356zM406 102c126 0 232 110 232 242c0 131 -106 241 -232 241c-127 0 -234 -110 -234 -241c0 -132 107 -242 234 -242z" glyph-name="Odieresis" horiz-adv-x="810" unicode="Ö"/><glyph d="M365 745l-146 130l114 22l117 -152h-85zM406 -12c-196 0 -361 163 -361 356s165 355 361 355c195 0 360 -162 360 -355s-165 -356 -360 -356zM406 102c126 0 232 110 232 242c0 131 -106 241 -232 241c-127 0 -234 -110 -234 -241c0 -132 107 -242 234 -242z" glyph-name="Ograve" horiz-adv-x="810" unicode="Ò"/><glyph d="M241 745l117 152l114 -22l-146 -130h-85zM464 745l118 151l113 -22l-146 -129h-85zM406 -12c-196 0 -361 163 -361 356s165 355 361 355c195 0 360 -162 360 -355s-165 -356 -360 -356zM406 102c126 0 232 110 232 242c0 131 -106 241 -232 241 c-127 0 -234 -110 -234 -241c0 -132 107 -242 234 -242z" glyph-name="Ohungarumlaut" horiz-adv-x="810" unicode="Ő"/><glyph d="M239 756v75h334v-75h-334zM406 -12c-196 0 -361 163 -361 356s165 355 361 355c195 0 360 -162 360 -355s-165 -356 -360 -356zM406 102c126 0 232 110 232 242c0 131 -106 241 -232 241c-127 0 -234 -110 -234 -241c0 -132 107 -242 234 -242z" glyph-name="Omacron" horiz-adv-x="810" unicode="Ō"/><glyph d="M669 584c60 -64 97 -148 97 -240c0 -193 -165 -356 -360 -356c-72 0 -140 22 -197 59l-40 -47h-115l88 103c-60 64 -97 149 -97 241c0 193 165 355 361 355c72 0 139 -22 196 -59l40 47h115zM172 344c0 -55 19 -107 50 -148l303 354c-35 22 -76 35 -119 35 c-127 0 -234 -110 -234 -241zM406 102c126 0 232 110 232 242c0 55 -18 106 -49 147l-303 -354c36 -22 77 -35 120 -35z" glyph-name="Oslash" horiz-adv-x="810" unicode="Ø"/><glyph d="M472 743c-58 0 -96 56 -131 56c-24 0 -38 -17 -45 -57l-63 9c10 84 43 128 106 128c57 0 95 -56 130 -56c24 0 38 18 45 58l64 -10c-10 -83 -44 -128 -106 -128zM406 -12c-196 0 -361 163 -361 356s165 355 361 355c195 0 360 -162 360 -355s-165 -356 -360 -356z M406 102c126 0 232 110 232 242c0 131 -106 241 -232 241c-127 0 -234 -110 -234 -241c0 -132 107 -242 234 -242z" glyph-name="Otilde" horiz-adv-x="810" unicode="Õ"/><glyph d="M989 573h-392v-166h355v-114h-355v-179h392v-114h-583c-196 0 -361 145 -361 338s165 349 361 349h583v-114zM406 114h66v459h-66c-127 0 -234 -104 -234 -235c0 -132 107 -224 234 -224z" glyph-name="OE" horiz-adv-x="1038" unicode="Œ"/><glyph d="M71 0v687h299c147 0 257 -94 257 -228s-110 -228 -257 -228h-174v-231h-125zM196 346h160c85 0 144 43 144 113s-59 113 -144 113h-160v-226z" glyph-name="P" horiz-adv-x="654" unicode="P"/><glyph d="M71 0v687h124v-113h175c147 0 257 -95 257 -228c0 -134 -110 -228 -257 -228h-174v-118h-125zM196 232h160c85 0 144 44 144 114s-59 113 -144 113h-160v-227z" glyph-name="Thorn" horiz-adv-x="654" unicode="Þ"/><glyph d="M766 344c0 -77 -26 -149 -70 -207l69 -60l-66 -77l-74 64c-61 -47 -137 -76 -219 -76c-196 0 -361 163 -361 356s165 355 361 355c195 0 360 -162 360 -355zM406 102c47 0 91 15 128 41l-89 78l66 77l92 -80c22 37 35 80 35 126c0 131 -106 241 -232 241 c-127 0 -234 -110 -234 -241c0 -132 107 -242 234 -242z" glyph-name="Q" horiz-adv-x="810" unicode="Q"/><glyph d="M633 0h-142l-162 231h-133v-231h-125v687h299c147 0 257 -94 257 -228c0 -104 -67 -184 -166 -215zM196 572v-226h160c85 0 144 43 144 113s-59 113 -144 113h-160z" glyph-name="R" horiz-adv-x="669" unicode="R"/><glyph d="M472 875l-146 -130h-85l117 152zM633 0h-142l-162 231h-133v-231h-125v687h299c147 0 257 -94 257 -228c0 -104 -67 -184 -166 -215zM196 572v-226h160c85 0 144 43 144 113s-59 113 -144 113h-160z" glyph-name="Racute" horiz-adv-x="669" unicode="Ŕ"/><glyph d="M389 745h-104l-103 144h79l76 -78l77 78h80zM633 0h-142l-162 231h-133v-231h-125v687h299c147 0 257 -94 257 -228c0 -104 -67 -184 -166 -215zM196 572v-226h160c85 0 144 43 144 113s-59 113 -144 113h-160z" glyph-name="Rcaron" horiz-adv-x="669" unicode="Ř"/><glyph d="M461 244l172 -244h-142l-162 231h-133v-231h-125v687h299c147 0 257 -94 257 -228c0 -104 -67 -184 -166 -215zM196 572v-226h160c85 0 144 43 144 113s-59 113 -144 113h-160zM331 -58c39 0 66 -36 66 -87c0 -42 -23 -82 -77 -140l-37 28c24 23 40 49 46 75 c-33 0 -60 28 -60 62c0 33 28 62 62 62z" glyph-name="Rcommaaccent" horiz-adv-x="669" unicode="Ŗ"/><glyph d="M325 -11c-118 0 -218 40 -294 111l72 89c63 -57 136 -93 226 -93c85 0 129 42 129 91c0 57 -49 76 -159 102c-142 33 -241 74 -241 203c0 120 102 208 247 208c109 0 191 -37 260 -96l-68 -92c-60 52 -129 81 -197 81c-69 0 -116 -42 -116 -90c0 -56 51 -76 160 -101 c143 -32 239 -78 239 -203c0 -123 -94 -210 -258 -210z" glyph-name="S" horiz-adv-x="626" unicode="S"/><glyph d="M209 745l117 152l114 -22l-146 -130h-85zM325 -11c-118 0 -218 40 -294 111l72 89c63 -57 136 -93 226 -93c85 0 129 42 129 91c0 57 -49 76 -159 102c-142 33 -241 74 -241 203c0 120 102 208 247 208c109 0 191 -37 260 -96l-68 -92c-60 52 -129 81 -197 81 c-69 0 -116 -42 -116 -90c0 -56 51 -76 160 -101c143 -32 239 -78 239 -203c0 -123 -94 -210 -258 -210z" glyph-name="Sacute" horiz-adv-x="626" unicode="Ś"/><glyph d="M253 745l-103 144h79l76 -78l77 78h80l-105 -144h-104zM325 -11c-118 0 -218 40 -294 111l72 89c63 -57 136 -93 226 -93c85 0 129 42 129 91c0 57 -49 76 -159 102c-142 33 -241 74 -241 203c0 120 102 208 247 208c109 0 191 -37 260 -96l-68 -92 c-60 52 -129 81 -197 81c-69 0 -116 -42 -116 -90c0 -56 51 -76 160 -101c143 -32 239 -78 239 -203c0 -123 -94 -210 -258 -210z" glyph-name="Scaron" horiz-adv-x="626" unicode="Š"/><glyph d="M583 199c0 -117 -85 -201 -234 -209l-15 -34h5c42 0 72 -28 72 -67c0 -52 -45 -84 -105 -84c-36 0 -71 12 -92 29l24 52c19 -15 41 -23 62 -23c25 0 44 13 44 33c0 17 -11 29 -34 29c-11 0 -23 -4 -31 -10l-20 20l23 56c-99 8 -184 47 -251 109l72 89 c63 -57 136 -93 226 -93c85 0 129 42 129 91c0 57 -49 76 -159 102c-142 33 -241 74 -241 203c0 120 102 208 247 208c109 0 191 -37 260 -96l-68 -92c-60 52 -129 81 -197 81c-69 0 -116 -42 -116 -90c0 -56 51 -76 160 -101c143 -32 239 -78 239 -203z" glyph-name="Scedilla" horiz-adv-x="626" unicode="Ş"/><glyph d="M256 0v573h-220v114h564v-114h-220v-573h-124z" glyph-name="T" horiz-adv-x="636" unicode="T"/><glyph d="M266 745l-103 144h79l76 -78l77 78h80l-105 -144h-104zM256 0v573h-220v114h564v-114h-220v-573h-124z" glyph-name="Tcaron" horiz-adv-x="636" unicode="Ť"/><glyph d="M380 0h-27l-19 -44h5c42 0 72 -28 72 -67c0 -52 -45 -84 -105 -84c-36 0 -71 12 -92 29l24 52c19 -15 41 -23 62 -23c25 0 44 13 44 33c0 17 -11 29 -34 29c-11 0 -23 -4 -31 -10l-20 20l27 65h-30v573h-220v114h564v-114h-220v-573z" glyph-name="uni0162" horiz-adv-x="636" unicode="Ţ"/><glyph d="M376 -12c-177 0 -303 126 -303 305v394h125v-390c0 -114 74 -196 178 -196c105 0 179 82 179 196v390h124v-394c0 -179 -125 -305 -303 -305z" glyph-name="U" horiz-adv-x="752" unicode="U"/><glyph d="M280 745l117 152l114 -22l-146 -130h-85zM376 -12c-177 0 -303 126 -303 305v394h125v-390c0 -114 74 -196 178 -196c105 0 179 82 179 196v390h124v-394c0 -179 -125 -305 -303 -305z" glyph-name="Uacute" horiz-adv-x="752" unicode="Ú"/><glyph d="M221 745l103 144h104l105 -144h-80l-77 79l-76 -79h-79zM376 -12c-177 0 -303 126 -303 305v394h125v-390c0 -114 74 -196 178 -196c105 0 179 82 179 196v390h124v-394c0 -179 -125 -305 -303 -305z" glyph-name="Ucircumflex" horiz-adv-x="752" unicode="Û"/><glyph d="M273 758c-35 0 -62 28 -62 63c0 32 27 62 62 62c34 0 62 -30 62 -62c0 -35 -28 -63 -62 -63zM479 758c-36 0 -63 28 -63 63c0 32 27 62 63 62c34 0 62 -30 62 -62c0 -35 -28 -63 -62 -63zM376 -12c-177 0 -303 126 -303 305v394h125v-390c0 -114 74 -196 178 -196 c105 0 179 82 179 196v390h124v-394c0 -179 -125 -305 -303 -305z" glyph-name="Udieresis" horiz-adv-x="752" unicode="Ü"/><glyph d="M376 745l-146 130l114 22l117 -152h-85zM376 -12c-177 0 -303 126 -303 305v394h125v-390c0 -114 74 -196 178 -196c105 0 179 82 179 196v390h124v-394c0 -179 -125 -305 -303 -305z" glyph-name="Ugrave" horiz-adv-x="752" unicode="Ù"/><glyph d="M205 745l117 152l114 -22l-146 -130h-85zM428 745l118 151l113 -22l-146 -129h-85zM376 -12c-177 0 -303 126 -303 305v394h125v-390c0 -114 74 -196 178 -196c105 0 179 82 179 196v390h124v-394c0 -179 -125 -305 -303 -305z" glyph-name="Uhungarumlaut" horiz-adv-x="752" unicode="Ű"/><glyph d="M209 756v75h334v-75h-334zM376 -12c-177 0 -303 126 -303 305v394h125v-390c0 -114 74 -196 178 -196c105 0 179 82 179 196v390h124v-394c0 -179 -125 -305 -303 -305z" glyph-name="Umacron" horiz-adv-x="752" unicode="Ū"/><glyph d="M555 687h124v-394c0 -179 -125 -305 -302 -305c-10 -9 -16 -22 -16 -37c0 -29 19 -46 51 -46c17 0 31 7 40 16l28 -63c-23 -19 -53 -31 -88 -31c-65 0 -110 42 -110 110c0 22 7 43 18 59c-136 31 -227 145 -227 297v394h125v-390c0 -114 74 -196 178 -196 c105 0 179 82 179 196v390z" glyph-name="Uogonek" horiz-adv-x="752" unicode="Ų"/><glyph d="M376 753c-60 0 -110 50 -110 111s50 110 110 110c61 0 110 -49 110 -110s-49 -111 -110 -111zM376 809c30 0 55 25 55 55s-25 55 -55 55s-55 -25 -55 -55s25 -55 55 -55zM376 -12c-177 0 -303 126 -303 305v394h125v-390c0 -114 74 -196 178 -196c105 0 179 82 179 196 v390h124v-394c0 -179 -125 -305 -303 -305z" glyph-name="Uring" horiz-adv-x="752" unicode="Ů"/><glyph d="M594 687h139l-287 -687h-139l-287 687h138l218 -521z" glyph-name="V" horiz-adv-x="753" unicode="V"/><glyph d="M243 0l-218 687h137l147 -492l163 492h136l162 -492l147 492h137l-217 -687h-125l-172 510l-173 -510h-124z" glyph-name="W" horiz-adv-x="1079" unicode="W"/><glyph d="M495 745l117 152l114 -22l-146 -130h-85zM243 0l-218 687h137l147 -492l163 492h136l162 -492l147 492h137l-217 -687h-125l-172 510l-173 -510h-124z" glyph-name="Wacute" horiz-adv-x="1079" unicode="Ẃ"/><glyph d="M385 745l103 144h104l105 -144h-80l-77 79l-76 -79h-79zM243 0l-218 687h137l147 -492l163 492h136l162 -492l147 492h137l-217 -687h-125l-172 510l-173 -510h-124z" glyph-name="Wcircumflex" horiz-adv-x="1079" unicode="Ŵ"/><glyph d="M437 758c-35 0 -62 28 -62 63c0 32 27 62 62 62c34 0 62 -30 62 -62c0 -35 -28 -63 -62 -63zM643 758c-36 0 -63 28 -63 63c0 32 27 62 63 62c34 0 62 -30 62 -62c0 -35 -28 -63 -62 -63zM243 0l-218 687h137l147 -492l163 492h136l162 -492l147 492h137l-217 -687h-125 l-172 510l-173 -510h-124z" glyph-name="Wdieresis" horiz-adv-x="1079" unicode="Ẅ"/><glyph d="M499 745l-146 130l114 22l117 -152h-85zM243 0l-218 687h137l147 -492l163 492h136l162 -492l147 492h137l-217 -687h-125l-172 510l-173 -510h-124z" glyph-name="Wgrave" horiz-adv-x="1079" unicode="Ẁ"/><glyph d="M682 687l-255 -343l255 -344h-148l-181 244l-182 -244h-147l255 343l-255 344h149l181 -244l182 244h146z" glyph-name="X" horiz-adv-x="707" unicode="X"/><glyph d="M280 0v258l-272 429h147l189 -311l192 311h142l-271 -429v-258h-127z" glyph-name="Y" horiz-adv-x="686" unicode="Y"/><glyph d="M248 745l117 152l114 -22l-146 -130h-85zM280 0v258l-272 429h147l189 -311l192 311h142l-271 -429v-258h-127z" glyph-name="Yacute" horiz-adv-x="686" unicode="Ý"/><glyph d="M189 745l103 144h104l105 -144h-80l-77 79l-76 -79h-79zM280 0v258l-272 429h147l189 -311l192 311h142l-271 -429v-258h-127z" glyph-name="Ycircumflex" horiz-adv-x="686" unicode="Ŷ"/><glyph d="M241 758c-35 0 -62 28 -62 63c0 32 27 62 62 62c34 0 62 -30 62 -62c0 -35 -28 -63 -62 -63zM447 758c-36 0 -63 28 -63 63c0 32 27 62 63 62c34 0 62 -30 62 -62c0 -35 -28 -63 -62 -63zM280 0v258l-272 429h147l189 -311l192 311h142l-271 -429v-258h-127z" glyph-name="Ydieresis" horiz-adv-x="686" unicode="Ÿ"/><glyph d="M344 745l-146 130l114 22l117 -152h-85zM280 0v258l-272 429h147l189 -311l192 311h142l-271 -429v-258h-127z" glyph-name="Ygrave" horiz-adv-x="686" unicode="Ỳ"/><glyph d="M51 0v95l379 478h-372v114h542v-95l-378 -478h383v-114h-554z" glyph-name="Z" horiz-adv-x="653" unicode="Z"/><glyph d="M234 745l117 152l114 -22l-146 -130h-85zM51 0v95l379 478h-372v114h542v-95l-378 -478h383v-114h-554z" glyph-name="Zacute" horiz-adv-x="653" unicode="Ź"/><glyph d="M278 745l-103 144h79l76 -78l77 78h80l-105 -144h-104zM51 0v95l379 478h-372v114h542v-95l-378 -478h383v-114h-554z" glyph-name="Zcaron" horiz-adv-x="653" unicode="Ž"/><glyph d="M330 758c-35 0 -62 28 -62 63c0 32 27 62 62 62c34 0 62 -30 62 -62c0 -35 -28 -63 -62 -63zM51 0v95l379 478h-372v114h542v-95l-378 -478h383v-114h-554z" glyph-name="Zdotaccent" horiz-adv-x="653" unicode="Ż"/><glyph d="M292 529c137 0 222 -87 222 -218v-311h-119v62c-38 -48 -103 -74 -163 -74c-110 0 -193 65 -193 165c0 102 95 172 211 172c47 0 98 -10 145 -28v14c0 60 -33 118 -127 118c-49 0 -96 -17 -140 -39l-42 85c73 36 141 54 206 54zM259 77c59 0 122 30 136 85v58 c-38 13 -81 20 -127 20c-61 0 -110 -34 -110 -83s43 -80 101 -80z" glyph-name="a" horiz-adv-x="579" unicode="a"/><glyph d="M433 705l-146 -130h-85l117 152zM292 529c137 0 222 -87 222 -218v-311h-119v62c-38 -48 -103 -74 -163 -74c-110 0 -193 65 -193 165c0 102 95 172 211 172c47 0 98 -10 145 -28v14c0 60 -33 118 -127 118c-49 0 -96 -17 -140 -39l-42 85c73 36 141 54 206 54zM259 77 c59 0 122 30 136 85v58c-38 13 -81 20 -127 20c-61 0 -110 -34 -110 -83s43 -80 101 -80z" glyph-name="aacute" horiz-adv-x="579" unicode="á"/><glyph d="M454 648c-43 -43 -99 -65 -156 -65s-112 22 -156 65l58 58c27 -27 63 -43 98 -43s71 16 98 43zM292 529c137 0 222 -87 222 -218v-311h-119v62c-38 -48 -103 -74 -163 -74c-110 0 -193 65 -193 165c0 102 95 172 211 172c47 0 98 -10 145 -28v14c0 60 -33 118 -127 118 c-49 0 -96 -17 -140 -39l-42 85c73 36 141 54 206 54zM259 77c59 0 122 30 136 85v58c-38 13 -81 20 -127 20c-61 0 -110 -34 -110 -83s43 -80 101 -80z" glyph-name="abreve" horiz-adv-x="579" unicode="ă"/><glyph d="M298 654l-76 -79h-79l103 144h104l105 -144h-80zM292 529c137 0 222 -87 222 -218v-311h-119v62c-38 -48 -103 -74 -163 -74c-110 0 -193 65 -193 165c0 102 95 172 211 172c47 0 98 -10 145 -28v14c0 60 -33 118 -127 118c-49 0 -96 -17 -140 -39l-42 85 c73 36 141 54 206 54zM259 77c59 0 122 30 136 85v58c-38 13 -81 20 -127 20c-61 0 -110 -34 -110 -83s43 -80 101 -80z" glyph-name="acircumflex" horiz-adv-x="579" unicode="â"/><glyph d="M195 588c-35 0 -62 28 -62 63c0 32 27 62 62 62c34 0 62 -30 62 -62c0 -35 -28 -63 -62 -63zM401 588c-36 0 -63 28 -63 63c0 32 27 62 63 62c34 0 62 -30 62 -62c0 -35 -28 -63 -62 -63zM292 529c137 0 222 -87 222 -218v-311h-119v62c-38 -48 -103 -74 -163 -74 c-110 0 -193 65 -193 165c0 102 95 172 211 172c47 0 98 -10 145 -28v14c0 60 -33 118 -127 118c-49 0 -96 -17 -140 -39l-42 85c73 36 141 54 206 54zM259 77c59 0 122 30 136 85v58c-38 13 -81 20 -127 20c-61 0 -110 -34 -110 -83s43 -80 101 -80z" glyph-name="adieresis" horiz-adv-x="579" unicode="ä"/><glyph d="M383 575h-85l-146 130l114 22zM292 529c137 0 222 -87 222 -218v-311h-119v62c-38 -48 -103 -74 -163 -74c-110 0 -193 65 -193 165c0 102 95 172 211 172c47 0 98 -10 145 -28v14c0 60 -33 118 -127 118c-49 0 -96 -17 -140 -39l-42 85c73 36 141 54 206 54zM259 77 c59 0 122 30 136 85v58c-38 13 -81 20 -127 20c-61 0 -110 -34 -110 -83s43 -80 101 -80z" glyph-name="agrave" horiz-adv-x="579" unicode="à"/><glyph d="M465 661v-75h-334v75h334zM292 529c137 0 222 -87 222 -218v-311h-119v62c-38 -48 -103 -74 -163 -74c-110 0 -193 65 -193 165c0 102 95 172 211 172c47 0 98 -10 145 -28v14c0 60 -33 118 -127 118c-49 0 -96 -17 -140 -39l-42 85c73 36 141 54 206 54zM259 77 c59 0 122 30 136 85v58c-38 13 -81 20 -127 20c-61 0 -110 -34 -110 -83s43 -80 101 -80z" glyph-name="amacron" horiz-adv-x="579" unicode="ā"/><glyph d="M555 -79l28 -63c-23 -19 -53 -31 -88 -31c-65 0 -110 42 -110 110c0 24 8 46 21 63h-11v62c-38 -48 -103 -74 -163 -74c-110 0 -193 65 -193 165c0 102 95 172 211 172c47 0 98 -10 145 -28v14c0 60 -33 118 -127 118c-49 0 -96 -17 -140 -39l-42 85c73 36 141 54 206 54 c137 0 222 -87 222 -218v-311c-29 0 -50 -20 -50 -49s19 -46 51 -46c17 0 31 7 40 16zM259 77c59 0 122 30 136 85v58c-38 13 -81 20 -127 20c-61 0 -110 -34 -110 -83s43 -80 101 -80z" glyph-name="aogonek" horiz-adv-x="579" unicode="ą"/><glyph d="M298 583c-60 0 -110 50 -110 111s50 110 110 110c61 0 110 -49 110 -110s-49 -111 -110 -111zM298 749c-30 0 -55 -25 -55 -55s25 -55 55 -55s55 25 55 55s-25 55 -55 55zM292 529c137 0 222 -87 222 -218v-311h-119v62c-38 -48 -103 -74 -163 -74 c-110 0 -193 65 -193 165c0 102 95 172 211 172c47 0 98 -10 145 -28v14c0 60 -33 118 -127 118c-49 0 -96 -17 -140 -39l-42 85c73 36 141 54 206 54zM259 77c59 0 122 30 136 85v58c-38 13 -81 20 -127 20c-61 0 -110 -34 -110 -83s43 -80 101 -80z" glyph-name="aring" horiz-adv-x="579" unicode="å"/><glyph d="M233 629c-24 0 -38 -17 -45 -57l-63 9c10 84 43 128 106 128c57 0 95 -56 130 -56c24 0 38 18 45 58l64 -10c-10 -83 -44 -128 -106 -128c-58 0 -96 56 -131 56zM292 529c137 0 222 -87 222 -218v-311h-119v62c-38 -48 -103 -74 -163 -74c-110 0 -193 65 -193 165 c0 102 95 172 211 172c47 0 98 -10 145 -28v14c0 60 -33 118 -127 118c-49 0 -96 -17 -140 -39l-42 85c73 36 141 54 206 54zM259 77c59 0 122 30 136 85v58c-38 13 -81 20 -127 20c-61 0 -110 -34 -110 -83s43 -80 101 -80z" glyph-name="atilde" horiz-adv-x="579" unicode="ã"/><glyph d="M663 96c48 0 105 22 134 52l77 -80c-45 -48 -135 -80 -210 -80c-83 0 -158 36 -208 95c-42 -58 -116 -95 -206 -95c-128 0 -211 64 -211 165c0 102 95 172 211 172c47 0 98 -10 145 -28v14c0 60 -33 118 -127 118c-49 0 -96 -17 -140 -39l-42 85c73 36 133 54 198 54 c83 0 144 -32 178 -85c48 53 117 85 195 85c160 0 253 -121 253 -312h-390c15 -71 69 -121 143 -121zM662 421c-68 0 -123 -43 -141 -111h272c-14 65 -58 111 -131 111zM265 77c73 0 130 49 130 110v33c-38 13 -81 20 -127 20c-61 0 -110 -34 -110 -83s41 -80 107 -80z" glyph-name="ae" horiz-adv-x="948" unicode="æ"/><glyph d="M372 529c137 0 237 -112 237 -270c0 -159 -100 -271 -237 -271c-77 0 -139 35 -180 94v-82h-122v699h122v-264c41 59 103 94 180 94zM339 92c87 0 149 70 149 167s-62 166 -149 166c-86 0 -146 -69 -146 -166s60 -167 146 -167z" glyph-name="b" unicode="b"/><glyph d="M316 -12c-149 0 -276 124 -276 271s127 270 278 270c78 0 147 -33 196 -84l-82 -72c-28 31 -71 52 -115 52c-85 0 -156 -76 -156 -166c0 -91 71 -167 156 -167c45 0 89 21 118 54l82 -71c-50 -53 -119 -87 -201 -87z" glyph-name="c" horiz-adv-x="546" unicode="c"/><glyph d="M201 575l117 152l114 -22l-146 -130h-85zM316 -12c-149 0 -276 124 -276 271s127 270 278 270c78 0 147 -33 196 -84l-82 -72c-28 31 -71 52 -115 52c-85 0 -156 -76 -156 -166c0 -91 71 -167 156 -167c45 0 89 21 118 54l82 -71c-50 -53 -119 -87 -201 -87z" glyph-name="cacute" horiz-adv-x="546" unicode="ć"/><glyph d="M245 575l-103 144h79l76 -78l77 78h80l-105 -144h-104zM316 -12c-149 0 -276 124 -276 271s127 270 278 270c78 0 147 -33 196 -84l-82 -72c-28 31 -71 52 -115 52c-85 0 -156 -76 -156 -166c0 -91 71 -167 156 -167c45 0 89 21 118 54l82 -71c-50 -53 -119 -87 -201 -87 z" glyph-name="ccaron" horiz-adv-x="546" unicode="č"/><glyph d="M517 75c-45 -47 -104 -79 -174 -86l-15 -33h5c42 0 72 -28 72 -67c0 -52 -45 -84 -105 -84c-36 0 -71 12 -92 29l24 52c19 -15 41 -23 62 -23c25 0 44 13 44 33c0 17 -11 29 -34 29c-11 0 -23 -4 -31 -10l-20 20l24 56c-132 19 -237 134 -237 268c0 147 127 270 278 270 c78 0 147 -33 196 -84l-82 -72c-28 31 -71 52 -115 52c-85 0 -156 -76 -156 -166c0 -91 71 -167 156 -167c45 0 89 21 118 54z" glyph-name="ccedilla" horiz-adv-x="546" unicode="ç"/><glyph d="M460 699h122v-699h-122v80c-41 -58 -103 -92 -179 -92c-137 0 -237 112 -237 271c0 158 100 270 237 270c76 0 138 -34 179 -92v262zM314 92c86 0 146 70 146 167s-60 166 -146 166c-87 0 -149 -69 -149 -166s62 -167 149 -167z" glyph-name="d" unicode="d"/><glyph d="M409 612c114 -107 173 -205 173 -335c0 -170 -110 -289 -265 -289c-156 0 -267 108 -267 261c0 144 95 247 228 247c67 0 117 -29 157 -76c-27 54 -71 103 -125 148l-111 -49l-31 73l71 32c-24 17 -49 34 -74 51l113 47c23 -18 44 -35 65 -52l93 42l32 -73zM317 93 c84 0 144 63 144 151c0 84 -57 150 -146 150c-85 0 -145 -61 -145 -148c0 -90 61 -153 147 -153z" glyph-name="eth" horiz-adv-x="630" unicode="ð"/><glyph d="M460 437v262h122v-699h-122v80c-41 -58 -103 -92 -179 -92c-137 0 -237 112 -237 271c0 158 100 270 237 270c76 0 138 -34 179 -92zM713 699c39 0 66 -36 66 -87c0 -42 -23 -82 -77 -140l-37 28c24 23 40 49 46 75c-33 0 -60 28 -60 62c0 33 28 62 62 62zM314 92 c86 0 146 70 146 167s-60 166 -146 166c-87 0 -149 -69 -149 -166s62 -167 149 -167z" glyph-name="dcaron" unicode="ď"/><glyph d="M644 643v-66h-62v-577h-122v80c-41 -58 -103 -92 -179 -92c-137 0 -237 112 -237 271c0 158 100 270 237 270c76 0 138 -34 179 -92v140h-158v66h158v56h122v-56h62zM314 92c86 0 146 70 146 167s-60 166 -146 166c-87 0 -149 -69 -149 -166s62 -167 149 -167z" glyph-name="dcroat" horiz-adv-x="676" unicode="đ"/><glyph d="M308 96c48 0 105 22 134 52l77 -80c-45 -48 -135 -80 -210 -80c-148 0 -270 113 -270 272c0 155 116 269 263 269c160 0 253 -121 253 -312h-390c15 -71 69 -121 143 -121zM307 421c-68 0 -123 -43 -141 -111h272c-14 65 -58 111 -131 111z" glyph-name="e" horiz-adv-x="594" unicode="e"/><glyph d="M437 705l-146 -130h-85l117 152zM308 96c48 0 105 22 134 52l77 -80c-45 -48 -135 -80 -210 -80c-148 0 -270 113 -270 272c0 155 116 269 263 269c160 0 253 -121 253 -312h-390c15 -71 69 -121 143 -121zM307 421c-68 0 -123 -43 -141 -111h272 c-14 65 -58 111 -131 111z" glyph-name="eacute" horiz-adv-x="594" unicode="é"/><glyph d="M354 575h-104l-103 144h79l76 -78l77 78h80zM308 96c48 0 105 22 134 52l77 -80c-45 -48 -135 -80 -210 -80c-148 0 -270 113 -270 272c0 155 116 269 263 269c160 0 253 -121 253 -312h-390c15 -71 69 -121 143 -121zM307 421c-68 0 -123 -43 -141 -111h272 c-14 65 -58 111 -131 111z" glyph-name="ecaron" horiz-adv-x="594" unicode="ě"/><glyph d="M302 654l-76 -79h-79l103 144h104l105 -144h-80zM308 96c48 0 105 22 134 52l77 -80c-45 -48 -135 -80 -210 -80c-148 0 -270 113 -270 272c0 155 116 269 263 269c160 0 253 -121 253 -312h-390c15 -71 69 -121 143 -121zM307 421c-68 0 -123 -43 -141 -111h272 c-14 65 -58 111 -131 111z" glyph-name="ecircumflex" horiz-adv-x="594" unicode="ê"/><glyph d="M199 588c-35 0 -62 28 -62 63c0 32 27 62 62 62c34 0 62 -30 62 -62c0 -35 -28 -63 -62 -63zM405 588c-36 0 -63 28 -63 63c0 32 27 62 63 62c34 0 62 -30 62 -62c0 -35 -28 -63 -62 -63zM308 96c48 0 105 22 134 52l77 -80c-45 -48 -135 -80 -210 -80 c-148 0 -270 113 -270 272c0 155 116 269 263 269c160 0 253 -121 253 -312h-390c15 -71 69 -121 143 -121zM307 421c-68 0 -123 -43 -141 -111h272c-14 65 -58 111 -131 111z" glyph-name="edieresis" horiz-adv-x="594" unicode="ë"/><glyph d="M302 588c-35 0 -62 28 -62 63c0 32 27 62 62 62c34 0 62 -30 62 -62c0 -35 -28 -63 -62 -63zM308 96c48 0 105 22 134 52l77 -80c-45 -48 -135 -80 -210 -80c-148 0 -270 113 -270 272c0 155 116 269 263 269c160 0 253 -121 253 -312h-390c15 -71 69 -121 143 -121z M307 421c-68 0 -123 -43 -141 -111h272c-14 65 -58 111 -131 111z" glyph-name="edotaccent" horiz-adv-x="594" unicode="ė"/><glyph d="M308 96c48 0 105 22 134 52l77 -80c-45 -48 -135 -80 -210 -80c-148 0 -270 113 -270 272c0 155 116 269 263 269c160 0 253 -121 253 -312h-390c15 -71 69 -121 143 -121zM307 421c-68 0 -123 -43 -141 -111h272c-14 65 -58 111 -131 111zM300 -74c34 0 62 -30 62 -62 c0 -35 -28 -63 -62 -63c-35 0 -62 28 -62 63c0 32 27 62 62 62z" glyph-name="uni1EB9" horiz-adv-x="593" unicode="ẹ"/><glyph d="M387 575h-85l-146 130l114 22zM308 96c48 0 105 22 134 52l77 -80c-45 -48 -135 -80 -210 -80c-148 0 -270 113 -270 272c0 155 116 269 263 269c160 0 253 -121 253 -312h-390c15 -71 69 -121 143 -121zM307 421c-68 0 -123 -43 -141 -111h272c-14 65 -58 111 -131 111z" glyph-name="egrave" horiz-adv-x="594" unicode="è"/><glyph d="M469 661v-75h-334v75h334zM308 96c48 0 105 22 134 52l77 -80c-45 -48 -135 -80 -210 -80c-148 0 -270 113 -270 272c0 155 116 269 263 269c160 0 253 -121 253 -312h-390c15 -71 69 -121 143 -121zM307 421c-68 0 -123 -43 -141 -111h272c-14 65 -58 111 -131 111z" glyph-name="emacron" horiz-adv-x="594" unicode="ē"/><glyph d="M519 68c-25 -27 -64 -49 -107 -63c-7 -8 -12 -20 -12 -33c0 -29 19 -46 51 -46c17 0 31 7 40 16l28 -63c-23 -19 -53 -31 -88 -31c-65 0 -110 42 -110 110c0 11 2 21 4 30h-16c-148 0 -270 113 -270 272c0 155 116 269 263 269c160 0 253 -121 253 -312h-390 c15 -71 69 -121 143 -121c48 0 105 22 134 52zM307 421c-68 0 -123 -43 -141 -111h272c-14 65 -58 111 -131 111z" glyph-name="eogonek" horiz-adv-x="593" unicode="ę"/><glyph d="M237 629c-24 0 -38 -17 -45 -57l-63 9c10 84 43 128 106 128c57 0 95 -56 130 -56c24 0 38 18 45 58l64 -10c-10 -83 -44 -128 -106 -128c-58 0 -96 56 -131 56zM308 96c48 0 105 22 134 52l77 -80c-45 -48 -135 -80 -210 -80c-148 0 -270 113 -270 272 c0 155 116 269 263 269c160 0 253 -121 253 -312h-390c15 -71 69 -121 143 -121zM307 421c-68 0 -123 -43 -141 -111h272c-14 65 -58 111 -131 111z" glyph-name="uni1EBD" horiz-adv-x="594" unicode="ẽ"/><glyph d="M223 560v-43h117v-101h-117v-416h-119v416h-75v101h75v54c0 87 60 149 146 149c39 0 81 -16 110 -41l-35 -78c-11 11 -30 19 -51 19c-29 0 -51 -25 -51 -60z" glyph-name="f" horiz-adv-x="370" unicode="f"/><glyph d="M452 517h122v-462c0 -133 -112 -227 -270 -227c-89 0 -171 29 -222 69l45 89c36 -33 98 -54 159 -54c102 0 166 49 166 127v67c-41 -55 -103 -88 -177 -88c-134 0 -233 102 -233 246s99 245 233 245c73 0 140 -34 177 -89v77zM310 142c83 0 142 59 142 142 c0 82 -59 141 -142 141c-82 0 -141 -59 -141 -141c0 -83 59 -142 141 -142z" glyph-name="g" horiz-adv-x="644" unicode="g"/><glyph d="M489 648c-43 -43 -99 -65 -156 -65s-112 22 -156 65l58 58c27 -27 63 -43 98 -43s71 16 98 43zM452 517h122v-462c0 -133 -112 -227 -270 -227c-89 0 -171 29 -222 69l45 89c36 -33 98 -54 159 -54c102 0 166 49 166 127v67c-41 -55 -103 -88 -177 -88 c-134 0 -233 102 -233 246s99 245 233 245c73 0 140 -34 177 -89v77zM310 142c83 0 142 59 142 142c0 82 -59 141 -142 141c-82 0 -141 -59 -141 -141c0 -83 59 -142 141 -142z" glyph-name="gbreve" horiz-adv-x="644" unicode="ğ"/><glyph d="M315 588c-39 0 -66 36 -66 87c0 42 23 82 77 140l37 -28c-24 -23 -40 -49 -46 -75c33 0 60 -28 60 -62c0 -33 -28 -62 -62 -62zM452 517h122v-462c0 -133 -112 -227 -270 -227c-89 0 -171 29 -222 69l45 89c36 -33 98 -54 159 -54c102 0 166 49 166 127v67 c-41 -55 -103 -88 -177 -88c-134 0 -233 102 -233 246s99 245 233 245c73 0 140 -34 177 -89v77zM310 142c83 0 142 59 142 142c0 82 -59 141 -142 141c-82 0 -141 -59 -141 -141c0 -83 59 -142 141 -142z" glyph-name="gcommaaccent" horiz-adv-x="644" unicode="ģ"/><glyph d="M349 529c113 0 192 -83 192 -200v-329h-118v305c0 70 -45 120 -109 120c-69 0 -126 -50 -126 -112v-313h-122v699h122v-253c31 50 92 83 161 83z" glyph-name="h" horiz-adv-x="606" unicode="h"/><glyph d="M129 595c-39 0 -70 33 -70 70s31 69 70 69c38 0 69 -32 69 -69s-31 -70 -69 -70zM67 0v517h122v-517h-122z" glyph-name="i" horiz-adv-x="257" unicode="i"/><glyph d="M67 0v517h122v-517h-122z" glyph-name="dotlessi" horiz-adv-x="257" unicode="ı"/><glyph d="M85 575l117 152l114 -22l-146 -130h-85zM67 0v517h122v-517h-122z" glyph-name="iacute" horiz-adv-x="257" unicode="í"/><glyph d="M-26 575l103 144h104l105 -144h-80l-77 79l-76 -79h-79zM67 0v517h122v-517h-122z" glyph-name="icircumflex" horiz-adv-x="257" unicode="î"/><glyph d="M26 588c-35 0 -62 28 -62 63c0 32 27 62 62 62c34 0 62 -30 62 -62c0 -35 -28 -63 -62 -63zM232 588c-36 0 -63 28 -63 63c0 32 27 62 63 62c34 0 62 -30 62 -62c0 -35 -28 -63 -62 -63zM67 0v517h122v-517h-122z" glyph-name="idieresis" horiz-adv-x="257" unicode="ï"/><glyph d="M87 575l-146 130l114 22l117 -152h-85zM67 0v517h122v-517h-122z" glyph-name="igrave" horiz-adv-x="257" unicode="ì"/><glyph d="M-38 586v75h334v-75h-334zM67 0v517h122v-517h-122z" glyph-name="imacron" horiz-adv-x="257" unicode="ī"/><glyph d="M129 588c-35 0 -62 28 -62 63c0 32 27 62 62 62c34 0 62 -30 62 -62c0 -35 -28 -63 -62 -63zM170 -79l28 -63c-23 -19 -53 -31 -88 -31c-65 0 -110 42 -110 110c0 40 22 73 52 90l15 -5v495h122v-517h-60c-29 0 -50 -20 -50 -49s19 -46 51 -46c17 0 31 7 40 16z" glyph-name="iogonek" horiz-adv-x="257" unicode="į"/><glyph d="M129 595c-39 0 -70 33 -70 70s31 69 70 69c38 0 69 -32 69 -69s-31 -70 -69 -70zM40 -178c-33 0 -73 8 -96 19l15 93c14 -6 38 -10 57 -10c30 0 51 25 51 60v533h122v-542c0 -90 -61 -153 -149 -153z" glyph-name="j" horiz-adv-x="257" unicode="j"/><glyph d="M40 -178c-33 0 -73 8 -96 19l15 93c14 -6 38 -10 57 -10c30 0 51 25 51 60v533h122v-542c0 -90 -61 -153 -149 -153z" glyph-name="uni0237" horiz-adv-x="257" unicode="ȷ"/><glyph d="M555 517l-213 -231l206 -286h-142l-146 206l-73 -77v-129h-122v699h122v-427l224 245h144z" glyph-name="k" horiz-adv-x="562" unicode="k"/><glyph d="M555 517l-213 -231l206 -286h-142l-146 206l-73 -77v-129h-122v699h122v-427l224 245h144zM290 -58c39 0 66 -36 66 -87c0 -42 -23 -82 -77 -140l-37 28c24 23 40 49 46 75c-33 0 -60 28 -60 62c0 33 28 62 62 62z" glyph-name="kcommaaccent" horiz-adv-x="562" unicode="ķ"/><glyph d="M67 0v699h122v-699h-122z" glyph-name="l" horiz-adv-x="257" unicode="l"/><glyph d="M85 757l117 152l114 -22l-146 -130h-85zM67 0v699h122v-699h-122z" glyph-name="lacute" horiz-adv-x="257" unicode="ĺ"/><glyph d="M67 0v699h122v-699h-122zM309 472l-37 28c24 23 40 49 46 75c-33 0 -60 28 -60 62c0 33 28 62 62 62c39 0 66 -36 66 -87c0 -42 -23 -82 -77 -140z" glyph-name="lcaron" horiz-adv-x="257" unicode="ľ"/><glyph d="M308 464v-112l-81 -41v-311h-122v250l-76 -38v111l76 38v338h122v-276z" glyph-name="lslash" horiz-adv-x="338" unicode="ł"/><glyph d="M664 529c108 0 189 -83 189 -200v-329h-119v309c0 68 -41 116 -100 116c-67 0 -113 -45 -113 -108v-317h-119v309c0 68 -41 116 -101 116c-66 0 -113 -45 -113 -108v-317h-122v517h122v-70c26 50 79 82 144 82c73 0 133 -37 165 -98c25 60 90 98 167 98z" glyph-name="m" horiz-adv-x="918" unicode="m"/><glyph d="M349 529c113 0 192 -83 192 -200v-329h-118v305c0 70 -45 120 -109 120s-117 -43 -125 -98v-327h-122v517h122v-69c32 48 92 81 160 81z" glyph-name="n" horiz-adv-x="606" unicode="n"/><glyph d="M452 705l-146 -130h-85l117 152zM349 529c113 0 192 -83 192 -200v-329h-118v305c0 70 -45 120 -109 120s-117 -43 -125 -98v-327h-122v517h122v-69c32 48 92 81 160 81z" glyph-name="nacute" horiz-adv-x="606" unicode="ń"/><glyph d="M369 575h-104l-103 144h79l76 -78l77 78h80zM349 529c113 0 192 -83 192 -200v-329h-118v305c0 70 -45 120 -109 120s-117 -43 -125 -98v-327h-122v517h122v-69c32 48 92 81 160 81z" glyph-name="ncaron" horiz-adv-x="606" unicode="ň"/><glyph d="M349 529c113 0 192 -83 192 -200v-329h-118v305c0 70 -45 120 -109 120s-117 -43 -125 -98v-327h-122v517h122v-69c32 48 92 81 160 81zM317 -58c39 0 66 -36 66 -87c0 -42 -23 -82 -77 -140l-37 28c24 23 40 49 46 75c-33 0 -60 28 -60 62c0 33 28 62 62 62z" glyph-name="ncommaaccent" horiz-adv-x="606" unicode="ņ"/><glyph d="M252 629c-24 0 -38 -17 -45 -57l-63 9c10 84 43 128 106 128c57 0 95 -56 130 -56c24 0 38 18 45 58l64 -10c-10 -83 -44 -128 -106 -128c-58 0 -96 56 -131 56zM349 529c113 0 192 -83 192 -200v-329h-118v305c0 70 -45 120 -109 120s-117 -43 -125 -98v-327h-122v517 h122v-69c32 48 92 81 160 81z" glyph-name="ntilde" horiz-adv-x="606" unicode="ñ"/><glyph d="M317 -12c-150 0 -277 124 -277 271s127 270 277 270s277 -123 277 -270s-127 -271 -277 -271zM317 92c85 0 157 76 157 167c0 90 -72 166 -157 166c-86 0 -158 -76 -158 -166c0 -91 72 -167 158 -167z" glyph-name="o" horiz-adv-x="633" unicode="o"/><glyph d="M221 575l117 152l114 -22l-146 -130h-85zM317 -12c-150 0 -277 124 -277 271s127 270 277 270s277 -123 277 -270s-127 -271 -277 -271zM317 92c85 0 157 76 157 167c0 90 -72 166 -157 166c-86 0 -158 -76 -158 -166c0 -91 72 -167 158 -167z" glyph-name="oacute" horiz-adv-x="633" unicode="ó"/><glyph d="M162 575l103 144h104l105 -144h-80l-77 79l-76 -79h-79zM317 -12c-150 0 -277 124 -277 271s127 270 277 270s277 -123 277 -270s-127 -271 -277 -271zM317 92c85 0 157 76 157 167c0 90 -72 166 -157 166c-86 0 -158 -76 -158 -166c0 -91 72 -167 158 -167z" glyph-name="ocircumflex" horiz-adv-x="633" unicode="ô"/><glyph d="M214 588c-35 0 -62 28 -62 63c0 32 27 62 62 62c34 0 62 -30 62 -62c0 -35 -28 -63 -62 -63zM420 588c-36 0 -63 28 -63 63c0 32 27 62 63 62c34 0 62 -30 62 -62c0 -35 -28 -63 -62 -63zM317 -12c-150 0 -277 124 -277 271s127 270 277 270s277 -123 277 -270 s-127 -271 -277 -271zM317 92c85 0 157 76 157 167c0 90 -72 166 -157 166c-86 0 -158 -76 -158 -166c0 -91 72 -167 158 -167z" glyph-name="odieresis" horiz-adv-x="633" unicode="ö"/><glyph d="M317 575l-146 130l114 22l117 -152h-85zM317 -12c-150 0 -277 124 -277 271s127 270 277 270s277 -123 277 -270s-127 -271 -277 -271zM317 92c85 0 157 76 157 167c0 90 -72 166 -157 166c-86 0 -158 -76 -158 -166c0 -91 72 -167 158 -167z" glyph-name="ograve" horiz-adv-x="633" unicode="ò"/><glyph d="M157 575l117 152l114 -22l-146 -130h-85zM380 575l118 151l113 -22l-146 -129h-85zM317 -12c-150 0 -277 124 -277 271s127 270 277 270s277 -123 277 -270s-127 -271 -277 -271zM317 92c85 0 157 76 157 167c0 90 -72 166 -157 166c-86 0 -158 -76 -158 -166 c0 -91 72 -167 158 -167z" glyph-name="ohungarumlaut" horiz-adv-x="633" unicode="ő"/><glyph d="M150 586v75h334v-75h-334zM317 -12c-150 0 -277 124 -277 271s127 270 277 270s277 -123 277 -270s-127 -271 -277 -271zM317 92c85 0 157 76 157 167c0 90 -72 166 -157 166c-86 0 -158 -76 -158 -166c0 -91 72 -167 158 -167z" glyph-name="omacron" horiz-adv-x="633" unicode="ō"/><glyph d="M522 438c45 -48 72 -111 72 -179c0 -147 -127 -271 -277 -271c-53 0 -103 16 -146 42l-26 -30h-99l67 78c-45 48 -73 112 -73 181c0 147 127 270 277 270c54 0 104 -16 148 -43l26 31h99zM159 259c0 -35 11 -68 28 -95l206 239c-23 14 -49 22 -76 22 c-86 0 -158 -76 -158 -166zM317 92c85 0 157 76 157 167c0 34 -10 65 -27 92l-205 -238c22 -14 48 -21 75 -21z" glyph-name="oslash" horiz-adv-x="633" unicode="ø"/><glyph d="M383 573c-58 0 -96 56 -131 56c-24 0 -38 -17 -45 -57l-63 9c10 84 43 128 106 128c57 0 95 -56 130 -56c24 0 38 18 45 58l64 -10c-10 -83 -44 -128 -106 -128zM317 -12c-150 0 -277 124 -277 271s127 270 277 270s277 -123 277 -270s-127 -271 -277 -271zM317 92 c85 0 157 76 157 167c0 90 -72 166 -157 166c-86 0 -158 -76 -158 -166c0 -91 72 -167 158 -167z" glyph-name="otilde" horiz-adv-x="633" unicode="õ"/><glyph d="M745 96c48 0 105 22 134 52l77 -80c-45 -48 -135 -80 -210 -80c-87 0 -164 39 -214 103c-51 -63 -129 -103 -215 -103c-150 0 -277 124 -277 271s127 270 277 270c85 0 163 -40 214 -101c48 63 123 101 208 101c160 0 253 -121 253 -312h-390c15 -71 69 -121 143 -121z M317 92c85 0 157 76 157 167c0 90 -72 166 -157 166c-86 0 -158 -76 -158 -166c0 -91 72 -167 158 -167zM744 421c-68 0 -123 -43 -141 -111h272c-14 65 -58 111 -131 111z" glyph-name="oe" horiz-adv-x="1030" unicode="œ"/><glyph d="M372 529c137 0 237 -112 237 -270c0 -159 -100 -271 -237 -271c-77 0 -139 35 -180 94v-254h-122v689h122v-82c41 59 103 94 180 94zM339 92c87 0 149 70 149 167s-62 166 -149 166c-86 0 -146 -69 -146 -166s60 -167 146 -167z" glyph-name="p" unicode="p"/><glyph d="M372 529c137 0 237 -112 237 -270c0 -159 -100 -271 -237 -271c-77 0 -139 35 -180 94v-254h-122v871h122v-264c41 59 103 94 180 94zM339 92c87 0 149 70 149 167s-62 166 -149 166c-86 0 -146 -69 -146 -166s60 -167 146 -167z" glyph-name="thorn" unicode="þ"/><glyph d="M460 517h122v-689h-122v252c-41 -58 -103 -92 -179 -92c-137 0 -237 112 -237 271c0 158 100 270 237 270c76 0 138 -34 179 -92v80zM314 92c86 0 146 70 146 167s-60 166 -146 166c-87 0 -149 -69 -149 -166s62 -167 149 -167z" glyph-name="q" unicode="q"/><glyph d="M192 417c33 69 100 112 185 112v-104c-111 0 -185 -66 -185 -164v-261h-122v517h122v-100z" glyph-name="r" horiz-adv-x="400" unicode="r"/><glyph d="M362 705l-146 -130h-85l117 152zM192 417c33 69 100 112 185 112v-104c-111 0 -185 -66 -185 -164v-261h-122v517h122v-100z" glyph-name="racute" horiz-adv-x="400" unicode="ŕ"/><glyph d="M279 575h-104l-103 144h79l76 -78l77 78h80zM192 417c33 69 100 112 185 112v-104c-111 0 -185 -66 -185 -164v-261h-122v517h122v-100z" glyph-name="rcaron" horiz-adv-x="400" unicode="ř"/><glyph d="M192 417c33 69 100 112 185 112v-104c-111 0 -185 -66 -185 -164v-261h-122v517h122v-100zM178 -58c39 0 66 -36 66 -87c0 -42 -23 -82 -77 -140l-37 28c24 23 40 49 46 75c-33 0 -60 28 -60 62c0 33 28 62 62 62z" glyph-name="rcommaaccent" horiz-adv-x="400" unicode="ŗ"/><glyph d="M258 -12c-79 0 -164 28 -226 78l55 85c50 -36 108 -60 173 -60c49 0 83 21 83 53c0 40 -45 53 -104 69c-112 29 -183 61 -184 153c0 97 80 163 195 163c71 0 142 -25 198 -62l-51 -89c-49 31 -102 47 -147 47c-43 0 -76 -17 -76 -46c0 -33 27 -43 106 -66 c87 -24 181 -54 181 -162c0 -99 -82 -163 -203 -163z" glyph-name="s" horiz-adv-x="500" unicode="s"/><glyph d="M154 575l117 152l114 -22l-146 -130h-85zM258 -12c-79 0 -164 28 -226 78l55 85c50 -36 108 -60 173 -60c49 0 83 21 83 53c0 40 -45 53 -104 69c-112 29 -183 61 -184 153c0 97 80 163 195 163c71 0 142 -25 198 -62l-51 -89c-49 31 -102 47 -147 47 c-43 0 -76 -17 -76 -46c0 -33 27 -43 106 -66c87 -24 181 -54 181 -162c0 -99 -82 -163 -203 -163z" glyph-name="sacute" horiz-adv-x="500" unicode="ś"/><glyph d="M198 575l-103 144h79l76 -78l77 78h80l-105 -144h-104zM258 -12c-79 0 -164 28 -226 78l55 85c50 -36 108 -60 173 -60c49 0 83 21 83 53c0 40 -45 53 -104 69c-112 29 -183 61 -184 153c0 97 80 163 195 163c71 0 142 -25 198 -62l-51 -89c-49 31 -102 47 -147 47 c-43 0 -76 -17 -76 -46c0 -33 27 -43 106 -66c87 -24 181 -54 181 -162c0 -99 -82 -163 -203 -163z" glyph-name="scaron" horiz-adv-x="500" unicode="š"/><glyph d="M461 151c0 -91 -70 -153 -175 -162l-15 -33h5c42 0 72 -28 72 -67c0 -52 -45 -84 -105 -84c-36 0 -71 12 -92 29l24 52c19 -15 41 -23 62 -23c25 0 44 13 44 33c0 17 -11 29 -34 29c-11 0 -23 -4 -31 -10l-20 20l23 55c-67 8 -135 34 -187 76l55 85 c50 -36 108 -60 173 -60c49 0 83 21 83 53c0 40 -45 53 -104 69c-112 29 -183 61 -184 153c0 97 80 163 195 163c71 0 142 -25 198 -62l-51 -89c-49 31 -102 47 -147 47c-43 0 -76 -17 -76 -46c0 -33 27 -43 106 -66c87 -24 181 -54 181 -162z" glyph-name="scedilla" horiz-adv-x="500" unicode="ş"/><glyph d="M71 0v521c0 113 96 193 232 193c135 0 231 -80 231 -193c0 -70 -36 -125 -97 -158c79 -38 126 -101 126 -176c0 -110 -91 -187 -219 -187h-77v108h53c67 0 115 41 115 98s-48 98 -115 98h-53v102h34c61 0 105 42 105 92c0 54 -42 93 -105 93c-62 0 -106 -39 -106 -98 v-493h-124z" glyph-name="germandbls" horiz-adv-x="601" unicode="ß"/><glyph d="M325 111l35 -82c-29 -25 -71 -41 -110 -41c-86 0 -146 62 -146 149v279h-75v101h75v142h119v-142h117v-101h-117v-264c0 -35 22 -60 51 -60c21 0 40 8 51 19z" glyph-name="t" horiz-adv-x="388" unicode="t"/><glyph d="M470 699c39 0 66 -36 66 -87c0 -42 -23 -82 -77 -140l-37 28c24 23 40 49 46 75c-33 0 -60 28 -60 62c0 33 28 62 62 62zM274 92c21 0 40 8 51 19l35 -82c-29 -25 -71 -41 -110 -41c-86 0 -146 62 -146 149v279h-75v101h75v142h119v-142h117v-101h-117v-264 c0 -35 22 -60 51 -60z" glyph-name="tcaron" horiz-adv-x="388" unicode="ť"/><glyph d="M278 -44c42 0 72 -28 72 -67c0 -52 -45 -84 -105 -84c-36 0 -71 12 -92 29l24 52c19 -15 41 -23 62 -23c25 0 44 13 44 33c0 17 -11 29 -34 29c-11 0 -23 -4 -31 -10l-20 20l23 55c-70 13 -117 70 -117 147v279h-75v101h75v142h119v-142h117v-101h-117v-264 c0 -35 22 -60 51 -60c21 0 40 8 51 19l35 -82c-19 -17 -45 -29 -71 -36l-16 -37h5z" glyph-name="uni0163" horiz-adv-x="388" unicode="ţ"/><glyph d="M417 517h122v-517h-122v69c-32 -48 -92 -81 -160 -81c-113 0 -192 83 -192 200v329h118v-305c0 -70 45 -120 109 -120s117 43 125 98v327z" glyph-name="u" horiz-adv-x="606" unicode="u"/><glyph d="M437 705l-146 -130h-85l117 152zM417 517h122v-517h-122v69c-32 -48 -92 -81 -160 -81c-113 0 -192 83 -192 200v329h118v-305c0 -70 45 -120 109 -120s117 43 125 98v327z" glyph-name="uacute" horiz-adv-x="606" unicode="ú"/><glyph d="M302 654l-76 -79h-79l103 144h104l105 -144h-80zM417 517h122v-517h-122v69c-32 -48 -92 -81 -160 -81c-113 0 -192 83 -192 200v329h118v-305c0 -70 45 -120 109 -120s117 43 125 98v327z" glyph-name="ucircumflex" horiz-adv-x="606" unicode="û"/><glyph d="M199 588c-35 0 -62 28 -62 63c0 32 27 62 62 62c34 0 62 -30 62 -62c0 -35 -28 -63 -62 -63zM405 588c-36 0 -63 28 -63 63c0 32 27 62 63 62c34 0 62 -30 62 -62c0 -35 -28 -63 -62 -63zM417 517h122v-517h-122v69c-32 -48 -92 -81 -160 -81c-113 0 -192 83 -192 200 v329h118v-305c0 -70 45 -120 109 -120s117 43 125 98v327z" glyph-name="udieresis" horiz-adv-x="606" unicode="ü"/><glyph d="M387 575h-85l-146 130l114 22zM417 517h122v-517h-122v69c-32 -48 -92 -81 -160 -81c-113 0 -192 83 -192 200v329h118v-305c0 -70 45 -120 109 -120s117 43 125 98v327z" glyph-name="ugrave" horiz-adv-x="606" unicode="ù"/><glyph d="M366 705l-146 -130h-85l117 152zM443 575h-85l118 151l113 -22zM417 190v327h122v-517h-122v69c-32 -48 -92 -81 -160 -81c-113 0 -192 83 -192 200v329h118v-305c0 -70 45 -120 109 -120s117 43 125 98z" glyph-name="uhungarumlaut" horiz-adv-x="606" unicode="ű"/><glyph d="M469 661v-75h-334v75h334zM417 517h122v-517h-122v69c-32 -48 -92 -81 -160 -81c-113 0 -192 83 -192 200v329h118v-305c0 -70 45 -120 109 -120s117 43 125 98v327z" glyph-name="umacron" horiz-adv-x="606" unicode="ū"/><glyph d="M581 -79l28 -63c-23 -19 -53 -31 -88 -31c-65 0 -110 42 -110 110c0 24 8 46 21 63h-15v69c-32 -48 -92 -81 -160 -81c-113 0 -192 83 -192 200v329h118v-305c0 -70 45 -120 109 -120s117 43 125 98v327h122v-517h1c-29 0 -50 -20 -50 -49s19 -46 51 -46c17 0 31 7 40 16 z" glyph-name="uogonek" horiz-adv-x="606" unicode="ų"/><glyph d="M302 583c-60 0 -110 50 -110 111s50 110 110 110c61 0 110 -49 110 -110s-49 -111 -110 -111zM302 749c-30 0 -55 -25 -55 -55s25 -55 55 -55s55 25 55 55s-25 55 -55 55zM417 517h122v-517h-122v69c-32 -48 -92 -81 -160 -81c-113 0 -192 83 -192 200v329h118v-305 c0 -70 45 -120 109 -120s117 43 125 98v327z" glyph-name="uring" horiz-adv-x="606" unicode="ů"/><glyph d="M240 0l-222 517h129l150 -376l147 376h130l-219 -517h-115z" glyph-name="v" horiz-adv-x="592" unicode="v"/><glyph d="M199 0l-175 517h122l108 -353l115 353h102l116 -353l107 353h122l-174 -517h-111l-111 354l-110 -354h-111z" glyph-name="w" horiz-adv-x="839" unicode="w"/><glyph d="M377 575l117 152l114 -22l-146 -130h-85zM199 0l-175 517h122l108 -353l115 353h102l116 -353l107 353h122l-174 -517h-111l-111 354l-110 -354h-111z" glyph-name="wacute" horiz-adv-x="839" unicode="ẃ"/><glyph d="M265 575l103 144h104l105 -144h-80l-77 79l-76 -79h-79zM199 0l-175 517h122l108 -353l115 353h102l116 -353l107 353h122l-174 -517h-111l-111 354l-110 -354h-111z" glyph-name="wcircumflex" horiz-adv-x="839" unicode="ŵ"/><glyph d="M317 588c-35 0 -62 28 -62 63c0 32 27 62 62 62c34 0 62 -30 62 -62c0 -35 -28 -63 -62 -63zM523 588c-36 0 -63 28 -63 63c0 32 27 62 63 62c34 0 62 -30 62 -62c0 -35 -28 -63 -62 -63zM199 0l-175 517h122l108 -353l115 353h102l116 -353l107 353h122l-174 -517h-111 l-111 354l-110 -354h-111z" glyph-name="wdieresis" horiz-adv-x="839" unicode="ẅ"/><glyph d="M379 575l-146 130l114 22l117 -152h-85zM199 0l-175 517h122l108 -353l115 353h102l116 -353l107 353h122l-174 -517h-111l-111 354l-110 -354h-111z" glyph-name="wgrave" horiz-adv-x="839" unicode="ẁ"/><glyph d="M541 0h-135l-126 173l-127 -173h-133l194 264l-185 253h134l118 -161l118 161h133l-185 -252z" glyph-name="x" horiz-adv-x="561" unicode="x"/><glyph d="M172 -180c-39 0 -82 10 -113 27l26 88c22 -12 47 -19 66 -19c29 0 51 9 66 34l22 46l-219 521h129l151 -386l142 386h126l-219 -553c-39 -98 -99 -143 -177 -144z" glyph-name="y" horiz-adv-x="599" unicode="y"/><glyph d="M204 575l117 152l114 -22l-146 -130h-85zM172 -180c-39 0 -82 10 -113 27l26 88c22 -12 47 -19 66 -19c29 0 51 9 66 34l22 46l-219 521h129l151 -386l142 386h126l-219 -553c-39 -98 -99 -143 -177 -144z" glyph-name="yacute" horiz-adv-x="599" unicode="ý"/><glyph d="M145 575l103 144h104l105 -144h-80l-77 79l-76 -79h-79zM172 -180c-39 0 -82 10 -113 27l26 88c22 -12 47 -19 66 -19c29 0 51 9 66 34l22 46l-219 521h129l151 -386l142 386h126l-219 -553c-39 -98 -99 -143 -177 -144z" glyph-name="ycircumflex" horiz-adv-x="599" unicode="ŷ"/><glyph d="M197 588c-35 0 -62 28 -62 63c0 32 27 62 62 62c34 0 62 -30 62 -62c0 -35 -28 -63 -62 -63zM403 588c-36 0 -63 28 -63 63c0 32 27 62 63 62c34 0 62 -30 62 -62c0 -35 -28 -63 -62 -63zM172 -180c-39 0 -82 10 -113 27l26 88c22 -12 47 -19 66 -19c29 0 51 9 66 34 l22 46l-219 521h129l151 -386l142 386h126l-219 -553c-39 -98 -99 -143 -177 -144z" glyph-name="ydieresis" horiz-adv-x="599" unicode="ÿ"/><glyph d="M300 575l-146 130l114 22l117 -152h-85zM172 -180c-39 0 -82 10 -113 27l26 88c22 -12 47 -19 66 -19c29 0 51 9 66 34l22 46l-219 521h129l151 -386l142 386h126l-219 -553c-39 -98 -99 -143 -177 -144z" glyph-name="ygrave" horiz-adv-x="599" unicode="ỳ"/><glyph d="M46 0v89l274 321h-268v107h429l-1 -89l-275 -321h278v-107h-437z" glyph-name="z" horiz-adv-x="526" unicode="z"/><glyph d="M174 575l117 152l114 -22l-146 -130h-85zM46 0v89l274 321h-268v107h429l-1 -89l-275 -321h278v-107h-437z" glyph-name="zacute" horiz-adv-x="526" unicode="ź"/><glyph d="M218 575l-103 144h79l76 -78l77 78h80l-105 -144h-104zM46 0v89l274 321h-268v107h429l-1 -89l-275 -321h278v-107h-437z" glyph-name="zcaron" horiz-adv-x="526" unicode="ž"/><glyph d="M270 588c-35 0 -62 28 -62 63c0 32 27 62 62 62c34 0 62 -30 62 -62c0 -35 -28 -63 -62 -63zM46 0v89l274 321h-268v107h429l-1 -89l-275 -321h278v-107h-437z" glyph-name="zdotaccent" horiz-adv-x="526" unicode="ż"/><glyph d="M460 517h122v-517h-122v80c-41 -58 -103 -92 -179 -92c-137 0 -237 112 -237 271c0 158 100 270 237 270c76 0 138 -34 179 -92v80zM314 92c86 0 146 70 146 167s-60 166 -146 166c-87 0 -149 -69 -149 -166s62 -167 149 -167z" glyph-name="a.alt"/><glyph d="M468 705l-146 -130h-85l117 152zM460 517h122v-517h-122v80c-41 -58 -103 -92 -179 -92c-137 0 -237 112 -237 271c0 158 100 270 237 270c76 0 138 -34 179 -92v80zM314 92c86 0 146 70 146 167s-60 166 -146 166c-87 0 -149 -69 -149 -166s62 -167 149 -167z" glyph-name="aacute.alt"/><glyph d="M489 648c-43 -43 -99 -65 -156 -65s-112 22 -156 65l58 58c27 -27 63 -43 98 -43s71 16 98 43zM460 517h122v-517h-122v80c-41 -58 -103 -92 -179 -92c-137 0 -237 112 -237 271c0 158 100 270 237 270c76 0 138 -34 179 -92v80zM314 92c86 0 146 70 146 167 s-60 166 -146 166c-87 0 -149 -69 -149 -166s62 -167 149 -167z" glyph-name="abreve.alt"/><glyph d="M333 654l-76 -79h-79l103 144h104l105 -144h-80zM460 517h122v-517h-122v80c-41 -58 -103 -92 -179 -92c-137 0 -237 112 -237 271c0 158 100 270 237 270c76 0 138 -34 179 -92v80zM314 92c86 0 146 70 146 167s-60 166 -146 166c-87 0 -149 -69 -149 -166 s62 -167 149 -167z" glyph-name="acircumflex.alt"/><glyph d="M230 588c-35 0 -62 28 -62 63c0 32 27 62 62 62c34 0 62 -30 62 -62c0 -35 -28 -63 -62 -63zM436 588c-36 0 -63 28 -63 63c0 32 27 62 63 62c34 0 62 -30 62 -62c0 -35 -28 -63 -62 -63zM460 517h122v-517h-122v80c-41 -58 -103 -92 -179 -92c-137 0 -237 112 -237 271 c0 158 100 270 237 270c76 0 138 -34 179 -92v80zM314 92c86 0 146 70 146 167s-60 166 -146 166c-87 0 -149 -69 -149 -166s62 -167 149 -167z" glyph-name="adieresis.alt"/><glyph d="M418 575h-85l-146 130l114 22zM460 517h122v-517h-122v80c-41 -58 -103 -92 -179 -92c-137 0 -237 112 -237 271c0 158 100 270 237 270c76 0 138 -34 179 -92v80zM314 92c86 0 146 70 146 167s-60 166 -146 166c-87 0 -149 -69 -149 -166s62 -167 149 -167z" glyph-name="agrave.alt"/><glyph d="M500 661v-75h-334v75h334zM460 517h122v-517h-122v80c-41 -58 -103 -92 -179 -92c-137 0 -237 112 -237 271c0 158 100 270 237 270c76 0 138 -34 179 -92v80zM314 92c86 0 146 70 146 167s-60 166 -146 166c-87 0 -149 -69 -149 -166s62 -167 149 -167z" glyph-name="amacron.alt"/><glyph d="M623 -79l28 -63c-23 -19 -53 -31 -88 -31c-65 0 -110 42 -110 110c0 24 8 46 21 63h-14v80c-41 -58 -103 -92 -179 -92c-137 0 -237 112 -237 271c0 158 100 270 237 270c76 0 138 -34 179 -92v80h122v-517c-29 0 -50 -20 -50 -49s19 -46 51 -46c17 0 31 7 40 16zM314 92 c86 0 146 70 146 167s-60 166 -146 166c-87 0 -149 -69 -149 -166s62 -167 149 -167z" glyph-name="aogonek.alt"/><glyph d="M333 583c-60 0 -110 50 -110 111s50 110 110 110c61 0 110 -49 110 -110s-49 -111 -110 -111zM333 749c-30 0 -55 -25 -55 -55s25 -55 55 -55s55 25 55 55s-25 55 -55 55zM460 517h122v-517h-122v80c-41 -58 -103 -92 -179 -92c-137 0 -237 112 -237 271 c0 158 100 270 237 270c76 0 138 -34 179 -92v80zM314 92c86 0 146 70 146 167s-60 166 -146 166c-87 0 -149 -69 -149 -166s62 -167 149 -167z" glyph-name="aring.alt"/><glyph d="M268 629c-24 0 -38 -17 -45 -57l-63 9c10 84 43 128 106 128c57 0 95 -56 130 -56c24 0 38 18 45 58l64 -10c-10 -83 -44 -128 -106 -128c-58 0 -96 56 -131 56zM460 517h122v-517h-122v80c-41 -58 -103 -92 -179 -92c-137 0 -237 112 -237 271c0 158 100 270 237 270 c76 0 138 -34 179 -92v80zM314 92c86 0 146 70 146 167s-60 166 -146 166c-87 0 -149 -69 -149 -166s62 -167 149 -167z" glyph-name="atilde.alt"/><glyph d="M351 -12c-177 0 -302 147 -302 356c0 208 125 355 302 355c176 0 300 -147 300 -355c0 -209 -124 -356 -300 -356zM351 102c101 0 173 100 173 242s-72 241 -173 241c-102 0 -174 -99 -174 -241s72 -242 174 -242z" glyph-name="zero" horiz-adv-x="701" unicode="0"/><glyph d="M187 0v543l-118 -75l-51 88l193 131h100v-687h-124z" glyph-name="one" horiz-adv-x="394" unicode="1"/><glyph d="M45 0v102l253 202c87 70 118 122 118 178c0 65 -55 105 -117 105c-72 0 -124 -37 -174 -97l-81 75c65 85 148 134 259 134c136 0 240 -87 240 -214c0 -91 -42 -164 -160 -255l-144 -116h311v-114h-505z" glyph-name="two" horiz-adv-x="603" unicode="2"/><glyph d="M298 -12c-120 0 -212 49 -268 116l76 82c48 -54 114 -87 188 -87c82 0 133 41 133 101c0 61 -51 93 -148 93l-77 -1v108h77c81 -1 134 32 134 92c0 56 -54 95 -128 95c-68 0 -120 -33 -167 -85l-74 76c55 69 135 121 252 121c146 0 243 -78 243 -187 c0 -83 -56 -137 -130 -159c73 -17 145 -70 145 -163c0 -118 -101 -202 -256 -202z" glyph-name="three" horiz-adv-x="599" unicode="3"/><glyph d="M381 0v149h-339l-12 97l326 441h149v-431h95v-107h-95v-149h-124zM163 256h218v295z" glyph-name="four" horiz-adv-x="640" unicode="4"/><glyph d="M300 -12c-112 0 -196 42 -257 106l74 89c53 -52 116 -87 185 -87c84 0 137 54 137 121c0 70 -55 117 -137 117c-54 0 -101 -18 -140 -48l-85 36l10 365h440v-114h-323l-6 -177c35 24 80 42 139 42c122 0 227 -78 227 -216c0 -142 -107 -234 -264 -234z" glyph-name="five" horiz-adv-x="611" unicode="5"/><glyph d="M355 439c126 0 231 -80 231 -217c0 -136 -108 -234 -256 -234c-195 0 -282 146 -282 344c0 212 125 367 304 367c85 0 150 -30 205 -77l-61 -95c-42 37 -84 62 -145 62c-97 0 -166 -93 -174 -228c42 49 108 78 178 78zM324 94c84 0 135 60 135 123c0 75 -62 120 -137 120 c-66 0 -119 -37 -139 -95c15 -91 58 -148 141 -148z" glyph-name="six" horiz-adv-x="636" unicode="6"/><glyph d="M122 0l280 573h-351v114h496v-94l-284 -593h-141z" glyph-name="seven" horiz-adv-x="602" unicode="7"/><glyph d="M309 -12c-149 0 -267 73 -267 195c0 83 60 143 140 172c-71 30 -122 81 -122 159c0 118 120 185 249 185c133 0 250 -69 250 -185c0 -80 -53 -131 -122 -159c81 -31 140 -91 140 -172c0 -123 -120 -195 -268 -195zM309 400c59 3 127 38 127 98c0 54 -55 95 -127 95 s-126 -41 -126 -95c0 -61 69 -95 126 -98zM309 95c80 0 142 40 142 100c0 64 -78 102 -142 105c-63 -3 -142 -41 -142 -105c0 -60 61 -100 142 -100z" glyph-name="eight" horiz-adv-x="618" unicode="8"/><glyph d="M306 699c195 0 282 -146 282 -344c0 -212 -125 -367 -304 -367c-85 0 -150 30 -205 77l61 95c42 -37 84 -62 145 -62c97 0 166 93 174 228c-42 -49 -108 -78 -178 -78c-126 0 -231 80 -231 217c0 136 108 234 256 234zM314 350c66 0 119 37 139 95 c-15 91 -58 148 -141 148c-84 0 -135 -60 -135 -123c0 -75 62 -120 137 -120z" glyph-name="nine" horiz-adv-x="636" unicode="9"/><glyph d="M201 356c-19 0 -34 14 -34 30c0 38 14 80 19 118c-31 -23 -59 -56 -92 -75c-14 -9 -34 -3 -43 14c-10 16 -5 36 9 44c33 19 77 27 112 42c-36 15 -79 24 -112 43c-14 8 -19 27 -9 44c9 16 29 22 43 14c33 -19 62 -53 92 -76c-5 38 -19 80 -19 118c0 16 15 30 33 30 c19 0 34 -14 34 -30c0 -38 -15 -80 -20 -118c31 23 60 56 93 75c14 9 34 3 43 -14c10 -16 4 -36 -10 -44c-32 -19 -76 -27 -112 -42c36 -15 80 -24 112 -43c14 -8 20 -27 10 -44c-9 -16 -29 -22 -43 -14c-33 19 -62 53 -92 76c5 -38 20 -80 20 -118c0 -16 -15 -30 -34 -30z" glyph-name="asterisk" horiz-adv-x="401" unicode="*"/><glyph d="M336 -74l-346 817h131l346 -817h-131z" glyph-name="backslash" horiz-adv-x="446" unicode="\"/><glyph d="M141 367c-46 0 -80 36 -80 80c0 41 34 77 80 77c42 0 77 -36 77 -77c0 -44 -35 -80 -77 -80zM141 -12c-46 0 -80 36 -80 80c0 41 34 77 80 77c42 0 77 -36 77 -77c0 -44 -35 -80 -77 -80z" glyph-name="colon" horiz-adv-x="277" unicode=":"/><glyph d="M129 -142l-48 36c30 30 50 62 58 94c-42 0 -76 36 -76 79c0 42 35 78 78 78c51 0 84 -46 84 -109c0 -54 -29 -106 -96 -178z" glyph-name="comma" horiz-adv-x="283" unicode=","/><glyph d="M141 -12c-46 0 -80 36 -80 80c0 41 34 77 80 77c42 0 77 -36 77 -77c0 -44 -35 -80 -77 -80zM381 -12c-46 0 -80 36 -80 80c0 41 34 77 80 77c42 0 77 -36 77 -77c0 -44 -35 -80 -77 -80zM621 -12c-46 0 -80 36 -80 80c0 41 34 77 80 77c42 0 77 -36 77 -77 c0 -44 -35 -80 -77 -80z" glyph-name="ellipsis" horiz-adv-x="758" unicode="…"/><glyph d="M108 225l-29 462h142l-29 -462h-84zM150 -12c-46 0 -80 36 -80 80c0 41 34 77 80 77c42 0 77 -36 77 -77c0 -44 -35 -80 -77 -80z" glyph-name="exclam" horiz-adv-x="295" unicode="!"/><glyph d="M145 529c46 0 80 -36 80 -80c0 -41 -34 -77 -80 -77c-42 0 -77 36 -77 77c0 44 35 80 77 80zM187 292l29 -462h-142l29 462h84z" glyph-name="exclamdown" horiz-adv-x="295" unicode="¡"/><glyph d="M618 429h-104l-44 -173h105l-23 -90h-104l-42 -166h-93l42 166h-127l-42 -166h-94l42 166h-100l22 90h100l44 173h-102l22 90h103l42 168h94l-42 -168h127l42 168h93l-42 -168h103zM377 256l44 173h-127l-44 -173h127z" glyph-name="numbersign" horiz-adv-x="675" unicode="#"/><glyph d="M141 -12c-46 0 -80 36 -80 80c0 41 34 77 80 77c42 0 77 -36 77 -77c0 -44 -35 -80 -77 -80z" glyph-name="period" horiz-adv-x="277" unicode="."/><glyph d="M174 221v173c101 6 172 48 172 101c0 49 -44 92 -112 92c-58 0 -105 -31 -142 -72l-73 74c56 64 133 110 232 110c132 0 220 -83 220 -192c0 -90 -76 -170 -184 -194v-92h-113zM231 -12c-46 0 -80 36 -80 80c0 41 34 77 80 77c42 0 77 -36 77 -77c0 -44 -35 -80 -77 -80z" glyph-name="question" horiz-adv-x="505" unicode="?"/><glyph d="M274 529c46 0 80 -36 80 -80c0 -41 -34 -77 -80 -77c-42 0 -77 36 -77 77c0 44 35 80 77 80zM331 296v-173c-101 -6 -172 -48 -172 -101c0 -49 44 -92 112 -92c58 0 105 31 142 72l73 -74c-56 -64 -133 -110 -232 -110c-132 0 -220 83 -220 192c0 90 76 170 184 194v92 h113z" glyph-name="questiondown" horiz-adv-x="505" unicode="¿"/><glyph d="M104 405c-17 69 -39 161 -39 215c0 36 30 67 66 67s66 -31 66 -67c0 -54 -22 -146 -39 -215h-54zM324 405c-17 69 -39 161 -39 215c0 36 30 67 66 67s66 -31 66 -67c0 -54 -22 -146 -39 -215h-54z" glyph-name="quotedbl" horiz-adv-x="482" unicode="&quot;"/><glyph d="M104 405c-17 69 -39 161 -39 215c0 36 30 67 66 67s66 -31 66 -67c0 -54 -22 -146 -39 -215h-54z" glyph-name="quotesingle" horiz-adv-x="262" unicode="'"/><glyph d="M143 367c-46 0 -80 36 -80 80c0 41 34 77 80 77c42 0 77 -36 77 -77c0 -44 -35 -80 -77 -80zM129 -142l-48 36c30 30 50 62 58 94c-42 0 -76 36 -76 79c0 42 35 78 78 78c51 0 84 -46 84 -109c0 -54 -29 -106 -96 -178z" glyph-name="semicolon" horiz-adv-x="283" unicode=";"/><glyph d="M-21 -74l346 817h131l-346 -817h-131z" glyph-name="slash" horiz-adv-x="446" unicode="/"/><glyph d="M-2 -149v80h596v-80h-596z" glyph-name="underscore" horiz-adv-x="592" unicode="_"/><glyph d="M354 -166c-166 15 -222 67 -222 177l1 127c0 63 -28 89 -97 89v77c71 0 97 27 97 90l-1 126c0 111 57 162 222 177l10 -77c-112 -16 -134 -36 -134 -108l1 -133c0 -60 -26 -96 -77 -113c51 -18 77 -53 77 -114l-1 -132c0 -74 24 -93 134 -109z" glyph-name="braceleft" horiz-adv-x="402" unicode="{"/><glyph d="M48 -166l-9 77c110 16 134 35 134 109l-1 132c0 61 25 96 76 114c-50 17 -76 53 -76 113l1 133c0 72 -22 92 -134 108l9 77c165 -15 223 -66 223 -177l-1 -126c0 -63 26 -90 96 -90v-77c-69 0 -96 -26 -96 -89l1 -127c0 -110 -57 -162 -223 -177z" glyph-name="braceright" horiz-adv-x="402" unicode="}"/><glyph d="M74 -133v849h260v-83h-161v-683h161v-83h-260z" glyph-name="bracketleft" horiz-adv-x="379" unicode="["/><glyph d="M45 -133v83h161v683h-161v83h260v-849h-260z" glyph-name="bracketright" horiz-adv-x="379" unicode="]"/><glyph d="M273 -170c-138 106 -219 259 -219 435c0 177 81 329 219 435l63 -66c-105 -108 -158 -217 -158 -369c0 -151 53 -260 158 -368z" glyph-name="parenleft" horiz-adv-x="375" unicode="("/><glyph d="M101 -170l-63 67c106 108 159 217 159 368c0 152 -53 261 -159 369l63 66c139 -106 219 -258 219 -435c0 -176 -80 -329 -219 -435z" glyph-name="parenright" horiz-adv-x="375" unicode=")"/><glyph d="M49 222v105h780v-105h-780z" glyph-name="emdash" horiz-adv-x="878" unicode="—"/><glyph d="M49 222v105h475v-105h-475z" glyph-name="endash" horiz-adv-x="573" unicode="–"/><glyph d="M49 221v107h269v-107h-269z" glyph-name="hyphen" horiz-adv-x="367" unicode="-"/><glyph d="M154 686l48 -36c-30 -30 -50 -62 -58 -94c42 0 76 -36 76 -79c0 -42 -35 -78 -78 -78c-51 0 -84 46 -84 109c0 54 29 106 96 178zM394 686l48 -36c-30 -30 -50 -62 -58 -94c42 0 76 -36 76 -79c0 -42 -35 -78 -78 -78c-51 0 -84 46 -84 109c0 54 29 106 96 178z" glyph-name="quotedblleft" horiz-adv-x="523" unicode="“"/><glyph d="M129 400l-48 36c30 30 50 62 58 94c-42 0 -76 36 -76 79c0 42 35 78 78 78c51 0 84 -46 84 -109c0 -54 -29 -106 -96 -178zM369 400l-48 36c30 30 50 62 58 94c-42 0 -76 36 -76 79c0 42 35 78 78 78c51 0 84 -46 84 -109c0 -54 -29 -106 -96 -178z" glyph-name="quotedblright" horiz-adv-x="523" unicode="”"/><glyph d="M154 686l48 -36c-30 -30 -50 -62 -58 -94c42 0 76 -36 76 -79c0 -42 -35 -78 -78 -78c-51 0 -84 46 -84 109c0 54 29 106 96 178z" glyph-name="quoteleft" horiz-adv-x="283" unicode="‘"/><glyph d="M129 400l-48 36c30 30 50 62 58 94c-42 0 -76 36 -76 79c0 42 35 78 78 78c51 0 84 -46 84 -109c0 -54 -29 -106 -96 -178z" glyph-name="quoteright" horiz-adv-x="283" unicode="’"/><glyph glyph-name="space" horiz-adv-x="283"/><glyph d="M517 75c-43 -46 -100 -77 -167 -85v-64h-90v68c-123 26 -220 137 -220 265s96 237 220 264v66h90v-62c65 -8 122 -38 164 -82l-82 -72c-21 23 -50 41 -82 48v-325c33 7 63 25 85 50zM161 259c0 -70 41 -130 99 -155v309c-58 -25 -99 -85 -99 -154z" glyph-name="cent" horiz-adv-x="546" unicode="¢"/><glyph d="M583 199c0 -115 -83 -199 -228 -209v-64h-91v67c-92 11 -170 49 -233 107l72 89c47 -43 100 -73 161 -86v195c-123 32 -206 76 -206 194c0 108 83 191 206 206v61h91v-62c85 -9 152 -43 210 -93l-68 -92c-44 38 -92 64 -142 75v-188c137 -31 228 -78 228 -200zM184 503 c0 -40 26 -61 80 -80v166c-49 -12 -80 -47 -80 -86zM355 97c68 8 103 46 103 90c0 46 -32 67 -103 88v-178z" glyph-name="dollar" horiz-adv-x="626" unicode="$"/><glyph d="M406 102c67 0 128 31 171 80l88 -82c-66 -69 -158 -112 -259 -112c-159 0 -298 108 -345 252h-80v71h66c-1 11 -2 22 -2 33c0 16 1 32 3 47h-67v71h85c51 137 186 237 340 237c101 0 193 -43 259 -111l-89 -83c-42 49 -104 80 -170 80c-86 0 -162 -50 -203 -123h262v-71 h-288c-3 -15 -5 -31 -5 -47c0 -11 1 -22 2 -33h291v-71h-270c39 -81 120 -138 211 -138z" glyph-name="Euro" horiz-adv-x="690" unicode="€"/><glyph d="M252 102h353v-102h-556v53l79 49v155h-67v75h67v131c0 138 95 236 230 236c92 0 185 -47 224 -114l-85 -82c-17 48 -71 83 -129 83c-67 0 -116 -54 -116 -131v-123h176v-75h-176v-155z" glyph-name="sterling" horiz-adv-x="642" unicode="£"/><glyph d="M678 687l-229 -363h143v-75h-185v-69h185v-75h-185v-105h-127v105h-184v75h184v69h-184v75h142l-230 363h147l189 -311l192 311h142z" glyph-name="yen" horiz-adv-x="686" unicode="¥"/><glyph d="M537 386v-104h-183v-185h-109v185h-183v104h183v186h109v-186h183z" glyph-name="plus" horiz-adv-x="599" unicode="+"/><glyph d="M62 282v104h475v-104h-475z" glyph-name="minus" horiz-adv-x="599" unicode="−"/><glyph d="M483 205l-77 -77l-130 131l-130 -130l-74 74l130 130l-131 131l77 77l131 -131l129 129l74 -74l-129 -129z" glyph-name="multiply" horiz-adv-x="554" unicode="×"/><glyph d="M302 442c-41 0 -73 33 -73 73c0 37 32 70 73 70c38 0 70 -33 70 -70c0 -40 -32 -73 -70 -73zM62 282v104h475v-104h-475zM302 83c-41 0 -73 33 -73 73c0 37 32 70 73 70c38 0 70 -33 70 -70c0 -40 -32 -73 -70 -73z" glyph-name="divide" horiz-adv-x="599" unicode="÷"/><glyph d="M62 397v104h475v-104h-475zM62 171v104h475v-104h-475z" glyph-name="equal" horiz-adv-x="599" unicode="="/><glyph d="M72 84v103l361 157l-361 157v102l463 -211v-97z" glyph-name="greater" horiz-adv-x="590" unicode="&gt;"/><glyph d="M518 84l-463 211v97l463 211v-102l-361 -157l361 -157v-103z" glyph-name="less" horiz-adv-x="590" unicode="&lt;"/><glyph d="M292 296c-58 0 -96 56 -131 56c-24 0 -38 -17 -45 -57l-63 9c10 84 43 128 106 128c57 0 95 -56 130 -56c24 0 38 18 45 58l64 -10c-10 -83 -44 -128 -106 -128z" glyph-name="asciitilde" horiz-adv-x="450" unicode="~"/><glyph d="M208 345c-100 0 -167 77 -167 173c0 98 68 175 167 175c101 0 168 -78 168 -174c0 -99 -69 -174 -168 -174zM129 0l475 687h92l-475 -687h-92zM208 420c47 0 81 40 81 98c0 59 -35 100 -81 100c-47 0 -81 -40 -81 -100c0 -57 35 -98 81 -98zM614 -10 c-98 0 -167 76 -167 174c0 97 68 175 168 175c101 0 167 -79 167 -174c0 -99 -69 -175 -168 -175zM615 65c47 0 81 40 81 99c0 58 -35 99 -82 99s-80 -41 -80 -98c0 -59 34 -100 81 -100z" glyph-name="percent" horiz-adv-x="823" unicode="%"/><glyph d="M208 345c-100 0 -167 77 -167 173c0 98 68 175 167 175c101 0 168 -78 168 -174c0 -99 -69 -174 -168 -174zM129 0l475 687h92l-475 -687h-92zM208 420c47 0 81 40 81 98c0 59 -35 100 -81 100c-47 0 -81 -40 -81 -100c0 -57 35 -98 81 -98zM614 -10 c-98 0 -167 76 -167 174c0 97 68 175 168 175c101 0 167 -79 167 -174c0 -99 -69 -175 -168 -175zM994 -10c-99 0 -167 76 -167 174c0 97 68 175 168 175s167 -79 167 -174c0 -99 -70 -175 -168 -175zM615 65c47 0 81 40 81 99c0 58 -35 99 -82 99s-80 -41 -80 -98 c0 -59 34 -100 81 -100zM995 65c47 0 81 40 81 99c0 58 -35 99 -82 99c-48 0 -81 -41 -81 -98c0 -59 34 -100 82 -100z" glyph-name="perthousand" horiz-adv-x="1203" unicode="‰"/><glyph d="M425 -116c-212 0 -381 169 -381 375c0 226 190 416 418 416c211 0 375 -161 375 -350c0 -170 -103 -250 -196 -250c-66 0 -106 32 -121 82c-36 -48 -89 -81 -152 -81c-99 0 -168 72 -168 179c0 138 112 249 228 249c67 0 110 -34 133 -74l12 60l103 -8 c-32 -166 -52 -250 -52 -283c0 -37 23 -59 59 -59c53 0 114 56 114 185c0 172 -147 312 -337 312c-207 0 -376 -171 -376 -377c0 -186 151 -339 344 -339c81 0 144 19 214 61l20 -29c-75 -47 -147 -69 -237 -69zM402 163c76 0 127 63 135 145c6 66 -25 109 -88 109 c-79 0 -141 -73 -141 -155c0 -60 38 -99 94 -99z" glyph-name="at" horiz-adv-x="880" unicode="@"/><glyph d="M644 34l-104 -47l-78 81c-57 -51 -123 -80 -203 -80c-130 0 -226 74 -226 198c0 89 46 148 151 196c-38 53 -52 92 -52 143c0 94 81 170 188 170c106 0 183 -74 183 -169c0 -80 -55 -123 -159 -170c35 -41 73 -83 122 -135c27 40 51 86 70 135l93 -44 c-30 -61 -61 -116 -95 -163c32 -34 69 -72 110 -115zM322 604c-46 0 -81 -31 -81 -79c0 -34 15 -64 47 -103c76 31 107 54 107 103c0 45 -31 79 -73 79zM271 85c44 0 85 20 124 53c-68 71 -116 125 -155 171c-57 -31 -86 -68 -86 -117c0 -67 54 -107 117 -107z" glyph-name="ampersand" horiz-adv-x="676" unicode="&amp;"/><glyph d="M102 -74v817h88v-817h-88z" glyph-name="bar" horiz-adv-x="292" unicode="|"/><glyph d="M47 413l154 274h87l154 -274h-91l-107 195l-107 -195h-90z" glyph-name="asciicircum" horiz-adv-x="488" unicode="^"/><glyph d="M-151 -285l-37 28c24 23 40 49 46 75c-33 0 -60 28 -60 62c0 33 28 62 62 62c39 0 66 -36 66 -87c0 -42 -23 -82 -77 -140z" glyph-name="uni0326" horiz-adv-x="0" unicode="̦"/><glyph d="M63 575l117 152l114 -22l-146 -130h-85z" glyph-name="acute" horiz-adv-x="357" unicode="´"/><glyph d="M219 583c-57 0 -112 22 -156 65l58 58c27 -27 63 -43 98 -43s71 16 98 43l58 -58c-43 -43 -99 -65 -156 -65z" glyph-name="breve" horiz-adv-x="438" unicode="˘"/><glyph d="M166 575l-103 144h79l76 -78l77 78h80l-105 -144h-104z" glyph-name="caron" horiz-adv-x="438" unicode="ˇ"/><glyph d="M188 -44c42 0 72 -28 72 -67c0 -52 -45 -84 -105 -84c-36 0 -71 12 -92 29l24 52c19 -15 41 -23 62 -23c25 0 44 13 44 33c0 17 -11 29 -34 29c-11 0 -23 -4 -31 -10l-20 20l32 76h67l-24 -55h5z" glyph-name="cedilla" horiz-adv-x="323" unicode="¸"/><glyph d="M63 575l103 144h104l105 -144h-80l-77 79l-76 -79h-79z" glyph-name="circumflex" horiz-adv-x="438" unicode="ˆ"/><glyph d="M125 588c-35 0 -62 28 -62 63c0 32 27 62 62 62c34 0 62 -30 62 -62c0 -35 -28 -63 -62 -63zM331 588c-36 0 -63 28 -63 63c0 32 27 62 63 62c34 0 62 -30 62 -62c0 -35 -28 -63 -62 -63z" glyph-name="dieresis" horiz-adv-x="456" unicode="¨"/><glyph d="M125 588c-35 0 -62 28 -62 63c0 32 27 62 62 62c34 0 62 -30 62 -62c0 -35 -28 -63 -62 -63z" glyph-name="dotaccent" horiz-adv-x="250" unicode="˙"/><glyph d="M209 575l-146 130l114 22l117 -152h-85z" glyph-name="grave" horiz-adv-x="357" unicode="`"/><glyph d="M63 575l117 152l114 -22l-146 -130h-85zM286 575l118 151l113 -22l-146 -129h-85z" glyph-name="hungarumlaut" horiz-adv-x="581" unicode="˝"/><glyph d="M63 586v75h334v-75h-334z" glyph-name="macron" horiz-adv-x="460" unicode="¯"/><glyph d="M173 -173c-65 0 -110 42 -110 110c0 40 22 73 52 90l77 -27c-29 0 -50 -20 -50 -49s19 -46 51 -46c17 0 31 7 40 16l28 -63c-23 -19 -53 -31 -88 -31z" glyph-name="ogonek" horiz-adv-x="324" unicode="˛"/><glyph d="M173 583c-60 0 -110 50 -110 111s50 110 110 110c61 0 110 -49 110 -110s-49 -111 -110 -111zM173 639c30 0 55 25 55 55s-25 55 -55 55s-55 -25 -55 -55s25 -55 55 -55z" glyph-name="ring" horiz-adv-x="346" unicode="˚"/><glyph d="M290 573c-58 0 -96 56 -131 56c-24 0 -38 -17 -45 -57l-63 9c10 84 43 128 106 128c57 0 95 -56 130 -56c24 0 38 18 45 58l64 -10c-10 -83 -44 -128 -106 -128z" glyph-name="tilde" horiz-adv-x="446" unicode="˜"/><glyph d="M70 0v699h122v-699h-122z" glyph-name="ascender"/><glyph d="M70 -172v689h122v-689h-122z" glyph-name="descender"/></font>
</defs>
</svg>
