<svg xmlns="http://www.w3.org/2000/svg" width="196" height="65" fill="none" viewBox="0 0 196 65"><path fill="#4458DD" d="M38.6427 3.22597C41.974 5.89098 45.6384 11.7762 45.6384 11.7762L41.974 8.77808C41.974 8.77808 40.0245 7.5062 38.6427 6.89036C37.0388 6.17525 36.1391 5.70843 34.4231 5.33577C31.7958 4.76502 30.084 4.47031 27.5385 5.33577C25.8062 5.92474 24.676 6.34381 23.541 7.7787C22.7705 8.75254 22.4336 9.44456 22.2084 10.6658C22.0432 11.5612 22.0974 12.9977 22.0974 12.9977C22.0974 12.9977 22.8534 14.4821 23.541 15.4406C24.7753 17.1609 26.1791 17.8582 27.0943 19.8823C28.4361 22.85 28.539 24.483 27.5385 28.2105C25.9792 34.0189 22.7124 36.6261 17.8778 40.203C12.932 43.8623 3.22022 45.9772 3.22022 45.9772L16.7858 33.2074C23.4523 25.9301 28.7295 17.8012 21.8753 15.4406C18.0177 14.1121 11.4373 14.9964 11.4373 14.9964C11.4373 14.9964 17.1005 12.8866 17.8778 12.3314C18.6551 11.7762 17.7668 8.66704 17.7668 8.66704C17.7668 8.66704 17.4632 6.90769 17.8778 5.89098C18.3004 4.85474 18.5596 4.26799 19.3213 3.44806C20.4562 2.22659 20.8804 2.06847 21.8753 1.4493C22.3366 1.16214 22.7059 1.10218 23.2078 0.894084C23.8297 0.636466 24.2145 0.477232 24.8735 0.338873C26.3643 0.0257342 27.1258 -0.0189048 28.6489 0.00574658C32.723 0.0719277 35.3114 0.560958 38.6427 3.22597Z"/><path fill="#4458DD" d="M43.7506 21.4368C42.5532 18.599 39.1979 14.9964 39.1979 14.9964C39.1979 14.9964 40.721 18.1549 41.1967 20.3264C41.6251 22.2823 41.6115 23.4323 41.6408 25.4344C41.6892 28.7479 41.745 30.7118 40.7525 33.8736C39.9219 36.5195 39.0642 37.8913 37.5323 40.203C35.2615 43.6295 33.4559 45.2136 30.3145 47.8649C27.2078 50.4868 21.6532 53.6391 21.6532 53.6391C21.6532 53.6391 25.8953 52.4203 28.4268 51.1962C31.1995 49.8554 32.6806 48.8956 35.0893 46.9766C37.9678 44.6833 39.5735 43.2475 41.6408 40.203L41.6761 40.151C42.9516 38.2728 43.708 37.1589 44.4169 34.984C45.2419 32.4525 45.3181 30.8701 45.1942 28.2104C45.0683 25.5088 44.8022 23.9286 43.7506 21.4368Z"/><path fill="#4458DD" d="M2.99814 53.9722L6.99566 47.1986C6.99566 47.1986 13.6582 46.4214 19.4324 44.5336C25.2066 42.6459 32.2022 37.649 32.2022 37.649C32.2022 37.649 26.3632 44.7015 21.8753 47.7539C15.4571 52.1187 2.99814 53.9722 2.99814 53.9722ZM3.44231 61.301C1.96678 62.5482 0 64.8544 0 64.8544C0 64.8544 10.9283 64.8286 15.3238 60.4127C17.3441 58.383 19.2103 54.1943 19.2103 54.1943C19.2103 54.1943 14.8819 54.8026 12.3257 55.8599C10.4964 56.6166 9.46369 57.051 7.77296 58.0808C5.98562 59.1694 5.04065 59.9501 3.44231 61.301Z"/><path fill="#4458DD" d="M27.3164 12.3314C28.4203 12.3314 29.3151 11.4365 29.3151 10.3326C29.3151 9.22874 28.4203 8.33387 27.3164 8.33387C26.2125 8.33387 25.3176 9.22874 25.3176 10.3326C25.3176 11.4365 26.2125 12.3314 27.3164 12.3314Z"/><path fill="#fff" d="M46.2842 47.3797V43.9289C47.2154 43.9107 47.9366 43.8742 48.4478 43.8194C48.9773 43.7464 49.3607 43.5912 49.5981 43.3538C49.8354 43.1165 49.9724 42.7422 50.0089 42.2309C50.0637 41.7197 50.091 41.0259 50.091 40.1495V28.5374H54.8564V38.9171C54.8564 40.5421 54.8199 41.884 54.7469 42.943C54.6738 44.002 54.4912 44.8327 54.1991 45.4352C53.9252 46.0378 53.4779 46.4759 52.8571 46.7498C52.2546 47.0237 51.4148 47.1971 50.3375 47.2702C49.2786 47.3432 47.9275 47.3797 46.2842 47.3797Z"/><path fill="#fff" d="M60.2037 47.5988C59.3274 47.5988 58.5879 47.4619 57.9854 47.188C57.3829 46.9141 56.9264 46.4668 56.616 45.846C56.3239 45.2253 56.1778 44.4128 56.1778 43.4086C56.1778 42.3496 56.2965 41.5097 56.5339 40.889C56.7895 40.2499 57.2368 39.7935 57.8758 39.5196C58.5149 39.2457 59.4186 39.1088 60.5872 39.1088C60.7515 39.1088 60.9797 39.1179 61.2718 39.1362C61.5822 39.1362 61.9291 39.1453 62.3125 39.1636C62.696 39.1636 63.0794 39.1727 63.4628 39.191C63.8462 39.191 64.1931 39.2001 64.5035 39.2184V38.698C64.5035 38.1685 64.4579 37.7577 64.3666 37.4656C64.2936 37.1735 64.1384 36.9635 63.901 36.8357C63.6819 36.6896 63.3441 36.6075 62.8877 36.5892C62.4312 36.5527 61.8287 36.5344 61.0801 36.5344C60.6602 36.5344 60.1946 36.5435 59.6834 36.5618C59.1904 36.5801 58.6974 36.6075 58.2045 36.644C57.7298 36.6622 57.3281 36.6896 56.9994 36.7261V33.6314C57.748 33.5036 58.5879 33.4032 59.5191 33.3301C60.4685 33.2388 61.4635 33.1932 62.5043 33.1932C63.6728 33.1932 64.6405 33.2662 65.4073 33.4123C66.1924 33.5584 66.8223 33.7866 67.297 34.097C67.7717 34.3891 68.1186 34.7634 68.3377 35.2198C68.5751 35.6763 68.7303 36.2149 68.8033 36.8357C68.8763 37.4565 68.9128 38.1594 68.9128 38.9445V47.3797H64.6952L64.5857 45.7365H64.3666C64.0197 46.2842 63.618 46.695 63.1615 46.9689C62.7051 47.2428 62.2213 47.4162 61.71 47.4893C61.1988 47.5623 60.6967 47.5988 60.2037 47.5988ZM62.2852 44.4767C62.6138 44.4767 62.8968 44.4584 63.1342 44.4219C63.3898 44.3671 63.5997 44.285 63.7641 44.1754C63.9466 44.0476 64.0927 43.8924 64.2023 43.7098C64.2936 43.509 64.3666 43.2625 64.4214 42.9704C64.4761 42.6783 64.5035 42.3314 64.5035 41.9297V41.4093H61.9565C61.5001 41.4093 61.1532 41.4458 60.9158 41.5189C60.6785 41.5737 60.5141 41.7197 60.4228 41.9571C60.3498 42.1762 60.3133 42.5231 60.3133 42.9978C60.3133 43.3995 60.3589 43.7098 60.4502 43.9289C60.5415 44.148 60.7241 44.2941 60.998 44.3671C61.2901 44.4402 61.7192 44.4767 62.2852 44.4767Z"/><path fill="#fff" d="M76.565 53.0215C75.999 53.0215 75.4147 53.0032 74.8122 52.9667C74.2097 52.9484 73.6346 52.9119 73.0868 52.8571C72.5573 52.8024 72.0917 52.7476 71.6901 52.6928V49.6529C72.2561 49.6529 72.7582 49.6529 73.1964 49.6529C73.6528 49.6711 74.0636 49.6802 74.4288 49.6802C74.8122 49.6802 75.1682 49.6802 75.4969 49.6802C76.355 49.6802 77.0306 49.6437 77.5235 49.5707C78.0165 49.4977 78.3725 49.3607 78.5916 49.1599C78.8107 48.959 78.9477 48.6487 79.0024 48.2287C79.0572 47.827 79.0846 47.2976 79.0846 46.6403V45.5174H78.8655C78.6099 45.9556 78.2904 46.3116 77.9069 46.5855C77.5235 46.8411 77.0762 47.0328 76.565 47.1606C76.072 47.2702 75.5243 47.3249 74.9218 47.3249C73.9906 47.3249 73.242 47.2154 72.676 46.9963C72.11 46.7589 71.6809 46.412 71.3888 45.9556C71.0967 45.4809 70.905 44.9149 70.8137 44.2576C70.7224 43.582 70.6767 42.7969 70.6767 41.9023V33.4123H75.0587V40.5603C75.0587 41.3089 75.0769 41.9023 75.1135 42.3405C75.1682 42.7604 75.2595 43.0708 75.3873 43.2717C75.5151 43.4725 75.7068 43.6003 75.9625 43.6551C76.2181 43.7098 76.565 43.7372 77.0032 43.7372C77.4779 43.7372 77.8522 43.6916 78.126 43.6003C78.4182 43.4907 78.6281 43.3173 78.7559 43.0799C78.8838 42.8243 78.9659 42.4866 79.0024 42.0666C79.0572 41.6284 79.0846 41.0898 79.0846 40.4508V33.4123H83.4939V45.8187C83.4939 47.0419 83.43 48.1009 83.3022 48.9956C83.1744 49.9085 82.8914 50.657 82.4532 51.2413C82.015 51.8438 81.3212 52.2911 80.3718 52.5833C79.4406 52.8754 78.1717 53.0215 76.565 53.0215Z"/><path fill="#fff" d="M97.6462 47.5988C96.9159 47.5988 96.1217 47.5806 95.2635 47.544C94.4237 47.5075 93.5929 47.4528 92.7713 47.3797C91.968 47.3067 91.2468 47.2337 90.6077 47.1606V43.6277C91.2833 43.6825 91.9588 43.7372 92.6344 43.792C93.3282 43.8468 93.9855 43.8833 94.6062 43.9016C95.227 43.9198 95.7474 43.9289 96.1673 43.9289C97.0437 43.9289 97.7101 43.9016 98.1666 43.8468C98.623 43.7737 98.9608 43.6733 99.1799 43.5455C99.326 43.4177 99.4264 43.2808 99.4812 43.1347C99.5542 42.9887 99.5998 42.8152 99.6181 42.6144C99.6363 42.4135 99.6455 42.1853 99.6455 41.9297C99.6455 41.5463 99.6181 41.245 99.5633 41.0259C99.5268 40.7886 99.4355 40.606 99.2894 40.4782C99.1616 40.3504 98.9608 40.2591 98.6869 40.2043C98.4131 40.1313 98.057 40.0674 97.6188 40.0126L93.7572 39.5196C93.0087 39.4283 92.397 39.2457 91.9223 38.9719C91.4476 38.6797 91.0733 38.2963 90.7994 37.8216C90.5256 37.3469 90.3339 36.79 90.2243 36.151C90.1148 35.4937 90.06 34.7634 90.06 33.96C90.06 32.7185 90.2426 31.7325 90.6077 31.0022C90.9729 30.2536 91.475 29.6876 92.114 29.3042C92.7713 28.9025 93.529 28.6378 94.3871 28.51C95.2635 28.3822 96.213 28.3183 97.2354 28.3183C97.9657 28.3183 98.7234 28.3457 99.5085 28.4004C100.294 28.437 101.033 28.5009 101.727 28.5922C102.421 28.6652 102.996 28.7565 103.452 28.866V32.3168C102.996 32.2438 102.457 32.189 101.836 32.1525C101.234 32.0977 100.604 32.0612 99.9467 32.0429C99.2894 32.0064 98.6687 31.9882 98.0844 31.9882C97.3723 31.9882 96.8063 32.0155 96.3864 32.0703C95.9665 32.1068 95.6378 32.189 95.4005 32.3168C95.1449 32.4629 94.9805 32.6546 94.9075 32.8919C94.8527 33.1293 94.8253 33.4305 94.8253 33.7957C94.8253 34.2522 94.8619 34.6082 94.9349 34.8638C95.0079 35.1012 95.1722 35.2655 95.4279 35.3568C95.6835 35.4481 96.076 35.5302 96.6055 35.6033L100.358 36.0415C100.869 36.0962 101.334 36.1875 101.754 36.3153C102.192 36.4431 102.585 36.644 102.932 36.9178C103.297 37.1917 103.598 37.5843 103.836 38.0955C103.964 38.3328 104.064 38.625 104.137 38.9719C104.21 39.3005 104.274 39.6839 104.329 40.1221C104.383 40.5603 104.411 41.0533 104.411 41.601C104.411 42.6783 104.301 43.5912 104.082 44.3398C103.863 45.0701 103.553 45.6543 103.151 46.0925C102.749 46.5125 102.266 46.8411 101.7 47.0785C101.134 47.2976 100.504 47.4345 99.8098 47.4893C99.1342 47.5623 98.4131 47.5988 97.6462 47.5988Z"/><path fill="#fff" d="M111.866 47.5988C110.624 47.5988 109.593 47.5258 108.771 47.3797C107.95 47.2337 107.301 46.9963 106.827 46.6677C106.352 46.339 106.005 45.9008 105.786 45.3531C105.567 44.8053 105.421 44.1207 105.348 43.299C105.293 42.4774 105.266 41.5006 105.266 40.3686C105.266 39.2366 105.293 38.2689 105.348 37.4656C105.421 36.644 105.567 35.9593 105.786 35.4115C106.005 34.8638 106.352 34.4256 106.827 34.097C107.301 33.7683 107.95 33.5401 108.771 33.4123C109.593 33.2662 110.624 33.1932 111.866 33.1932C113.126 33.1932 114.166 33.2662 114.988 33.4123C115.81 33.5401 116.458 33.7683 116.933 34.097C117.407 34.4256 117.754 34.8638 117.973 35.4115C118.192 35.9593 118.329 36.644 118.384 37.4656C118.457 38.2689 118.494 39.2366 118.494 40.3686C118.494 41.5006 118.457 42.4774 118.384 43.299C118.329 44.1207 118.192 44.8053 117.973 45.3531C117.754 45.9008 117.407 46.339 116.933 46.6677C116.458 46.9963 115.81 47.2337 114.988 47.3797C114.166 47.5258 113.126 47.5988 111.866 47.5988ZM111.866 44.2576C112.414 44.2576 112.843 44.2211 113.153 44.148C113.463 44.075 113.683 43.9107 113.81 43.6551C113.938 43.3995 114.011 43.0069 114.029 42.4774C114.066 41.9479 114.084 41.245 114.084 40.3686C114.084 39.4922 114.066 38.7984 114.029 38.2872C114.011 37.776 113.938 37.3926 113.81 37.1369C113.683 36.8813 113.463 36.717 113.153 36.644C112.843 36.5709 112.414 36.5344 111.866 36.5344C111.318 36.5344 110.889 36.5709 110.579 36.644C110.287 36.717 110.077 36.8813 109.949 37.1369C109.821 37.3926 109.739 37.776 109.702 38.2872C109.684 38.7984 109.675 39.4922 109.675 40.3686C109.675 41.245 109.684 41.9479 109.702 42.4774C109.739 43.0069 109.821 43.3995 109.949 43.6551C110.077 43.9107 110.287 44.075 110.579 44.148C110.889 44.2211 111.318 44.2576 111.866 44.2576Z"/><path fill="#fff" d="M121.212 47.3797V36.7535H118.637V33.4123H121.212V32.4537C121.212 31.3948 121.275 30.5366 121.403 29.8793C121.531 29.2038 121.759 28.6743 122.088 28.2909C122.417 27.9075 122.873 27.6336 123.457 27.4693C124.06 27.2867 124.808 27.1772 125.703 27.1406C126.616 27.0859 127.702 27.0585 128.962 27.0585V30.0711C128.214 30.0711 127.611 30.0893 127.155 30.1258C126.716 30.1624 126.388 30.2445 126.169 30.3723C125.95 30.4819 125.803 30.6553 125.73 30.8927C125.676 31.1118 125.648 31.4313 125.648 31.8512V33.4123H128.962V36.7535H125.648V47.3797H121.212Z"/><path fill="#fff" d="M131.095 47.3797V36.7535H128.548V33.4123H131.095V29.359H135.532V33.4123H138.572L139.25 36.7535H135.532V47.3797H131.095Z"/><path fill="#fff" d="M141.563 47.3797L138.003 33.4123H142.385L144.384 42.9704H144.63L147.068 33.4123H151.121L153.586 42.9704H153.86L155.804 33.4123H160.077L156.516 47.3797H151.121L149.177 40.0674H148.903L146.986 47.3797H141.563Z"/><path fill="#fff" d="M163.774 47.5988C162.898 47.5988 162.158 47.4619 161.556 47.188C160.953 46.9141 160.497 46.4668 160.186 45.846C159.894 45.2253 159.748 44.4128 159.748 43.4086C159.748 42.3496 159.867 41.5097 160.104 40.889C160.36 40.2499 160.807 39.7935 161.446 39.5196C162.085 39.2457 162.989 39.1088 164.158 39.1088C164.322 39.1088 164.55 39.1179 164.842 39.1362C165.153 39.1362 165.5 39.1453 165.883 39.1636C166.266 39.1636 166.65 39.1727 167.033 39.191C167.417 39.191 167.764 39.2001 168.074 39.2184V38.698C168.074 38.1685 168.028 37.7577 167.937 37.4656C167.864 37.1735 167.709 36.9635 167.471 36.8357C167.252 36.6896 166.915 36.6075 166.458 36.5892C166.002 36.5527 165.399 36.5344 164.651 36.5344C164.231 36.5344 163.765 36.5435 163.254 36.5618C162.761 36.5801 162.268 36.6075 161.775 36.644C161.3 36.6622 160.898 36.6896 160.57 36.7261V33.6314C161.318 33.5036 162.158 33.4032 163.089 33.3301C164.039 33.2388 165.034 33.1932 166.075 33.1932C167.243 33.1932 168.211 33.2662 168.978 33.4123C169.763 33.5584 170.393 33.7866 170.867 34.097C171.342 34.3891 171.689 34.7634 171.908 35.2198C172.145 35.6763 172.301 36.2149 172.374 36.8357C172.447 37.4565 172.483 38.1594 172.483 38.9445V47.3797H168.266L168.156 45.7365H167.937C167.59 46.2842 167.188 46.695 166.732 46.9689C166.275 47.2428 165.792 47.4162 165.28 47.4893C164.769 47.5623 164.267 47.5988 163.774 47.5988ZM165.856 44.4767C166.184 44.4767 166.467 44.4584 166.705 44.4219C166.96 44.3671 167.17 44.285 167.334 44.1754C167.517 44.0476 167.663 43.8924 167.773 43.7098C167.864 43.509 167.937 43.2625 167.992 42.9704C168.047 42.6783 168.074 42.3314 168.074 41.9297V41.4093H165.527C165.07 41.4093 164.724 41.4458 164.486 41.5189C164.249 41.5737 164.085 41.7197 163.993 41.9571C163.92 42.1762 163.884 42.5231 163.884 42.9978C163.884 43.3995 163.929 43.7098 164.021 43.9289C164.112 44.148 164.294 44.2941 164.568 44.3671C164.86 44.4402 165.29 44.4767 165.856 44.4767Z"/><path fill="#fff" d="M174.247 47.3797V33.4123H178.41L178.52 35.795H178.766C179.022 35.1194 179.341 34.5899 179.725 34.2065C180.126 33.8231 180.61 33.5584 181.176 33.4123C181.742 33.2662 182.399 33.1932 183.148 33.1932V37.2191C181.998 37.2191 181.094 37.3652 180.437 37.6573C179.779 37.9494 179.314 38.4515 179.04 39.1636C178.766 39.8574 178.629 40.8342 178.629 42.094V47.3797H174.247Z"/><path fill="#fff" d="M190.221 47.5988C188.907 47.5988 187.82 47.5167 186.962 47.3523C186.104 47.188 185.419 46.9324 184.908 46.5855C184.415 46.2203 184.041 45.7548 183.785 45.1888C183.548 44.6228 183.393 43.9472 183.32 43.1621C183.265 42.377 183.238 41.4641 183.238 40.4234C183.238 39.1636 183.292 38.0772 183.402 37.1643C183.53 36.2514 183.804 35.5028 184.224 34.9186C184.643 34.3343 185.292 33.9053 186.168 33.6314C187.063 33.3393 188.268 33.1932 189.783 33.1932C191.006 33.1932 192.001 33.2845 192.768 33.4671C193.535 33.6314 194.138 33.8961 194.576 34.2613C195.032 34.6082 195.352 35.0646 195.534 35.6306C195.735 36.1966 195.863 36.8813 195.918 37.6847C195.973 38.4698 196 39.3827 196 40.4234V41.4915H187.592C187.592 42.1123 187.62 42.6144 187.674 42.9978C187.729 43.3629 187.875 43.6368 188.113 43.8194C188.35 44.002 188.715 44.1298 189.208 44.2028C189.701 44.2576 190.386 44.285 191.262 44.285C191.609 44.285 192.02 44.2758 192.494 44.2576C192.969 44.2393 193.462 44.2119 193.973 44.1754C194.503 44.1389 194.996 44.1024 195.452 44.0659V47.1332C195.051 47.2245 194.558 47.3067 193.973 47.3797C193.407 47.4528 192.796 47.5075 192.138 47.544C191.481 47.5806 190.842 47.5988 190.221 47.5988ZM191.865 39.6566V39.2184C191.865 38.5611 191.828 38.0407 191.755 37.6573C191.7 37.2739 191.591 36.9909 191.426 36.8083C191.28 36.6075 191.07 36.4796 190.796 36.4249C190.523 36.3701 190.176 36.3427 189.756 36.3427C189.281 36.3427 188.898 36.3792 188.605 36.4523C188.332 36.507 188.122 36.6348 187.976 36.8357C187.83 37.0365 187.729 37.3286 187.674 37.7121C187.62 38.0955 187.592 38.5976 187.592 39.2184H192.33L191.865 39.6566Z"/></svg>