<svg xmlns="http://www.w3.org/2000/svg" width="4087" height="5807" fill="none" viewBox="0 0 4087 5807"><path fill="#4458DD" d="M3460.03 288.851C3758.31 527.473 4086.42 1054.43 4086.42 1054.43L3758.31 785.982C3758.31 785.982 3583.76 672.099 3460.03 616.957C3316.42 552.927 3235.87 511.128 3082.21 477.76C2846.97 426.655 2693.69 400.268 2465.77 477.76C2310.66 530.496 2209.47 568.019 2107.84 696.498C2038.85 783.695 2008.69 845.657 1988.52 955.006C1973.73 1035.18 1978.58 1163.8 1978.58 1163.8C1978.58 1163.8 2046.27 1296.71 2107.84 1382.54C2218.36 1536.57 2344.05 1599.01 2426 1780.24C2546.15 2045.97 2555.35 2192.19 2465.77 2525.94C2326.16 3046.02 2033.64 3279.47 1600.76 3599.74C1157.92 3927.39 288.336 4116.76 288.336 4116.76L1502.99 2973.36C2099.9 2321.76 2572.41 1593.9 1958.7 1382.54C1613.29 1263.59 1024.09 1342.77 1024.09 1342.77C1024.09 1342.77 1531.16 1153.86 1600.76 1104.15C1670.36 1054.43 1590.82 776.039 1590.82 776.039C1590.82 776.039 1563.64 618.508 1600.76 527.473C1638.6 434.689 1661.81 382.152 1730.02 308.736C1831.63 199.367 1869.61 185.209 1958.7 129.769C2000 104.057 2033.07 98.688 2078.01 80.0555C2133.69 56.9886 2168.15 42.7309 2227.15 30.3424C2360.64 2.30422 2428.82 -1.69272 2565.2 0.514544C2929.99 6.44035 3161.75 50.2277 3460.03 288.851Z"/><path fill="#4458DD" d="M3917.39 1919.44C3810.17 1665.34 3509.74 1342.76 3509.74 1342.76C3509.74 1342.76 3646.12 1625.57 3688.71 1820.01C3727.07 1995.14 3725.86 2098.1 3728.48 2277.37C3732.82 2574.06 3737.81 2749.9 3648.94 3033.01C3574.57 3269.92 3497.77 3392.75 3360.61 3599.74C3157.28 3906.55 2995.61 4048.39 2714.33 4285.78C2436.16 4520.54 1938.81 4802.8 1938.81 4802.8C1938.81 4802.8 2318.64 4693.66 2545.31 4584.06C2793.58 4464.01 2926.19 4378.07 3141.87 4206.24C3399.6 4000.9 3543.37 3872.34 3728.48 3599.74L3731.64 3595.08C3845.84 3426.92 3913.57 3327.17 3977.05 3132.43C4050.92 2905.76 4057.74 2764.08 4046.65 2525.93C4035.37 2284.03 4011.55 2142.55 3917.39 1919.44Z"/><path fill="#4458DD" d="M268.451 4832.62L626.385 4226.12C626.385 4226.12 1222.94 4156.53 1739.96 3987.5C2256.97 3818.48 2883.36 3371.06 2883.36 3371.06C2883.36 3371.06 2360.54 4002.53 1958.7 4275.84C1384.01 4666.66 268.451 4832.62 268.451 4832.62ZM308.221 5488.84C176.104 5600.51 0 5807 0 5807C0 5807 978.513 5804.69 1372.08 5409.3C1552.98 5227.56 1720.07 4852.51 1720.07 4852.51C1720.07 4852.51 1332.51 4906.97 1103.63 5001.65C939.836 5069.4 847.37 5108.29 695.983 5200.5C535.947 5297.98 451.335 5367.87 308.221 5488.84Z"/><path fill="#4458DD" d="M2445.88 1104.14C2544.73 1104.14 2624.85 1024.01 2624.85 925.174C2624.85 826.333 2544.73 746.207 2445.88 746.207C2347.04 746.207 2266.92 826.333 2266.92 925.174C2266.92 1024.01 2347.04 1104.14 2445.88 1104.14Z"/></svg>