<svg width="205" height="100" viewBox="0 0 205 100" fill="none" xmlns="http://www.w3.org/2000/svg">
<mask id="mask0_181_43" style="mask-type:luminance" maskUnits="userSpaceOnUse" x="0" y="0" width="205" height="100">
<path d="M0.338867 99.8232H204.407V0.336182H0.338867V99.8232Z" fill="white"/>
</mask>
<g mask="url(#mask0_181_43)">
<path d="M175.43 58.9218H184.08C186.183 58.9218 187.842 59.4512 189.045 60.4973C190.261 61.5435 190.869 63.0308 190.869 64.9341C190.869 66.8626 190.21 68.4256 188.893 69.5852C187.626 70.6943 185.993 71.2363 183.979 71.2363H175.43V58.9218ZM175.43 93.0169V78.2066H184.878C189.387 78.2066 193.009 77.047 195.732 74.7278C198.582 72.2951 200 69.0432 200 64.9593C200 60.9385 198.772 57.7622 196.289 55.4177C193.82 53.1111 190.375 51.9641 185.98 51.9641H166.603V93.0169H175.43ZM127.443 77.0092C127.443 82.1896 128.811 86.2483 131.559 89.2103C134.51 92.3992 138.917 94 144.781 94C150.48 94 154.787 92.5253 157.712 89.5884C160.701 86.5886 162.195 82.4039 162.195 77.0092V51.9641H153.279V77.6016C153.279 83.6265 150.468 86.639 144.857 86.639C139.196 86.639 136.359 83.6265 136.359 77.6016V51.9641H127.443V77.0092ZM112.195 62.2241C114.12 64.745 115.082 68.1734 115.082 72.522C115.082 77.2613 113.917 80.904 111.599 83.4501C109.687 85.5676 107.154 86.639 104.039 86.639C100.556 86.639 97.8327 85.3407 95.8697 82.7568C93.9826 80.2485 93.0328 76.8453 93.0328 72.522C93.0328 68.1734 93.9826 64.745 95.8697 62.2241C97.8454 59.615 100.53 58.3168 103.937 58.3168C107.445 58.3168 110.206 59.615 112.195 62.2241ZM89.246 56.7286C85.7125 60.5099 83.9521 65.7912 83.9521 72.5346C83.9521 79.9208 86.0671 85.492 90.2845 89.2733C93.7927 92.4244 98.3773 94 104.039 94C110.346 94 115.285 92.0841 118.844 88.2524C122.39 84.4584 124.163 79.2276 124.163 72.5346C124.163 65.829 122.39 60.5477 118.844 56.7286C115.298 52.8842 110.422 50.981 104.203 50.981C97.7947 50.981 92.8048 52.8968 89.246 56.7286ZM57.014 58.9218H65.6134C67.9817 58.9218 69.7421 59.3377 70.9073 60.1822C72.0851 61.0267 72.6677 62.4258 72.6677 64.3795C72.6677 68.1861 70.3121 70.0893 65.6134 70.0893H57.014V58.9218ZM57.014 93.0169V77.0092H65.8794L73.3896 93.0169H83.3822L74.5421 75.5471C79.3801 73.3161 81.7991 69.6482 81.7991 64.5434C81.7991 60.9511 80.8745 58.1277 79.0255 56.0353C76.6571 53.3128 72.9463 51.9641 67.9057 51.9641H48.1233V93.0169H57.014ZM39.7391 56.0858C36.7882 52.6826 32.2289 50.981 26.0611 50.981C19.754 50.981 14.8274 52.9473 11.2559 56.8798C7.74775 60.7494 6 66.0811 6 72.8875C6 80.4376 8.10236 86.0718 12.3324 89.7775C15.524 92.5883 19.64 94 24.706 94C30.2025 94 34.3439 92.2858 37.1175 88.87L38.0547 93.0169H43.7539V71.2994H28.4421V77.7276H35.0658V79.6183C35.0658 81.7232 34.1666 83.4501 32.3682 84.7735C30.6584 86.0213 28.4801 86.639 25.8458 86.639C22.4136 86.639 19.7667 85.4668 17.9176 83.1223C16.0305 80.7653 15.0807 77.3621 15.0807 72.9127C15.0807 68.3373 15.9799 64.7828 17.7783 62.2494C19.6527 59.6276 22.2996 58.3168 25.7445 58.3168C30.5318 58.3168 33.7107 60.7999 35.2811 65.7912L43.6399 63.7619C42.7534 60.5982 41.4489 58.0268 39.7391 56.0858Z" fill="black"/>
<path d="M113.955 43.0654L121.63 14.0751L128.9 43.0654H138.563L148.581 2H139.5L133.269 31.6205L126.227 2H117.4L110.118 31.6205L104.051 2H94.7426L104.203 43.0654H113.955ZM55.1397 43.0912V13.8362L64.9169 43.0912H72.2119L81.9385 13.8362V43.0912H90.3859V2.0384H78.709L68.7671 32.5286L58.6985 2.0384H46.7556V43.0912H55.1397ZM16.2333 8.99607H25.6306C27.467 8.99607 28.8602 9.21032 29.8353 9.6389C31.4184 10.3321 32.2037 11.643 32.2037 13.5715C32.2037 15.1722 31.6844 16.3445 30.6586 17.0881C29.658 17.8318 27.9863 18.1973 25.6306 18.1973H16.2333V8.99607ZM16.2333 25.1172H25.5293C27.9863 25.1172 29.8227 25.4324 31.0385 26.0499C32.6216 26.8566 33.4068 28.3817 33.4068 30.5875C33.4068 32.4404 32.9129 33.7765 31.9124 34.6083C30.6966 35.6167 28.5689 36.1209 25.5293 36.1209H16.2333V25.1172ZM25.3647 43.0912C36.7124 43.0912 42.3862 38.9695 42.3862 30.7514C42.3862 26.176 40.1825 23.0122 35.7625 21.2602C39.3086 19.5586 41.0817 16.6218 41.0817 12.4623C41.0817 8.80701 39.6253 6.07185 36.725 4.24419C34.4073 2.76947 31.2665 2.0384 27.2897 2.0384H7.46924V43.0912H25.3647Z" fill="black"/>
</g>
</svg>
