<svg id="Lager_1" data-name="Lager 1" xmlns="http://www.w3.org/2000/svg" viewBox="0 0 572 150"><defs><style>.cls-1{fill:#fff;}</style></defs><g id="design"><g id="bright-logga"><g id="Group-3"><path id="bright" d="M232.74,122a33.89,33.89,0,0,0,14.16-3,35.3,35.3,0,0,0,11.38-8.16,37.36,37.36,0,0,0,7.52-12.08,41.8,41.8,0,0,0,0-29.56,37.4,37.4,0,0,0-7.52-12.09A35.52,35.52,0,0,0,246.9,49a33.89,33.89,0,0,0-14.16-3q-13.28,0-21.6,7.87h0V14H191V120.3h17.22l2.92-6.27a25.06,25.06,0,0,0,9.27,5.76A34.17,34.17,0,0,0,232.74,122ZM230,104.13a21.76,21.76,0,0,1-7.37-1.23,17.15,17.15,0,0,1-6-3.65,16.51,16.51,0,0,1-4-6.11,24.06,24.06,0,0,1-1.46-8.81,27.15,27.15,0,0,1,1.46-9.54,16.31,16.31,0,0,1,4-6.26,15.45,15.45,0,0,1,6-3.49,23.9,23.9,0,0,1,7.37-1.1,17.06,17.06,0,0,1,7.37,1.61,20.36,20.36,0,0,1,6.06,4.29,18.89,18.89,0,0,1,4.08,6.41,21.66,21.66,0,0,1,0,15.65,19.16,19.16,0,0,1-4.08,6.34,20.49,20.49,0,0,1-6.06,4.29A17.23,17.23,0,0,1,230,104.13Zm64.88,16.17V82a14.63,14.63,0,0,1,1.75-7.06,17.79,17.79,0,0,1,4.67-5.61,21.92,21.92,0,0,1,6.93-3.64,28.12,28.12,0,0,1,8.68-1.31,22,22,0,0,1,2.92.22c1.07.15,2.05.32,2.92.51,1.07.29,2.14.53,3.21.73h0l1.9-17.91a45.46,45.46,0,0,0-11.53-1.75,26.3,26.3,0,0,0-7.59,1,24.5,24.5,0,0,0-6,2.69,21.93,21.93,0,0,0-4.53,3.79,32.9,32.9,0,0,0-3.35,4.44h0l-1.9-10H274.7v72.2Zm49.23-82.13a11,11,0,0,0,11.1-10.8V27.1A11,11,0,0,0,352,19.17a11.13,11.13,0,0,0-15.73,0l0,0A10.92,10.92,0,0,0,333,27.1a11,11,0,0,0,10.83,11.07h.28Zm10.07,82.13V48.07H334V120.3Zm41.3,29.7a59.43,59.43,0,0,0,16.72-2.33,34.17,34.17,0,0,0,14.37-8.59,28,28,0,0,0,5.48-7.57,34.43,34.43,0,0,0,2.84-9.25,87.47,87.47,0,0,0,1.1-11.65q.21-6.48.21-14.78h0V48.07H419l-3,5.54a23.71,23.71,0,0,0-9.48-5.76A39.66,39.66,0,0,0,394.14,46a32.21,32.21,0,0,0-13.5,2.84,33.64,33.64,0,0,0-10.73,7.72A35.85,35.85,0,0,0,362.83,68a38.28,38.28,0,0,0-2.55,14,38.74,38.74,0,0,0,2.55,14,35.77,35.77,0,0,0,7.08,11.5,33.27,33.27,0,0,0,10.73,7.72,32.21,32.21,0,0,0,13.5,2.84,31.57,31.57,0,0,0,12.11-2.26,33.39,33.39,0,0,0,9.78-6h0v1.46a25,25,0,0,1-1.82,10.12,19.69,19.69,0,0,1-5,6.91,19.14,19.14,0,0,1-7.37,4,32.19,32.19,0,0,1-9,1.24,40.91,40.91,0,0,1-13.94-2.48,27.4,27.4,0,0,1-5.55-2.77,12.65,12.65,0,0,1-3.72-3.64h0v18.79a47.64,47.64,0,0,0,11.82,4.8A54.18,54.18,0,0,0,395.45,150Zm2.78-49.8a17.7,17.7,0,0,1-7-1.38A17.31,17.31,0,0,1,385.6,95a18.43,18.43,0,0,1-3.79-5.75,18.68,18.68,0,0,1,0-14.13,18.3,18.3,0,0,1,9.41-9.68,16.87,16.87,0,0,1,7-1.46,18.13,18.13,0,0,1,7.88,1.61,16.38,16.38,0,0,1,5.54,4.15,17.06,17.06,0,0,1,3.29,5.82A20.25,20.25,0,0,1,415,88.41a16.86,16.86,0,0,1-8.76,10.12,17.85,17.85,0,0,1-8,1.67Zm67,20.1V83.46a24.15,24.15,0,0,1,1.39-8.59,17.44,17.44,0,0,1,3.72-6.05,15.71,15.71,0,0,1,5.4-3.64,17.21,17.21,0,0,1,6.42-1.24,13,13,0,0,1,6.64,1.82,19.13,19.13,0,0,1,5.48,4.81A23.2,23.2,0,0,1,498,77.49a25.3,25.3,0,0,1,1.31,8h0v.66c0,2.68,0,5.84-.07,9.46q-.07,5.91-.08,11.43h0V120.3h19.71V84a42.57,42.57,0,0,0-2.56-14.78,38.44,38.44,0,0,0-7.08-12.09A33.37,33.37,0,0,0,498.4,49,30.45,30.45,0,0,0,485,46a29.59,29.59,0,0,0-11.16,2,27,27,0,0,0-8.69,5.61h0V14H444.9V120.3Zm90.9,2.76a42.3,42.3,0,0,0,8.17-.8,70.88,70.88,0,0,0,7.74-2h0V103.4A22.23,22.23,0,0,1,563.9,105a12,12,0,0,1-8.25-2.77c-2.09-1.84-3.14-4.47-3.14-7.86h0V66H572V48.07H552.44V31.91H532.3V48.07l-10.36,4.37V66H532.3V98.6a30.46,30.46,0,0,0,2,11.72,19.42,19.42,0,0,0,5.33,7.57,19.83,19.83,0,0,0,7.59,4,33.6,33.6,0,0,0,8.87,1.17Z"></path><g id="bright-b-copy"><circle id="Oval" cx="71" cy="71" r="71"></circle><path id="b" class="cls-1" d="M76.7,108a25,25,0,0,0,10.41-2.18,26.4,26.4,0,0,0,8.38-6A27.54,27.54,0,0,0,101,91a30.36,30.36,0,0,0,0-21.61,27.49,27.49,0,0,0-5.52-8.84,26.09,26.09,0,0,0-8.38-6,24.81,24.81,0,0,0-10.4-2.13q-9.76,0-15.89,5.75h0V29H46v77.72H58.67l2.14-4.58a18.29,18.29,0,0,0,6.82,4.21A25.33,25.33,0,0,0,76.7,108Zm-2-13.1a16.1,16.1,0,0,1-5.42-.9,12.57,12.57,0,0,1-4.4-2.66,11.92,11.92,0,0,1-3-4.47,17.5,17.5,0,0,1-1.08-6.45,19.61,19.61,0,0,1,1.08-7,11.89,11.89,0,0,1,3-4.58,11.39,11.39,0,0,1,4.4-2.55,18.11,18.11,0,0,1,5.42-.8,12.83,12.83,0,0,1,5.42,1.17,15.27,15.27,0,0,1,4.46,3.14,13.83,13.83,0,0,1,3,4.69,15.69,15.69,0,0,1,0,11.44,13.89,13.89,0,0,1-3,4.63,15,15,0,0,1-4.46,3.14,12.71,12.71,0,0,1-5.46,1.2Z"></path></g></g></g></g></svg>