<svg xmlns="http://www.w3.org/2000/svg" xmlns:xlink="http://www.w3.org/1999/xlink" width="295" height="97" version="1.1" viewBox="0 0 295 97"><desc>Created with Sketch.</desc><g id="1a.-Sign-Up---capture-email" fill="none" fill-rule="evenodd" stroke="none" stroke-width="1"><g id="Web-email" transform="translate(-67.000000, -40.000000)"><path id="Fill-20" fill="#010201" d="M238.40267,77.2606936 C240.563152,77.2606936 242.192262,75.6084662 242.192262,73.417804 C242.192262,71.1969612 240.563152,69.5222589 238.40267,69.5222589 C236.241546,69.5222589 234.612115,71.1969612 234.612115,73.417804 C234.612115,75.6084662 236.241546,77.2606936 238.40267,77.2606936"/><path id="Fill-22" fill="#010201" d="M267.180613,80.9453599 C262.998352,80.9453599 259.761322,82.6807445 257.758165,85.9778147 L257.758165,81.1559819 L251.177509,81.1559819 L251.177509,109.687567 L257.758165,109.687567 L257.757201,94.8162361 C258.238165,89.9350054 261.926619,86.9596475 267.165843,87.2630589 L267.44389,87.2784702 L267.44389,80.9453599 L267.180613,80.9453599 Z"/><polygon id="Fill-24" fill="#010201" points="289.196 92.294 299.848 81.156 292.173 81.156 280.176 93.307 280.176 70.102 273.596 70.102 273.596 109.688 280.176 109.688 280.176 101.686 284.611 97.006 292.641 109.566 292.719 109.688 300.507 109.688"/><path id="Fill-26" fill="#010201" d="M351.937215,92.3530174 C349.042124,91.487412 346.541951,90.7389973 346.541951,88.7897799 C346.541951,86.7005759 348.631797,86.2626361 350.38484,86.2626361 C352.831716,86.2626361 355.865509,87.1950241 358.301148,88.6969906 L358.546767,88.8482147 L360.984332,83.9133652 L360.801322,83.7839739 C358.284773,82.0010709 354.474633,80.8930575 350.85874,80.8930575 C343.057696,80.8930575 340.277549,85.2159472 340.277549,89.2614321 C340.246726,95.2243485 345.285603,96.7327365 349.333977,97.9438134 C352.355569,98.847305 354.963944,99.62879 354.963944,101.89683 C354.963944,104.368429 351.945563,104.634596 350.648118,104.634596 C347.484613,104.634596 343.703369,103.233124 341.452666,101.226435 L341.196773,100.997191 L338.794205,105.800402 L338.942218,105.93493 C341.642098,108.37988 346.026633,109.898221 350.38484,109.898221 C355.459355,109.898221 361.386312,107.651051 361.386312,101.318904 C361.418098,95.1883886 356.161536,93.6154656 351.937215,92.3530174"/><path id="Fill-28" fill="#010201" d="M213.44967,103.942754 C212.589522,104.132185 211.701763,104.248734 210.788961,104.271851 C209.876479,104.294647 208.983583,104.222727 208.115088,104.07664 C206.230084,103.759744 204.466124,103.069764 202.911502,102.073483 C201.401188,101.106098 200.086726,99.8558508 199.044532,98.3959445 C197.971837,96.8933358 197.193884,95.166299 196.782914,93.2995967 C196.593482,92.4394495 196.476613,91.5513692 196.453817,90.6388876 C196.4307,89.726406 196.50294,88.8335097 196.648706,87.9650147 C196.965603,86.0800114 197.655904,84.3163726 198.651864,82.7614294 C199.619569,81.2514361 200.869817,79.9366535 202.329402,78.8944595 C203.832332,77.8217639 205.559047,77.0438107 207.426071,76.6328408 C208.286218,76.4434094 209.173977,76.3265398 210.08678,76.3037438 C210.999262,76.2806268 211.892158,76.3528676 212.760653,76.4986334 C214.645656,76.8155298 216.409295,77.5058308 217.963917,78.5017906 C219.474231,79.4694963 220.789014,80.7197438 221.831208,82.1793291 L226.889027,78.5798107 C225.385134,76.4707003 223.486967,74.6656435 221.305295,73.2696301 C219.061335,71.833804 216.514285,70.8397706 213.790646,70.3841719 C212.537188,70.174192 211.248733,70.0708074 209.931061,70.1038776 C208.613389,70.1369478 207.331676,70.3048676 206.090419,70.5774562 C203.392787,71.1695097 200.899034,72.2897237 198.729884,73.8366401 C196.620773,75.340212 194.815716,77.2383793 193.419703,79.4203726 C191.983877,81.6643324 190.990165,84.2110615 190.534245,86.9350214 C190.324265,88.1884796 190.22088,89.4769344 190.253951,90.7946067 C190.287021,92.1122789 190.45494,93.3939913 190.727529,94.6352488 C191.319583,97.3325599 192.439797,99.8266334 193.986392,101.995784 C195.490285,104.104894 197.388452,105.90963 199.570445,107.305965 C201.814405,108.741791 204.361456,109.735503 207.085094,110.191423 C208.338553,110.401082 209.627007,110.504787 210.94468,110.471717 C212.262352,110.438647 213.544064,110.270406 214.785322,109.998138 C217.482633,109.406085 219.976706,108.285871 222.145857,106.738955 C224.254646,105.235383 226.060024,103.337215 227.456037,101.155222 L222.223556,97.8138441 C221.256171,99.3241585 220.005924,100.638941 218.546017,101.681135 C217.043409,102.753831 215.316372,103.531463 213.44967,103.942754"/><path id="Fill-30" fill="#010201" d="M326.935187,81.156913 L326.935187,96.9404047 C326.935187,101.703482 324.156324,104.547201 319.501126,104.547201 C314.765662,104.547201 311.938638,101.703482 311.938638,96.9404047 L311.938638,81.156913 L305.806839,81.156913 L305.806839,96.9404047 C305.806839,105.095268 311.037715,110.161435 319.457782,110.161435 C327.852163,110.161435 333.066665,105.095268 333.066665,96.9404047 L333.066665,81.156913 L326.935187,81.156913 Z"/><path id="Fill-32" fill="#FEFEFE" d="M114.897193,43.3241478 C89.9269191,43.3241478 69.684404,63.5666629 69.684404,88.5369371 C69.684404,113.507211 89.9269191,133.749726 114.897193,133.749726 C139.867468,133.749726 160.109983,113.507211 160.109983,88.5369371 C160.109983,63.5666629 139.867468,43.3241478 114.897193,43.3241478"/><path id="Fill-34" fill="#E5E5E4" d="M114.897193,88.536905 L76.2204308,62.4489853 C79.8225177,57.1089452 83.4692334,53.4622294 88.8092736,49.8601425 L114.897193,88.536905 Z"/><path id="Fill-36" fill="#E5E5E4" d="M114.897193,88.536905 L69.1016615,97.4385773 C67.8726047,91.1157411 67.8726047,85.9580689 69.1016615,79.6352328 L114.897193,88.536905 Z"/><path id="Fill-38" fill="#E5E5E4" d="M114.897193,88.536905 L88.8092736,127.213668 C83.4692334,123.611581 79.8225177,119.964865 76.2204308,114.624825 L114.897193,88.536905 Z"/><path id="Fill-40" fill="#E5E5E4" d="M114.897193,88.536905 L123.798866,134.332437 C117.476029,135.561494 112.318357,135.561494 105.995521,134.332437 L114.897193,88.536905 Z"/><path id="Fill-42" fill="#E5E5E4" d="M114.897193,88.536905 L153.573956,114.624825 C149.971869,119.964865 146.325153,123.611581 140.985113,127.213668 L114.897193,88.536905 Z"/><path id="Fill-44" fill="#E5E5E4" d="M114.897193,88.536905 L160.692725,79.6352328 C161.921782,85.9580689 161.921782,91.1157411 160.692725,97.4385773 L114.897193,88.536905 Z"/><path id="Fill-46" fill="#E5E5E4" d="M114.897193,88.536905 L140.985113,49.8601425 C146.325153,53.4622294 149.971869,57.1089452 153.573956,62.4489853 L114.897193,88.536905 Z"/><path id="Fill-48" fill="#E5E5E4" d="M114.897193,88.536905 L105.995521,42.7413732 C112.318357,41.5123164 117.476029,41.5123164 123.798866,42.7413732 L114.897193,88.536905 Z"/><path id="Fill-50" fill="#098ACB" d="M114.897193,40.755586 C88.5084308,40.755586 67.1158421,62.1481746 67.1158421,88.5369371 C67.1158421,114.9257 88.5084308,136.318288 114.897193,136.318288 C141.285956,136.318288 162.678544,114.9257 162.678544,88.5369371 C162.678544,62.1481746 141.285956,40.755586 114.897193,40.755586 M114.897193,49.862101 C136.222357,49.862101 153.571708,67.2117732 153.571708,88.5369371 C153.571708,109.862101 136.222357,127.211773 114.897193,127.211773 C93.5720294,127.211773 76.2226783,109.862101 76.2226783,88.5369371 C76.2226783,67.2117732 93.5720294,49.862101 114.897193,49.862101"/><path id="Fill-52" fill="#010201" d="M118.814989,108.692538 C117.545477,108.938799 116.237758,109.077502 114.89729,109.077502 C113.556821,109.077502 112.248781,108.938799 110.97927,108.692538 C108.223845,108.157957 105.660099,107.079803 103.414855,105.560177 C101.233504,104.084217 99.3497846,102.200498 97.8738247,100.019147 C96.3541993,97.773903 95.2763666,95.2101572 94.7417846,92.4547324 C94.4952027,91.1852207 94.3565003,89.8775017 94.3565003,88.5370334 C94.3565003,87.1962441 94.4952027,85.8885251 94.7414635,84.6190134 C95.2760455,81.8635886 96.3541993,79.3001639 97.8738247,77.0545987 C99.3497846,74.8732475 101.233504,72.9895284 103.414855,71.5135686 C105.660099,69.9942642 108.223845,68.9161104 110.97927,68.3812074 C112.248781,68.1349465 113.556821,67.9962441 114.89729,67.9962441 C116.237758,67.9962441 117.545477,68.1349465 118.814989,68.3812074 C121.570413,68.9161104 124.133838,69.9939431 126.379403,71.5135686 C128.560755,72.9895284 130.444474,74.8732475 131.920433,77.0545987 L139.478106,71.9569666 C137.348447,68.8056622 134.62834,66.0858763 131.477035,63.9558963 C128.235831,61.7655552 124.533892,60.2128595 120.5523,59.4432542 C118.720273,59.0891137 116.832701,58.8897291 114.89729,58.8897291 C112.961557,58.8897291 111.073985,59.0891137 109.241959,59.4432542 C105.260367,60.2128595 101.558427,61.7655552 98.3172227,63.9562174 C95.1655973,66.0858763 92.4458114,68.8056622 90.3161525,71.9569666 C88.1258114,75.1981706 86.5731157,78.9001104 85.8035104,82.8817023 C85.4493699,84.7137291 85.2499853,86.601301 85.2499853,88.5370334 C85.2499853,90.4724448 85.4493699,92.3600167 85.8035104,94.1920435 C86.5731157,98.1736355 88.1258114,101.875896 90.3161525,105.116779 C92.4458114,108.268405 95.1655973,110.98787 98.3172227,113.117849 C101.558427,115.308191 105.260367,116.860886 109.241959,117.630492 C111.074306,117.984632 112.961878,118.184017 114.89729,118.184017 C116.832701,118.184017 118.720273,117.984632 120.5523,117.630492 C124.533892,116.860886 128.235831,115.308512 131.477035,113.117849 C134.62834,110.988191 137.348447,108.268405 139.478106,105.1171 L131.920433,100.019147 C130.444474,102.200498 128.560755,104.084217 126.379403,105.560177 C124.133838,107.079803 121.570413,108.157957 118.814989,108.692538"/><path id="Fill-54" fill="#ED1C24" d="M126.470234,88.536905 C126.470234,94.9284502 121.288803,100.109882 114.897258,100.109882 C108.505712,100.109882 103.324281,94.9284502 103.324281,88.536905 C103.324281,82.1453599 108.505712,76.9639284 114.897258,76.9639284 C121.288803,76.9639284 126.470234,82.1453599 126.470234,88.536905"/><path id="Fill-56" fill="#FEFEFE" d="M121.246389,85.3623231 C121.246389,87.1156876 119.825011,88.5370656 118.071647,88.5370656 C116.318603,88.5370656 114.897225,87.1156876 114.897225,85.3623231 C114.897225,83.6089585 116.318603,82.1875806 118.071647,82.1875806 C119.825011,82.1875806 121.246389,83.6089585 121.246389,85.3623231"/><polygon id="Fill-19" fill="#010201" points="235.138 109.688 241.666 109.688 241.666 81.156 235.138 81.156"/></g></g></svg>