<svg width="96" height="96" viewBox="0 0 96 96" fill="none" xmlns="http://www.w3.org/2000/svg">
<g clip-path="url(#clip0_181_58)">
<path d="M69.8101 57.192H96.0001V51.516H86.1481V29.958C86.1481 26.382 83.8081 24 80.2261 24V29.616H69.9181V35.292H74.7601C77.4901 35.292 79.4881 33.924 80.2261 31.77V51.51H69.8101V57.192ZM54.6601 51.864H47.8801C47.0999 51.8711 46.326 51.724 45.6028 51.4311C44.8797 51.1382 44.2215 50.7052 43.6662 50.1571C43.1109 49.6091 42.6693 48.9567 42.3669 48.2374C42.0646 47.5182 41.9073 46.7462 41.9041 45.966V40.866C41.9041 37.632 44.5261 34.968 47.8861 34.968H54.6661C55.4499 34.9553 56.2285 35.098 56.9568 35.3879C57.6851 35.6778 58.3487 36.1091 58.9094 36.657C59.4701 37.2048 59.9167 37.8583 60.2233 38.5797C60.53 39.3011 60.6907 40.0761 60.6961 40.86V45.966C60.6907 46.7507 60.5298 47.5265 60.2229 48.2486C59.9159 48.9707 59.4689 49.6249 58.9077 50.1733C58.3464 50.7217 57.6821 51.1534 56.9531 51.4436C56.224 51.7338 55.4447 51.8767 54.6601 51.864ZM35.7601 43.398C35.7601 51.972 42.0241 57.756 50.6821 57.756H51.8821C60.5341 57.756 66.8521 51.972 66.8521 43.398C66.8521 34.824 60.5221 29.052 51.8641 29.052H50.6701C42.0241 29.052 35.7601 34.836 35.7601 43.398ZM21.2941 73.758H10.8781C8.08214 73.758 6.09014 72.054 6.09014 69.72V69.264C6.09014 66.882 8.08214 65.124 10.8781 65.124H21.3001C24.0901 65.124 26.1361 66.882 26.1361 69.264V69.72C26.1361 72.054 24.0961 73.752 21.3001 73.752L21.2941 73.758ZM19.3561 49.818H12.6961C9.45614 49.818 6.82814 47.376 6.82814 44.202V40.68C6.83119 39.9164 6.98602 39.1611 7.28364 38.4579C7.58126 37.7547 8.01572 37.1177 8.56175 36.584C9.10779 36.0502 9.75449 35.6304 10.4643 35.3488C11.174 35.0673 11.9327 34.9297 12.6961 34.944H19.3561C22.6021 34.944 25.2241 37.44 25.2241 40.68V44.136C25.2241 47.376 22.6021 49.812 19.3621 49.812L19.3561 49.818ZM32.2741 69.33C32.2741 63.144 28.0021 59.514 19.1281 59.514H7.96814C6.59414 59.514 5.74814 58.656 5.74814 57.582C5.74814 56.442 6.60614 55.602 7.96814 55.602H16.3981C25.1101 55.602 31.3741 50.094 31.3741 42.042V29.502C28.9261 29.502 26.8141 31.032 25.9021 33.138C23.6281 30.576 20.1481 29.052 15.7141 29.052H14.7961C6.94214 29.052 0.678141 34.38 0.678141 42.27C0.678141 46.302 2.33414 49.356 5.05814 51.408C2.16014 52.248 0.102141 54.582 0.102141 57.588C0.102141 60.366 1.81214 62.58 4.38014 63.546C1.65014 65.07 -0.00585938 67.458 -0.00585938 70.698C-0.00585938 76.146 5.34614 79.656 15.8221 79.656H16.4521C26.9281 79.656 32.2741 75.966 32.2741 69.33Z" fill="black"/>
</g>
<defs>
<clipPath id="clip0_181_58">
<rect width="96" height="96" fill="white"/>
</clipPath>
</defs>
</svg>
