<svg xmlns="http://www.w3.org/2000/svg" width="322" height="297" fill="none" viewBox="0 0 322 297"><rect width="322" height="297" fill="#017FA2" rx="140"/><rect width="150" height="136" x="172" fill="#017FA2"/><rect width="176" height="157" y="140" fill="#017FA2"/><path fill="#fff" d="M66.064 122.8V87.592H54.76V122.296C54.76 123.208 54.712 124.168 54.616 125.176C54.568 126.136 54.352 127.048 53.968 127.912C53.632 128.728 53.056 129.4 52.24 129.928C51.424 130.456 50.272 130.72 48.784 130.72C47.44 130.72 46.336 130.504 45.472 130.072C44.656 129.64 44.008 129.064 43.528 128.344C43.048 127.576 42.712 126.664 42.52 125.608C42.328 124.552 42.232 123.4 42.232 122.152V119.848H32.008V124.312C32.008 127.144 32.488 129.568 33.448 131.584C34.408 133.552 35.68 135.184 37.264 136.48C38.848 137.728 40.648 138.64 42.664 139.216C44.68 139.84 46.768 140.152 48.928 140.152C52.768 140.152 55.816 139.576 58.072 138.424C60.328 137.224 62.056 135.76 63.256 134.032C64.456 132.256 65.224 130.36 65.56 128.344C65.896 126.328 66.064 124.48 66.064 122.8ZM87.2798 108.4V96.376H97.8638C98.8718 96.376 99.8318 96.472 100.744 96.664C101.704 96.808 102.544 97.096 103.264 97.528C103.984 97.96 104.56 98.56 104.992 99.328C105.424 100.096 105.64 101.08 105.64 102.28C105.64 104.44 104.992 106 103.696 106.96C102.4 107.92 100.744 108.4 98.7278 108.4H87.2798ZM75.9758 87.592V139H100.888C103.192 139 105.424 138.712 107.584 138.136C109.792 137.56 111.736 136.672 113.416 135.472C115.144 134.272 116.512 132.736 117.52 130.864C118.528 128.944 119.032 126.688 119.032 124.096C119.032 120.88 118.24 118.144 116.656 115.888C115.12 113.584 112.768 111.976 109.6 111.064C111.904 109.96 113.632 108.544 114.784 106.816C115.984 105.088 116.584 102.928 116.584 100.336C116.584 97.936 116.176 95.92 115.36 94.288C114.592 92.656 113.488 91.36 112.048 90.4C110.608 89.392 108.88 88.672 106.864 88.24C104.848 87.808 102.616 87.592 100.168 87.592H75.9758ZM87.2798 130.216V116.104H99.5918C102.04 116.104 104.008 116.68 105.496 117.832C106.984 118.936 107.728 120.808 107.728 123.448C107.728 124.792 107.488 125.896 107.008 126.76C106.576 127.624 105.976 128.32 105.208 128.848C104.44 129.328 103.552 129.688 102.544 129.928C101.536 130.12 100.48 130.216 99.3758 130.216H87.2798ZM139.631 119.128L146.327 100.264H146.471L152.951 119.128H139.631ZM140.711 87.592L121.271 139H132.647L136.679 127.552H155.903L159.791 139H171.527L152.303 87.592H140.711Z"/><path fill="#fff" d="M41.62 203.608C40.828 203.608 40.168 203.44 39.64 203.104C39.112 202.768 38.68 202.336 38.344 201.808C38.032 201.28 37.804 200.692 37.66 200.044C37.54 199.372 37.48 198.7 37.48 198.028C37.48 197.332 37.552 196.672 37.696 196.048C37.864 195.4 38.116 194.836 38.452 194.356C38.812 193.852 39.244 193.456 39.748 193.168C40.276 192.88 40.9 192.736 41.62 192.736C42.46 192.736 43.156 192.892 43.708 193.204C44.26 193.516 44.704 193.936 45.04 194.464C45.376 194.992 45.616 195.604 45.76 196.3C45.904 196.972 45.976 197.692 45.976 198.46C45.976 199.132 45.88 199.78 45.688 200.404C45.52 201.004 45.256 201.544 44.896 202.024C44.536 202.504 44.08 202.888 43.528 203.176C42.976 203.464 42.34 203.608 41.62 203.608ZM50.836 206.812V189.388H45.976V191.872H45.904C45.28 190.792 44.5 190.024 43.564 189.568C42.652 189.112 41.584 188.884 40.36 188.884C39.064 188.884 37.912 189.136 36.904 189.64C35.92 190.144 35.092 190.828 34.42 191.692C33.748 192.532 33.232 193.516 32.872 194.644C32.536 195.748 32.368 196.9 32.368 198.1C32.368 199.372 32.512 200.584 32.8 201.736C33.112 202.864 33.592 203.86 34.24 204.724C34.888 205.564 35.716 206.236 36.724 206.74C37.732 207.22 38.932 207.46 40.324 207.46C41.452 207.46 42.52 207.232 43.528 206.776C44.56 206.296 45.352 205.564 45.904 204.58H45.976V207.028C46 208.348 45.676 209.44 45.004 210.304C44.356 211.168 43.312 211.6 41.872 211.6C40.96 211.6 40.156 211.408 39.46 211.024C38.764 210.664 38.296 210.004 38.056 209.044H32.98C33.052 210.1 33.34 211 33.844 211.744C34.372 212.512 35.02 213.136 35.788 213.616C36.58 214.096 37.444 214.444 38.38 214.66C39.34 214.9 40.276 215.02 41.188 215.02C43.324 215.02 45.028 214.732 46.3 214.156C47.572 213.58 48.544 212.872 49.216 212.032C49.888 211.216 50.32 210.328 50.512 209.368C50.728 208.408 50.836 207.556 50.836 206.812ZM54.9518 189.388V208H60.0638V199.612C60.0638 198.772 60.1478 197.992 60.3158 197.272C60.4838 196.552 60.7598 195.928 61.1438 195.4C61.5518 194.848 62.0798 194.416 62.7278 194.104C63.3758 193.792 64.1678 193.636 65.1038 193.636C65.4158 193.636 65.7398 193.66 66.0758 193.708C66.4118 193.732 66.6998 193.768 66.9398 193.816V189.064C66.5318 188.944 66.1598 188.884 65.8238 188.884C65.1758 188.884 64.5518 188.98 63.9518 189.172C63.3518 189.364 62.7878 189.64 62.2598 190C61.7318 190.336 61.2638 190.756 60.8558 191.26C60.4478 191.74 60.1238 192.268 59.8838 192.844H59.8118V189.388H54.9518ZM72.8472 198.712C72.8472 197.968 72.9192 197.236 73.0632 196.516C73.2072 195.796 73.4472 195.16 73.7832 194.608C74.1432 194.056 74.6112 193.612 75.1872 193.276C75.7632 192.916 76.4832 192.736 77.3472 192.736C78.2112 192.736 78.9312 192.916 79.5072 193.276C80.1072 193.612 80.5752 194.056 80.9112 194.608C81.2712 195.16 81.5232 195.796 81.6672 196.516C81.8112 197.236 81.8832 197.968 81.8832 198.712C81.8832 199.456 81.8112 200.188 81.6672 200.908C81.5232 201.604 81.2712 202.24 80.9112 202.816C80.5752 203.368 80.1072 203.812 79.5072 204.148C78.9312 204.484 78.2112 204.652 77.3472 204.652C76.4832 204.652 75.7632 204.484 75.1872 204.148C74.6112 203.812 74.1432 203.368 73.7832 202.816C73.4472 202.24 73.2072 201.604 73.0632 200.908C72.9192 200.188 72.8472 199.456 72.8472 198.712ZM67.7352 198.712C67.7352 200.2 67.9632 201.544 68.4192 202.744C68.8752 203.944 69.5232 204.976 70.3632 205.84C71.2032 206.68 72.2112 207.328 73.3872 207.784C74.5632 208.24 75.8832 208.468 77.3472 208.468C78.8112 208.468 80.1312 208.24 81.3072 207.784C82.5072 207.328 83.5272 206.68 84.3672 205.84C85.2072 204.976 85.8552 203.944 86.3112 202.744C86.7672 201.544 86.9952 200.2 86.9952 198.712C86.9952 197.224 86.7672 195.88 86.3112 194.68C85.8552 193.456 85.2072 192.424 84.3672 191.584C83.5272 190.72 82.5072 190.06 81.3072 189.604C80.1312 189.124 78.8112 188.884 77.3472 188.884C75.8832 188.884 74.5632 189.124 73.3872 189.604C72.2112 190.06 71.2032 190.72 70.3632 191.584C69.5232 192.424 68.8752 193.456 68.4192 194.68C67.9632 195.88 67.7352 197.224 67.7352 198.712ZM107.779 208V189.388H102.667V199.144C102.667 201.04 102.355 202.408 101.731 203.248C101.107 204.064 100.099 204.472 98.707 204.472C97.483 204.472 96.631 204.1 96.151 203.356C95.671 202.588 95.431 201.436 95.431 199.9V189.388H90.319V200.836C90.319 201.988 90.415 203.044 90.607 204.004C90.823 204.94 91.183 205.744 91.687 206.416C92.191 207.064 92.875 207.568 93.739 207.928C94.627 208.288 95.755 208.468 97.123 208.468C98.203 208.468 99.259 208.228 100.291 207.748C101.323 207.268 102.163 206.488 102.811 205.408H102.919V208H107.779ZM121.055 204.652C120.239 204.652 119.543 204.484 118.967 204.148C118.391 203.812 117.923 203.38 117.563 202.852C117.227 202.3 116.975 201.664 116.807 200.944C116.663 200.224 116.591 199.492 116.591 198.748C116.591 197.98 116.663 197.236 116.807 196.516C116.951 195.796 117.191 195.16 117.527 194.608C117.887 194.056 118.343 193.612 118.895 193.276C119.471 192.916 120.179 192.736 121.019 192.736C121.835 192.736 122.519 192.916 123.071 193.276C123.647 193.612 124.115 194.068 124.475 194.644C124.835 195.196 125.087 195.832 125.231 196.552C125.399 197.272 125.483 198.004 125.483 198.748C125.483 199.492 125.411 200.224 125.267 200.944C125.123 201.664 124.871 202.3 124.511 202.852C124.175 203.38 123.719 203.812 123.143 204.148C122.591 204.484 121.895 204.652 121.055 204.652ZM111.659 189.388V214.516H116.771V205.696H116.843C117.467 206.608 118.259 207.304 119.219 207.784C120.203 208.24 121.271 208.468 122.423 208.468C123.791 208.468 124.979 208.204 125.987 207.676C127.019 207.148 127.871 206.44 128.543 205.552C129.239 204.664 129.755 203.644 130.091 202.492C130.427 201.34 130.595 200.14 130.595 198.892C130.595 197.572 130.427 196.312 130.091 195.112C129.755 193.888 129.239 192.82 128.543 191.908C127.847 190.996 126.971 190.264 125.915 189.712C124.859 189.16 123.599 188.884 122.135 188.884C120.983 188.884 119.927 189.112 118.967 189.568C118.007 190.024 117.215 190.756 116.591 191.764H116.519V189.388H111.659Z"/></svg>