<svg width="100%" height="100%" viewBox="0 0 52 52" fill="none" xmlns="http://www.w3.org/2000/svg">
    <g clip-path="url(#clip0_498_44201)">
    <path d="M44.5708 38.3815C44.5708 41.8001 41.7989 44.5719 38.3804 44.5719C34.9614 44.5719 32.1899 41.8 32.1899 38.3815C32.1899 34.9625 34.9614 32.191 38.3804 32.191C41.799 32.191 44.5708 34.9625 44.5708 38.3815ZM36.8328 23.6788C36.8328 26.6705 34.4077 29.0956 31.416 29.0956C28.4242 29.0956 25.9993 26.6705 25.9993 23.6787C25.9993 20.6874 28.4242 18.262 31.416 18.262C34.4077 18.262 36.8328 20.6875 36.8328 23.6788ZM25.9992 35.286C25.9992 40.4143 21.8417 44.5719 16.7133 44.5719C11.5853 44.5719 7.42773 40.4143 7.42773 35.2859C7.42773 30.1575 11.5853 26.0003 16.7133 26.0003C21.8417 26.0003 25.9993 30.1575 25.9993 35.2859L25.9992 35.286ZM22.9044 15.1672C22.9044 19.4409 19.4398 22.9055 15.1661 22.9055C10.8924 22.9055 7.42773 19.4409 7.42773 15.1672C7.42773 10.8935 10.8924 7.42883 15.1661 7.42883C19.4398 7.42883 22.9044 10.8935 22.9044 15.1672ZM44.5708 12.0717C44.5708 14.6359 42.4918 16.7144 39.9276 16.7144C37.3634 16.7144 35.2848 14.6359 35.2848 12.0716C35.2849 9.50742 37.3634 7.42883 39.9277 7.42883C42.4919 7.42883 44.5709 9.50742 44.5709 12.0717H44.5708ZM43.0228 27.5475C43.0228 28.4023 42.33 29.0952 41.4752 29.0952C40.6204 29.0952 39.9276 28.4024 39.9276 27.5475C39.9276 26.6932 40.6204 26.0003 41.4752 26.0003C42.33 26.0003 43.0228 26.6932 43.0228 27.5475ZM31.416 12.8456C31.416 14.1279 30.3768 15.1672 29.0945 15.1672C27.8125 15.1672 26.7732 14.1279 26.7732 12.8456C26.7732 11.5637 27.8124 10.5244 29.0945 10.5244C30.3767 10.5244 31.416 11.5636 31.416 12.8456Z" fill="white"></path>
    </g>
    <defs>
    <clipPath id="clip0_498_44201">
    <rect width="37.1429" height="37.1429" fill="white" transform="translate(7.42773 7.42859)"></rect>
    </clipPath>
    </defs>
    </svg>