<svg
    width="60"
    height="60"
    viewBox="0 0 60 60"
    xmlns="http://www.w3.org/2000/svg"
>
    <g clip-path="url(#clip0_498_44055)">
        <path
            fill="white"
            d="M26.7704 44.2509C26.3438 44.6775 25.6521 44.6775 25.2255 44.2509L14.8473 33.8728C14.4207 33.4462 14.4207 32.7545 14.8473 32.3279L25.2255 21.9497C25.6521 21.5231 26.3438 21.5231 26.7704 21.9497L37.1486 32.3279C37.5752 32.7545 37.5752 33.4462 37.1486 33.8728L26.7704 44.2509ZM26.7704 19.1248C26.3438 19.5515 25.6521 19.5515 25.2255 19.1248L20.3095 14.2089C19.8829 13.7822 19.8829 13.0905 20.3095 12.6639L25.2255 7.74795C25.6521 7.32132 26.3438 7.32132 26.7704 7.74795L31.6864 12.6639C32.113 13.0906 32.113 13.7823 31.6864 14.2089L26.7704 19.1248Z"
        >
        </path>
    </g>
    <defs>
        <clipPath id="clip0_498_44055">
            <rect
                width="37.1429"
                height="37.1429"
                fill="white"
                transform="translate(7.42773 7.42847)"></rect>
        </clipPath>
    </defs>
</svg>