<svg width="100%" height="100%" viewBox="0 0 52 52" fill="none" xmlns="http://www.w3.org/2000/svg">
    <g clip-path="url(#clip0_498_44181)">
    <path d="M25.9992 44.5713C24.4516 44.5713 23.1619 44.0716 22.1301 43.0721C21.0984 42.0725 20.5825 40.8635 20.5825 39.4449C20.5825 38.6389 20.7437 37.9133 21.0661 37.2685C21.3885 36.6237 21.9528 35.9143 22.7588 35.1406C23.5971 34.3667 24.2581 33.6413 24.7417 32.9642C25.2576 32.2549 25.5155 31.6423 25.5155 31.1264V29.3853C24.8062 29.2241 24.1775 28.9017 23.6294 28.4181C23.1135 27.9022 22.775 27.2895 22.6137 26.5803H20.8727C20.3246 26.5803 19.6797 26.8382 18.9382 27.3541C18.1966 27.8699 17.4873 28.4987 16.8102 29.2402C16.1331 29.9818 15.456 30.5298 14.7789 30.8846C14.1341 31.2393 13.3925 31.4166 12.5542 31.4166C11.1033 31.4166 9.87812 30.9007 8.87863 29.8689C7.91137 28.8372 7.42773 27.5475 7.42773 25.9999C7.42773 24.4523 7.91137 23.1626 8.87863 22.1309C9.87812 21.0991 11.1033 20.5832 12.5542 20.5832C13.9084 20.5832 15.0691 21.0669 16.0364 22.0341C17.0036 23.0014 17.8742 23.8235 18.648 24.5006C19.4218 25.1777 20.1634 25.5163 20.8727 25.5163H22.6137C22.775 24.7747 23.1135 24.1621 23.6294 23.6785C24.1775 23.1626 24.8062 22.8402 25.5155 22.7112V20.9701C25.5155 20.1318 24.8707 19.0678 23.581 17.7782L22.5654 16.7625C21.2435 15.4406 20.5825 14.0381 20.5825 12.555C20.5825 11.1041 21.0984 9.89498 22.1301 8.92772C23.1941 7.92822 24.4838 7.42847 25.9992 7.42847C27.5467 7.42847 28.8365 7.92822 29.8681 8.92772C30.9 9.92723 31.4159 11.1363 31.4159 12.555C31.4159 14.1993 30.6097 15.7469 28.9977 17.1978C27.3855 18.681 26.5795 19.9384 26.5795 20.9701V22.7112C27.3211 22.8402 27.9338 23.1626 28.4173 23.6785C28.9333 24.1621 29.2557 24.7747 29.3845 25.5163H31.1256C32.2219 25.5163 33.4794 24.6941 34.898 23.0498C36.3488 21.4054 37.8643 20.5832 39.4441 20.5832C40.8949 20.5832 42.1041 21.1152 43.0713 22.1792C44.0708 23.2109 44.5706 24.4845 44.5706 25.9999C44.5706 27.5475 44.0708 28.8372 43.0713 29.8689C42.0718 30.9007 40.8628 31.4166 39.4441 31.4166C38.0899 31.4166 36.9454 30.949 36.0103 30.0141C35.0754 29.079 34.2048 28.273 33.3988 27.5959C32.5926 26.9188 31.835 26.5803 31.1256 26.5803H29.3845C29.1266 28.1278 28.1917 29.0629 26.5795 29.3853V31.1264C26.5795 32.0936 27.3855 33.3351 28.9977 34.8503C30.6097 36.3657 31.4159 37.8971 31.4159 39.4449C31.4159 40.8957 30.8838 42.1049 29.8199 43.0721C28.788 44.0716 27.5146 44.5713 25.9992 44.5713Z" fill="white"></path>
    </g>
    <defs>
    <clipPath id="clip0_498_44181">
    <rect width="37.1429" height="37.1429" fill="white" transform="translate(7.42773 7.42859)"></rect>
    </clipPath>
    </defs>
    </svg>