<svg
    width="60"
    height="60"
    viewBox="0 0 60 60"
    xmlns="http://www.w3.org/2000/svg"
>
    <path
        fill="white"
        d="M7.42773 17.256V34.7438C7.42773 40.1771 11.8219 44.5713 17.2553 44.5713H34.743C40.1764 44.5713 44.5706 40.1771 44.5706 34.7438V17.256C44.5706 11.8227 40.1764 7.42847 34.743 7.42847H17.2553C11.8219 7.45816 7.42773 11.8524 7.42773 17.256ZM17.285 42.107C13.1877 42.107 9.86234 38.7817 9.86234 34.6844C9.86234 30.5871 13.1877 27.2617 17.285 27.2617C21.3823 27.2617 24.7076 30.5871 24.7076 34.6844C24.7076 38.7817 21.3823 42.107 17.285 42.107ZM17.285 24.7381C13.1877 24.7381 9.86234 21.4127 9.86234 17.3154C9.86234 13.2181 13.1877 9.89278 17.285 9.89278C21.3823 9.89278 24.7076 13.2181 24.7076 17.3154C24.7076 21.4127 21.3823 24.7381 17.285 24.7381ZM34.6539 42.107C30.5567 42.107 27.2313 38.7817 27.2313 34.6844C27.2313 30.5871 30.5567 27.2617 34.6539 27.2617C38.7512 27.2617 42.0766 30.5871 42.0766 34.6844C42.0766 38.7817 38.7512 42.107 34.6539 42.107ZM34.6539 24.7381C30.5567 24.7381 27.2313 21.4127 27.2313 17.3154C27.2313 13.2181 30.5567 9.89278 34.6539 9.89278C38.7512 9.89278 42.0766 13.2181 42.0766 17.3154C42.0766 21.4127 38.7512 24.7381 34.6539 24.7381Z"
    >
    </path>
</svg>