<svg
    width="60"
    height="60"
    viewBox="0 0 60 60"
    xmlns="http://www.w3.org/2000/svg"
>
    <g clip-path="url(#clip0_498_44150)">
        <path
            fill="white"
            fill-rule="evenodd"
            clip-rule="evenodd"
            d="M13.3706 26.1187C13.3706 20.1294 17.487 15.1078 23.0277 13.7629V7.66614C14.1835 9.09749 7.42773 16.814 7.42773 26.1187C7.42773 35.4231 14.1835 43.1397 23.0277 44.571V38.4742C17.487 37.1295 13.3706 32.1078 13.3706 26.1187ZM44.5706 26.1187C44.5706 35.4231 37.8149 43.1397 28.9706 44.571V38.4742C34.5114 37.1295 38.6277 32.1078 38.6277 26.1187C38.6277 20.1294 34.5114 15.1078 28.9706 13.7629V7.66614C37.8149 9.09749 44.5706 16.814 44.5706 26.1187Z"
        >
        </path>
    </g>
    <defs>
        <clipPath id="clip0_498_44150">
            <rect
                fill="white"
                width="37.1429"
                height="37.1429"
                transform="translate(7.42773 7.42859)"></rect>
        </clipPath>
    </defs>
</svg>