<svg
    width="60"
    height="60"
    viewBox="0 0 60 60"
    xmlns="http://www.w3.org/2000/svg"
>
    <path
        fill="white"
        fill-rule="evenodd"
        clip-rule="evenodd"
        d="M30.8811 26.0261C30.8811 28.7076 28.7073 30.8814 26.0258 30.8814C23.3443 30.8814 21.1705 28.7076 21.1705 26.0261C21.1705 23.3446 23.3443 21.1708 26.0258 21.1708C28.7073 21.1708 30.8811 23.3446 30.8811 26.0261ZM29.4245 26.0261C29.4245 27.9032 27.9029 29.4248 26.0258 29.4248C24.1488 29.4248 22.6271 27.9032 22.6271 26.0261C22.6271 24.1491 24.1488 22.6274 26.0258 22.6274C27.9029 22.6274 29.4245 24.1491 29.4245 26.0261Z"
    >
    </path>
    <path
        fill="white"
        fill-rule="evenodd"
        clip-rule="evenodd"
        d="M26.0319 33.6793C30.2552 33.6793 33.6789 30.2555 33.6789 26.0322C33.6789 21.8088 30.2552 18.3851 26.0319 18.3851C21.8085 18.3851 18.3848 21.8088 18.3848 26.0322C18.3848 30.2555 21.8085 33.6793 26.0319 33.6793ZM26.0319 32.2227C29.4508 32.2227 32.2224 29.4511 32.2224 26.0322C32.2224 22.6133 29.4508 19.8417 26.0319 19.8417C22.613 19.8417 19.8414 22.6133 19.8414 26.0322C19.8414 29.4511 22.613 32.2227 26.0319 32.2227Z"
    >
    </path>
    <path
        fill="white"
        fill-rule="evenodd"
        clip-rule="evenodd"
        d="M36.3554 25.9776C36.3554 31.7093 31.709 36.3557 25.9773 36.3557C20.2456 36.3557 15.5991 31.7093 15.5991 25.9776C15.5991 20.2459 20.2456 15.5994 25.9773 15.5994C31.709 15.5994 36.3554 20.2459 36.3554 25.9776ZM34.8988 25.9776C34.8988 30.9048 30.9045 34.8991 25.9773 34.8991C21.05 34.8991 17.0557 30.9048 17.0557 25.9776C17.0557 21.0503 21.05 17.056 25.9773 17.056C30.9045 17.056 34.8988 21.0503 34.8988 25.9776Z"
    >
    </path>
    <path
        fill="white"
        fill-rule="evenodd"
        clip-rule="evenodd"
        d="M25.9226 39.0322C33.1627 39.0322 39.0319 33.163 39.0319 25.9229C39.0319 18.6829 33.1627 12.8137 25.9226 12.8137C18.6826 12.8137 12.8134 18.6829 12.8134 25.9229C12.8134 33.163 18.6826 39.0322 25.9226 39.0322ZM25.9226 37.5756C32.3582 37.5756 37.5753 32.3585 37.5753 25.9229C37.5753 19.4873 32.3582 14.2703 25.9226 14.2703C19.4871 14.2703 14.27 19.4873 14.27 25.9229C14.27 32.3585 19.4871 37.5756 25.9226 37.5756Z"
    >
    </path>
    <path
        fill="white"
        fill-rule="evenodd"
        clip-rule="evenodd"
        d="M41.7727 25.9933C41.7727 34.7082 34.708 41.773 25.9931 41.773C17.2782 41.773 10.2134 34.7082 10.2134 25.9933C10.2134 17.2785 17.2782 10.2137 25.9931 10.2137C34.708 10.2137 41.7727 17.2785 41.7727 25.9933ZM40.3162 25.9933C40.3162 33.9037 33.9035 40.3164 25.9931 40.3164C18.0827 40.3164 11.67 33.9037 11.67 25.9933C11.67 18.0829 18.0827 11.6703 25.9931 11.6703C33.9035 11.6703 40.3162 18.0829 40.3162 25.9933Z"
    >
    </path>
    <path
        fill="white"
        fill-rule="evenodd"
        clip-rule="evenodd"
        d="M44.5706 25.9994C44.5706 36.2561 36.2559 44.5708 25.9992 44.5708C15.7424 44.5708 7.42773 36.2561 7.42773 25.9994C7.42773 15.7427 15.7424 7.42798 25.9992 7.42798C36.2559 7.42798 44.5706 15.7427 44.5706 25.9994ZM43.114 25.9994C43.114 35.4517 35.4514 43.1143 25.9992 43.1143C16.5469 43.1143 8.88432 35.4517 8.88432 25.9994C8.88432 16.5471 16.5469 8.88456 25.9992 8.88456C35.4514 8.88456 43.114 16.5471 43.114 25.9994Z"
    >
    </path>
</svg>